ISO-10303-21;
HEADER;
/* Generated by software containing ST-Developer
 * from STEP Tools, Inc. (www.steptools.com) 
 */

FILE_DESCRIPTION(
/* description */ ('KiCad electronic assembly'),
/* implementation_level */ '2;1');

FILE_NAME(
/* name */ 'yousnoozeyousolveTOPCASE.step',
/* time_stamp */ '2026-09-12T08:41:16+08:00',
/* author */ (''),
/* organization */ (''),
/* preprocessor_version */ 'ST-DEVELOPER v20.2',
/* originating_system */ 'Autodesk Translation Framework v15.15.0.0',
/* authorisation */ '');

FILE_SCHEMA (('AUTOMOTIVE_DESIGN { 1 0 10303 214 3 1 1 }'));
ENDSEC;

DATA;
#10=MECHANICAL_DESIGN_GEOMETRIC_PRESENTATION_REPRESENTATION('',(#13),#1236);
#11=SHAPE_REPRESENTATION_RELATIONSHIP('SRR','None',#1242,#12);
#12=ADVANCED_BREP_SHAPE_REPRESENTATION('',(#14),#1235);
#13=STYLED_ITEM('',(#1251),#14);
#14=MANIFOLD_SOLID_BREP('Body4',#642);
#15=FACE_BOUND('',#84,.T.);
#16=FACE_BOUND('',#89,.T.);
#17=FACE_BOUND('',#90,.T.);
#18=FACE_BOUND('',#91,.T.);
#19=FACE_BOUND('',#92,.T.);
#20=FACE_BOUND('',#95,.T.);
#21=FACE_BOUND('',#101,.T.);
#22=FACE_BOUND('',#106,.T.);
#23=FACE_BOUND('',#114,.T.);
#24=PLANE('',#654);
#25=PLANE('',#663);
#26=PLANE('',#670);
#27=PLANE('',#679);
#28=PLANE('',#687);
#29=PLANE('',#697);
#30=PLANE('',#698);
#31=PLANE('',#699);
#32=PLANE('',#702);
#33=PLANE('',#709);
#34=PLANE('',#712);
#35=PLANE('',#715);
#36=PLANE('',#716);
#37=PLANE('',#717);
#38=FACE_OUTER_BOUND('',#78,.T.);
#39=FACE_OUTER_BOUND('',#79,.T.);
#40=FACE_OUTER_BOUND('',#80,.T.);
#41=FACE_OUTER_BOUND('',#81,.T.);
#42=FACE_OUTER_BOUND('',#82,.T.);
#43=FACE_OUTER_BOUND('',#83,.T.);
#44=FACE_OUTER_BOUND('',#85,.T.);
#45=FACE_OUTER_BOUND('',#86,.T.);
#46=FACE_OUTER_BOUND('',#87,.T.);
#47=FACE_OUTER_BOUND('',#88,.T.);
#48=FACE_OUTER_BOUND('',#93,.T.);
#49=FACE_OUTER_BOUND('',#94,.T.);
#50=FACE_OUTER_BOUND('',#96,.T.);
#51=FACE_OUTER_BOUND('',#97,.T.);
#52=FACE_OUTER_BOUND('',#98,.T.);
#53=FACE_OUTER_BOUND('',#99,.T.);
#54=FACE_OUTER_BOUND('',#100,.T.);
#55=FACE_OUTER_BOUND('',#102,.T.);
#56=FACE_OUTER_BOUND('',#103,.T.);
#57=FACE_OUTER_BOUND('',#104,.T.);
#58=FACE_OUTER_BOUND('',#105,.T.);
#59=FACE_OUTER_BOUND('',#107,.T.);
#60=FACE_OUTER_BOUND('',#108,.T.);
#61=FACE_OUTER_BOUND('',#109,.T.);
#62=FACE_OUTER_BOUND('',#110,.T.);
#63=FACE_OUTER_BOUND('',#111,.T.);
#64=FACE_OUTER_BOUND('',#112,.T.);
#65=FACE_OUTER_BOUND('',#113,.T.);
#66=FACE_OUTER_BOUND('',#115,.T.);
#67=FACE_OUTER_BOUND('',#116,.T.);
#68=FACE_OUTER_BOUND('',#117,.T.);
#69=FACE_OUTER_BOUND('',#118,.T.);
#70=FACE_OUTER_BOUND('',#119,.T.);
#71=FACE_OUTER_BOUND('',#120,.T.);
#72=FACE_OUTER_BOUND('',#121,.T.);
#73=FACE_OUTER_BOUND('',#122,.T.);
#74=FACE_OUTER_BOUND('',#123,.T.);
#75=FACE_OUTER_BOUND('',#124,.T.);
#76=FACE_OUTER_BOUND('',#125,.T.);
#77=FACE_OUTER_BOUND('',#126,.T.);
#78=EDGE_LOOP('',(#398,#399,#400));
#79=EDGE_LOOP('',(#401,#402,#403,#404));
#80=EDGE_LOOP('',(#405,#406,#407));
#81=EDGE_LOOP('',(#408,#409,#410,#411,#412));
#82=EDGE_LOOP('',(#413,#414,#415));
#83=EDGE_LOOP('',(#416,#417));
#84=EDGE_LOOP('',(#418));
#85=EDGE_LOOP('',(#419,#420,#421));
#86=EDGE_LOOP('',(#422,#423,#424));
#87=EDGE_LOOP('',(#425,#426,#427,#428,#429,#430,#431,#432,#433));
#88=EDGE_LOOP('',(#434,#435,#436,#437,#438,#439,#440,#441));
#89=EDGE_LOOP('',(#442));
#90=EDGE_LOOP('',(#443));
#91=EDGE_LOOP('',(#444));
#92=EDGE_LOOP('',(#445));
#93=EDGE_LOOP('',(#446,#447,#448,#449,#450));
#94=EDGE_LOOP('',(#451,#452));
#95=EDGE_LOOP('',(#453));
#96=EDGE_LOOP('',(#454,#455,#456,#457,#458));
#97=EDGE_LOOP('',(#459,#460,#461));
#98=EDGE_LOOP('',(#462,#463,#464));
#99=EDGE_LOOP('',(#465,#466,#467));
#100=EDGE_LOOP('',(#468,#469));
#101=EDGE_LOOP('',(#470));
#102=EDGE_LOOP('',(#471,#472,#473));
#103=EDGE_LOOP('',(#474,#475,#476));
#104=EDGE_LOOP('',(#477,#478,#479,#480));
#105=EDGE_LOOP('',(#481,#482));
#106=EDGE_LOOP('',(#483));
#107=EDGE_LOOP('',(#484,#485,#486));
#108=EDGE_LOOP('',(#487,#488,#489));
#109=EDGE_LOOP('',(#490,#491,#492,#493));
#110=EDGE_LOOP('',(#494,#495,#496,#497));
#111=EDGE_LOOP('',(#498,#499,#500,#501));
#112=EDGE_LOOP('',(#502,#503,#504,#505));
#113=EDGE_LOOP('',(#506,#507,#508,#509,#510,#511,#512,#513,#514,#515,#516,
#517));
#114=EDGE_LOOP('',(#518,#519,#520,#521));
#115=EDGE_LOOP('',(#522,#523,#524,#525,#526,#527));
#116=EDGE_LOOP('',(#528,#529,#530,#531));
#117=EDGE_LOOP('',(#532,#533,#534,#535,#536));
#118=EDGE_LOOP('',(#537,#538,#539,#540));
#119=EDGE_LOOP('',(#541,#542,#543,#544));
#120=EDGE_LOOP('',(#545,#546,#547,#548));
#121=EDGE_LOOP('',(#549,#550,#551,#552));
#122=EDGE_LOOP('',(#553,#554,#555,#556));
#123=EDGE_LOOP('',(#557,#558,#559,#560));
#124=EDGE_LOOP('',(#561,#562,#563,#564));
#125=EDGE_LOOP('',(#565,#566,#567,#568,#569));
#126=EDGE_LOOP('',(#570,#571,#572,#573,#574,#575));
#127=B_SPLINE_CURVE_WITH_KNOTS('',3,(#916,#917,#918,#919,#920,#921,#922,
#923,#924,#925),.UNSPECIFIED.,.F.,.F.,(4,2,2,2,4),(0.559347439743498,0.659207488030299,
0.759067536317099,0.853399030851971,0.947730525386843),.UNSPECIFIED.);
#128=B_SPLINE_CURVE_WITH_KNOTS('',3,(#933,#934,#935,#936,#937,#938,#939,
#940,#941,#942,#943,#944,#945,#946,#947,#948,#949,#950),.UNSPECIFIED.,.F.,
 .F.,(4,2,2,2,2,2,2,2,4),(0.,0.166322037025946,0.332644074051893,0.445995756897696,
0.559347439743499,0.659207488030299,0.759067536317099,0.853399030851971,
0.947730525386844),.UNSPECIFIED.);
#129=B_SPLINE_CURVE_WITH_KNOTS('',3,(#951,#952,#953,#954,#955,#956,#957,
#958,#959,#960),.UNSPECIFIED.,.F.,.F.,(4,2,2,2,4),(1.33611361103019,1.44946529387599,
1.56281697672179,1.72913901374774,1.89546105077369),.UNSPECIFIED.);
#130=B_SPLINE_CURVE_WITH_KNOTS('',3,(#967,#968,#969,#970,#971,#972,#973,
#974,#975,#976),.UNSPECIFIED.,.F.,.F.,(4,2,2,2,4),(0.559347439743498,0.659207488030299,
0.759067536317099,0.853399030851971,0.947730525386843),.UNSPECIFIED.);
#131=B_SPLINE_CURVE_WITH_KNOTS('',3,(#984,#985,#986,#987,#988,#989,#990,
#991,#992,#993),.UNSPECIFIED.,.F.,.F.,(4,2,2,2,4),(0.559347439743499,0.659207488030299,
0.759067536317099,0.853399030851971,0.947730525386844),.UNSPECIFIED.);
#132=B_SPLINE_CURVE_WITH_KNOTS('',3,(#995,#996,#997,#998,#999,#1000,#1001,
#1002,#1003,#1004),.UNSPECIFIED.,.F.,.F.,(4,2,2,2,4),(0.,0.166322037025946,
0.332644074051893,0.445995756897696,0.559347439743499),.UNSPECIFIED.);
#133=B_SPLINE_CURVE_WITH_KNOTS('',3,(#1005,#1006,#1007,#1008,#1009,#1010,
#1011,#1012,#1013,#1014),.UNSPECIFIED.,.F.,.F.,(4,2,2,2,4),(1.33611361103019,
1.44946529387599,1.56281697672179,1.72913901374774,1.89546105077369),
 .UNSPECIFIED.);
#134=B_SPLINE_CURVE_WITH_KNOTS('',3,(#1016,#1017,#1018,#1019,#1020,#1021,
#1022,#1023,#1024,#1025),.UNSPECIFIED.,.F.,.F.,(4,2,2,2,4),(0.947730525386844,
1.04206201992172,1.13639351445659,1.23625356274339,1.33611361103019),
 .UNSPECIFIED.);
#135=B_SPLINE_CURVE_WITH_KNOTS('',3,(#1070,#1071,#1072,#1073,#1074,#1075,
#1076,#1077,#1078,#1079),.UNSPECIFIED.,.F.,.F.,(4,2,2,2,4),(0.,0.166322037025946,
0.332644074051892,0.445995756897695,0.559347439743498),.UNSPECIFIED.);
#136=B_SPLINE_CURVE_WITH_KNOTS('',3,(#1081,#1082,#1083,#1084,#1085,#1086,
#1087,#1088,#1089,#1090),.UNSPECIFIED.,.F.,.F.,(4,2,2,2,4),(1.33611361103019,
1.44946529387599,1.56281697672179,1.72913901374774,1.89546105077369),
 .UNSPECIFIED.);
#137=B_SPLINE_CURVE_WITH_KNOTS('',3,(#1091,#1092,#1093,#1094,#1095,#1096,
#1097,#1098,#1099,#1100),.UNSPECIFIED.,.F.,.F.,(4,2,2,2,4),(0.947730525386843,
1.04206201992171,1.13639351445659,1.23625356274339,1.33611361103019),
 .UNSPECIFIED.);
#138=B_SPLINE_CURVE_WITH_KNOTS('',3,(#1107,#1108,#1109,#1110,#1111,#1112,
#1113,#1114,#1115,#1116,#1117,#1118,#1119,#1120,#1121,#1122,#1123,#1124),
 .UNSPECIFIED.,.F.,.F.,(4,2,2,2,2,2,2,2,4),(0.947730525386843,1.04206201992171,
1.13639351445659,1.23625356274339,1.33611361103019,1.44946529387599,1.56281697672179,
1.72913901374774,1.89546105077369),.UNSPECIFIED.);
#139=B_SPLINE_CURVE_WITH_KNOTS('',3,(#1132,#1133,#1134,#1135,#1136,#1137,
#1138,#1139,#1140,#1141),.UNSPECIFIED.,.F.,.F.,(4,2,2,2,4),(0.947730525386844,
1.04206201992172,1.13639351445659,1.23625356274339,1.33611361103019),
 .UNSPECIFIED.);
#140=B_SPLINE_CURVE_WITH_KNOTS('',3,(#1153,#1154,#1155,#1156,#1157,#1158,
#1159,#1160,#1161,#1162),.UNSPECIFIED.,.F.,.F.,(4,2,2,2,4),(0.,0.166322037025946,
0.332644074051892,0.445995756897695,0.559347439743498),.UNSPECIFIED.);
#141=CIRCLE('',#645,2.5);
#142=CIRCLE('',#647,2.5);
#143=CIRCLE('',#649,2.5);
#144=CIRCLE('',#651,2.5);
#145=CIRCLE('',#653,2.5);
#146=CIRCLE('',#655,0.874999999999995);
#147=CIRCLE('',#657,5.);
#148=CIRCLE('',#659,5.);
#149=CIRCLE('',#661,5.00000000000001);
#150=CIRCLE('',#662,5.);
#151=CIRCLE('',#664,0.875000000000004);
#152=CIRCLE('',#665,0.875000000000004);
#153=CIRCLE('',#666,0.874999999999999);
#154=CIRCLE('',#667,0.874999999999995);
#155=CIRCLE('',#669,2.5);
#156=CIRCLE('',#671,0.874999999999999);
#157=CIRCLE('',#674,5.);
#158=CIRCLE('',#676,5.);
#159=CIRCLE('',#678,2.5);
#160=CIRCLE('',#680,0.875000000000004);
#161=CIRCLE('',#682,5.);
#162=CIRCLE('',#684,5.);
#163=CIRCLE('',#686,2.5);
#164=CIRCLE('',#688,0.875000000000004);
#165=CIRCLE('',#690,5.);
#166=CIRCLE('',#692,5.);
#167=CIRCLE('',#700,9.00000013411045);
#168=CIRCLE('',#701,5.00000007450581);
#169=CIRCLE('',#703,5.00000007450581);
#170=CIRCLE('',#704,9.00000013411045);
#171=CIRCLE('',#706,5.00000007450581);
#172=CIRCLE('',#708,9.00000013411045);
#173=CIRCLE('',#711,5.00000007450581);
#174=CIRCLE('',#714,9.00000013411045);
#175=LINE('',#913,#216);
#176=LINE('',#929,#217);
#177=LINE('',#964,#218);
#178=LINE('',#980,#219);
#179=LINE('',#1033,#220);
#180=LINE('',#1036,#221);
#181=LINE('',#1039,#222);
#182=LINE('',#1041,#223);
#183=LINE('',#1045,#224);
#184=LINE('',#1048,#225);
#185=LINE('',#1051,#226);
#186=LINE('',#1053,#227);
#187=LINE('',#1055,#228);
#188=LINE('',#1057,#229);
#189=LINE('',#1059,#230);
#190=LINE('',#1060,#231);
#191=LINE('',#1106,#232);
#192=LINE('',#1128,#233);
#193=LINE('',#1149,#234);
#194=LINE('',#1171,#235);
#195=LINE('',#1174,#236);
#196=LINE('',#1176,#237);
#197=LINE('',#1178,#238);
#198=LINE('',#1180,#239);
#199=LINE('',#1182,#240);
#200=LINE('',#1183,#241);
#201=LINE('',#1185,#242);
#202=LINE('',#1187,#243);
#203=LINE('',#1188,#244);
#204=LINE('',#1191,#245);
#205=LINE('',#1193,#246);
#206=LINE('',#1195,#247);
#207=LINE('',#1196,#248);
#208=LINE('',#1203,#249);
#209=LINE('',#1207,#250);
#210=LINE('',#1213,#251);
#211=LINE('',#1217,#252);
#212=LINE('',#1220,#253);
#213=LINE('',#1221,#254);
#214=LINE('',#1226,#255);
#215=LINE('',#1227,#256);
#216=VECTOR('',#722,2.5);
#217=VECTOR('',#727,2.5);
#218=VECTOR('',#732,2.5);
#219=VECTOR('',#737,2.5);
#220=VECTOR('',#752,10.);
#221=VECTOR('',#755,10.);
#222=VECTOR('',#760,10.);
#223=VECTOR('',#761,10.);
#224=VECTOR('',#764,10.);
#225=VECTOR('',#767,10.);
#226=VECTOR('',#770,10.);
#227=VECTOR('',#771,10.);
#228=VECTOR('',#772,10.);
#229=VECTOR('',#773,10.);
#230=VECTOR('',#774,10.);
#231=VECTOR('',#775,10.);
#232=VECTOR('',#794,10.);
#233=VECTOR('',#799,10.);
#234=VECTOR('',#816,10.);
#235=VECTOR('',#835,10.);
#236=VECTOR('',#840,0.875000000000004);
#237=VECTOR('',#843,0.874999999999995);
#238=VECTOR('',#846,0.875000000000004);
#239=VECTOR('',#849,0.874999999999999);
#240=VECTOR('',#852,10.);
#241=VECTOR('',#853,10.);
#242=VECTOR('',#854,10.);
#243=VECTOR('',#855,10.);
#244=VECTOR('',#856,10.);
#245=VECTOR('',#857,10.);
#246=VECTOR('',#858,10.);
#247=VECTOR('',#859,10.);
#248=VECTOR('',#860,10.);
#249=VECTOR('',#869,10.);
#250=VECTOR('',#872,10.);
#251=VECTOR('',#881,10.);
#252=VECTOR('',#886,10.);
#253=VECTOR('',#889,10.);
#254=VECTOR('',#890,10.);
#255=VECTOR('',#897,10.);
#256=VECTOR('',#898,10.);
#257=VERTEX_POINT('',#911);
#258=VERTEX_POINT('',#912);
#259=VERTEX_POINT('',#914);
#260=VERTEX_POINT('',#927);
#261=VERTEX_POINT('',#928);
#262=VERTEX_POINT('',#930);
#263=VERTEX_POINT('',#932);
#264=VERTEX_POINT('',#962);
#265=VERTEX_POINT('',#963);
#266=VERTEX_POINT('',#965);
#267=VERTEX_POINT('',#978);
#268=VERTEX_POINT('',#979);
#269=VERTEX_POINT('',#981);
#270=VERTEX_POINT('',#983);
#271=VERTEX_POINT('',#994);
#272=VERTEX_POINT('',#1028);
#273=VERTEX_POINT('',#1031);
#274=VERTEX_POINT('',#1035);
#275=VERTEX_POINT('',#1040);
#276=VERTEX_POINT('',#1042);
#277=VERTEX_POINT('',#1044);
#278=VERTEX_POINT('',#1046);
#279=VERTEX_POINT('',#1050);
#280=VERTEX_POINT('',#1052);
#281=VERTEX_POINT('',#1054);
#282=VERTEX_POINT('',#1056);
#283=VERTEX_POINT('',#1058);
#284=VERTEX_POINT('',#1061);
#285=VERTEX_POINT('',#1063);
#286=VERTEX_POINT('',#1065);
#287=VERTEX_POINT('',#1067);
#288=VERTEX_POINT('',#1080);
#289=VERTEX_POINT('',#1103);
#290=VERTEX_POINT('',#1126);
#291=VERTEX_POINT('',#1144);
#292=VERTEX_POINT('',#1147);
#293=VERTEX_POINT('',#1165);
#294=VERTEX_POINT('',#1170);
#295=VERTEX_POINT('',#1184);
#296=VERTEX_POINT('',#1186);
#297=VERTEX_POINT('',#1189);
#298=VERTEX_POINT('',#1190);
#299=VERTEX_POINT('',#1192);
#300=VERTEX_POINT('',#1194);
#301=VERTEX_POINT('',#1199);
#302=VERTEX_POINT('',#1201);
#303=VERTEX_POINT('',#1205);
#304=VERTEX_POINT('',#1206);
#305=VERTEX_POINT('',#1211);
#306=VERTEX_POINT('',#1215);
#307=VERTEX_POINT('',#1219);
#308=VERTEX_POINT('',#1225);
#309=EDGE_CURVE('',#257,#258,#175,.T.);
#310=EDGE_CURVE('',#259,#257,#141,.T.);
#311=EDGE_CURVE('',#258,#259,#127,.T.);
#312=EDGE_CURVE('',#260,#261,#176,.T.);
#313=EDGE_CURVE('',#262,#260,#142,.T.);
#314=EDGE_CURVE('',#263,#262,#128,.T.);
#315=EDGE_CURVE('',#261,#263,#129,.T.);
#316=EDGE_CURVE('',#264,#265,#177,.T.);
#317=EDGE_CURVE('',#266,#264,#143,.T.);
#318=EDGE_CURVE('',#265,#266,#130,.T.);
#319=EDGE_CURVE('',#267,#268,#178,.T.);
#320=EDGE_CURVE('',#269,#267,#144,.T.);
#321=EDGE_CURVE('',#270,#269,#131,.T.);
#322=EDGE_CURVE('',#271,#270,#132,.T.);
#323=EDGE_CURVE('',#268,#271,#133,.T.);
#324=EDGE_CURVE('',#269,#268,#134,.T.);
#325=EDGE_CURVE('',#267,#269,#145,.T.);
#326=EDGE_CURVE('',#272,#272,#146,.T.);
#327=EDGE_CURVE('',#270,#273,#147,.T.);
#328=EDGE_CURVE('',#273,#271,#179,.T.);
#329=EDGE_CURVE('',#269,#274,#180,.T.);
#330=EDGE_CURVE('',#274,#270,#148,.T.);
#331=EDGE_CURVE('',#271,#263,#181,.T.);
#332=EDGE_CURVE('',#262,#275,#182,.T.);
#333=EDGE_CURVE('',#275,#276,#149,.T.);
#334=EDGE_CURVE('',#276,#277,#183,.T.);
#335=EDGE_CURVE('',#277,#278,#150,.T.);
#336=EDGE_CURVE('',#278,#269,#184,.T.);
#337=EDGE_CURVE('',#273,#279,#185,.T.);
#338=EDGE_CURVE('',#280,#279,#186,.T.);
#339=EDGE_CURVE('',#281,#280,#187,.T.);
#340=EDGE_CURVE('',#282,#281,#188,.T.);
#341=EDGE_CURVE('',#282,#283,#189,.T.);
#342=EDGE_CURVE('',#263,#283,#190,.T.);
#343=EDGE_CURVE('',#284,#284,#151,.T.);
#344=EDGE_CURVE('',#285,#285,#152,.T.);
#345=EDGE_CURVE('',#286,#286,#153,.T.);
#346=EDGE_CURVE('',#287,#287,#154,.T.);
#347=EDGE_CURVE('',#280,#265,#135,.T.);
#348=EDGE_CURVE('',#288,#280,#136,.T.);
#349=EDGE_CURVE('',#266,#288,#137,.T.);
#350=EDGE_CURVE('',#264,#266,#155,.T.);
#351=EDGE_CURVE('',#289,#289,#156,.T.);
#352=EDGE_CURVE('',#266,#259,#191,.T.);
#353=EDGE_CURVE('',#259,#281,#138,.T.);
#354=EDGE_CURVE('',#288,#290,#157,.T.);
#355=EDGE_CURVE('',#290,#266,#192,.T.);
#356=EDGE_CURVE('',#279,#288,#158,.T.);
#357=EDGE_CURVE('',#262,#261,#139,.T.);
#358=EDGE_CURVE('',#260,#262,#159,.T.);
#359=EDGE_CURVE('',#291,#291,#160,.T.);
#360=EDGE_CURVE('',#261,#292,#161,.T.);
#361=EDGE_CURVE('',#292,#262,#193,.T.);
#362=EDGE_CURVE('',#283,#261,#162,.T.);
#363=EDGE_CURVE('',#281,#258,#140,.T.);
#364=EDGE_CURVE('',#257,#259,#163,.T.);
#365=EDGE_CURVE('',#293,#293,#164,.T.);
#366=EDGE_CURVE('',#258,#282,#165,.T.);
#367=EDGE_CURVE('',#259,#294,#194,.T.);
#368=EDGE_CURVE('',#294,#258,#166,.T.);
#369=EDGE_CURVE('',#285,#291,#195,.T.);
#370=EDGE_CURVE('',#287,#272,#196,.T.);
#371=EDGE_CURVE('',#284,#293,#197,.T.);
#372=EDGE_CURVE('',#286,#289,#198,.T.);
#373=EDGE_CURVE('',#292,#294,#199,.T.);
#374=EDGE_CURVE('',#290,#274,#200,.T.);
#375=EDGE_CURVE('',#278,#295,#201,.T.);
#376=EDGE_CURVE('',#295,#296,#202,.T.);
#377=EDGE_CURVE('',#296,#275,#203,.T.);
#378=EDGE_CURVE('',#297,#298,#204,.T.);
#379=EDGE_CURVE('',#298,#299,#205,.T.);
#380=EDGE_CURVE('',#299,#300,#206,.T.);
#381=EDGE_CURVE('',#300,#297,#207,.T.);
#382=EDGE_CURVE('',#301,#299,#167,.T.);
#383=EDGE_CURVE('',#298,#302,#168,.T.);
#384=EDGE_CURVE('',#302,#301,#208,.T.);
#385=EDGE_CURVE('',#303,#304,#209,.T.);
#386=EDGE_CURVE('',#304,#295,#169,.T.);
#387=EDGE_CURVE('',#277,#303,#170,.T.);
#388=EDGE_CURVE('',#305,#296,#171,.T.);
#389=EDGE_CURVE('',#305,#304,#210,.T.);
#390=EDGE_CURVE('',#306,#300,#172,.T.);
#391=EDGE_CURVE('',#306,#301,#211,.T.);
#392=EDGE_CURVE('',#307,#306,#212,.T.);
#393=EDGE_CURVE('',#307,#302,#213,.T.);
#394=EDGE_CURVE('',#297,#307,#173,.T.);
#395=EDGE_CURVE('',#308,#305,#214,.T.);
#396=EDGE_CURVE('',#308,#303,#215,.T.);
#397=EDGE_CURVE('',#276,#308,#174,.T.);
#398=ORIENTED_EDGE('',*,*,#309,.F.);
#399=ORIENTED_EDGE('',*,*,#310,.F.);
#400=ORIENTED_EDGE('',*,*,#311,.F.);
#401=ORIENTED_EDGE('',*,*,#312,.F.);
#402=ORIENTED_EDGE('',*,*,#313,.F.);
#403=ORIENTED_EDGE('',*,*,#314,.F.);
#404=ORIENTED_EDGE('',*,*,#315,.F.);
#405=ORIENTED_EDGE('',*,*,#316,.F.);
#406=ORIENTED_EDGE('',*,*,#317,.F.);
#407=ORIENTED_EDGE('',*,*,#318,.F.);
#408=ORIENTED_EDGE('',*,*,#319,.F.);
#409=ORIENTED_EDGE('',*,*,#320,.F.);
#410=ORIENTED_EDGE('',*,*,#321,.F.);
#411=ORIENTED_EDGE('',*,*,#322,.F.);
#412=ORIENTED_EDGE('',*,*,#323,.F.);
#413=ORIENTED_EDGE('',*,*,#319,.T.);
#414=ORIENTED_EDGE('',*,*,#324,.F.);
#415=ORIENTED_EDGE('',*,*,#325,.F.);
#416=ORIENTED_EDGE('',*,*,#320,.T.);
#417=ORIENTED_EDGE('',*,*,#325,.T.);
#418=ORIENTED_EDGE('',*,*,#326,.T.);
#419=ORIENTED_EDGE('',*,*,#322,.T.);
#420=ORIENTED_EDGE('',*,*,#327,.T.);
#421=ORIENTED_EDGE('',*,*,#328,.T.);
#422=ORIENTED_EDGE('',*,*,#321,.T.);
#423=ORIENTED_EDGE('',*,*,#329,.T.);
#424=ORIENTED_EDGE('',*,*,#330,.T.);
#425=ORIENTED_EDGE('',*,*,#324,.T.);
#426=ORIENTED_EDGE('',*,*,#323,.T.);
#427=ORIENTED_EDGE('',*,*,#331,.T.);
#428=ORIENTED_EDGE('',*,*,#314,.T.);
#429=ORIENTED_EDGE('',*,*,#332,.T.);
#430=ORIENTED_EDGE('',*,*,#333,.T.);
#431=ORIENTED_EDGE('',*,*,#334,.T.);
#432=ORIENTED_EDGE('',*,*,#335,.T.);
#433=ORIENTED_EDGE('',*,*,#336,.T.);
#434=ORIENTED_EDGE('',*,*,#328,.F.);
#435=ORIENTED_EDGE('',*,*,#337,.T.);
#436=ORIENTED_EDGE('',*,*,#338,.F.);
#437=ORIENTED_EDGE('',*,*,#339,.F.);
#438=ORIENTED_EDGE('',*,*,#340,.F.);
#439=ORIENTED_EDGE('',*,*,#341,.T.);
#440=ORIENTED_EDGE('',*,*,#342,.F.);
#441=ORIENTED_EDGE('',*,*,#331,.F.);
#442=ORIENTED_EDGE('',*,*,#343,.T.);
#443=ORIENTED_EDGE('',*,*,#344,.T.);
#444=ORIENTED_EDGE('',*,*,#345,.T.);
#445=ORIENTED_EDGE('',*,*,#346,.T.);
#446=ORIENTED_EDGE('',*,*,#316,.T.);
#447=ORIENTED_EDGE('',*,*,#347,.F.);
#448=ORIENTED_EDGE('',*,*,#348,.F.);
#449=ORIENTED_EDGE('',*,*,#349,.F.);
#450=ORIENTED_EDGE('',*,*,#350,.F.);
#451=ORIENTED_EDGE('',*,*,#317,.T.);
#452=ORIENTED_EDGE('',*,*,#350,.T.);
#453=ORIENTED_EDGE('',*,*,#351,.T.);
#454=ORIENTED_EDGE('',*,*,#347,.T.);
#455=ORIENTED_EDGE('',*,*,#318,.T.);
#456=ORIENTED_EDGE('',*,*,#352,.T.);
#457=ORIENTED_EDGE('',*,*,#353,.T.);
#458=ORIENTED_EDGE('',*,*,#339,.T.);
#459=ORIENTED_EDGE('',*,*,#349,.T.);
#460=ORIENTED_EDGE('',*,*,#354,.T.);
#461=ORIENTED_EDGE('',*,*,#355,.T.);
#462=ORIENTED_EDGE('',*,*,#348,.T.);
#463=ORIENTED_EDGE('',*,*,#338,.T.);
#464=ORIENTED_EDGE('',*,*,#356,.T.);
#465=ORIENTED_EDGE('',*,*,#312,.T.);
#466=ORIENTED_EDGE('',*,*,#357,.F.);
#467=ORIENTED_EDGE('',*,*,#358,.F.);
#468=ORIENTED_EDGE('',*,*,#313,.T.);
#469=ORIENTED_EDGE('',*,*,#358,.T.);
#470=ORIENTED_EDGE('',*,*,#359,.T.);
#471=ORIENTED_EDGE('',*,*,#357,.T.);
#472=ORIENTED_EDGE('',*,*,#360,.T.);
#473=ORIENTED_EDGE('',*,*,#361,.T.);
#474=ORIENTED_EDGE('',*,*,#315,.T.);
#475=ORIENTED_EDGE('',*,*,#342,.T.);
#476=ORIENTED_EDGE('',*,*,#362,.T.);
#477=ORIENTED_EDGE('',*,*,#309,.T.);
#478=ORIENTED_EDGE('',*,*,#363,.F.);
#479=ORIENTED_EDGE('',*,*,#353,.F.);
#480=ORIENTED_EDGE('',*,*,#364,.F.);
#481=ORIENTED_EDGE('',*,*,#310,.T.);
#482=ORIENTED_EDGE('',*,*,#364,.T.);
#483=ORIENTED_EDGE('',*,*,#365,.T.);
#484=ORIENTED_EDGE('',*,*,#363,.T.);
#485=ORIENTED_EDGE('',*,*,#366,.T.);
#486=ORIENTED_EDGE('',*,*,#340,.T.);
#487=ORIENTED_EDGE('',*,*,#311,.T.);
#488=ORIENTED_EDGE('',*,*,#367,.T.);
#489=ORIENTED_EDGE('',*,*,#368,.T.);
#490=ORIENTED_EDGE('',*,*,#344,.F.);
#491=ORIENTED_EDGE('',*,*,#369,.T.);
#492=ORIENTED_EDGE('',*,*,#359,.F.);
#493=ORIENTED_EDGE('',*,*,#369,.F.);
#494=ORIENTED_EDGE('',*,*,#346,.F.);
#495=ORIENTED_EDGE('',*,*,#370,.T.);
#496=ORIENTED_EDGE('',*,*,#326,.F.);
#497=ORIENTED_EDGE('',*,*,#370,.F.);
#498=ORIENTED_EDGE('',*,*,#343,.F.);
#499=ORIENTED_EDGE('',*,*,#371,.T.);
#500=ORIENTED_EDGE('',*,*,#365,.F.);
#501=ORIENTED_EDGE('',*,*,#371,.F.);
#502=ORIENTED_EDGE('',*,*,#345,.F.);
#503=ORIENTED_EDGE('',*,*,#372,.T.);
#504=ORIENTED_EDGE('',*,*,#351,.F.);
#505=ORIENTED_EDGE('',*,*,#372,.F.);
#506=ORIENTED_EDGE('',*,*,#373,.T.);
#507=ORIENTED_EDGE('',*,*,#367,.F.);
#508=ORIENTED_EDGE('',*,*,#352,.F.);
#509=ORIENTED_EDGE('',*,*,#355,.F.);
#510=ORIENTED_EDGE('',*,*,#374,.T.);
#511=ORIENTED_EDGE('',*,*,#329,.F.);
#512=ORIENTED_EDGE('',*,*,#336,.F.);
#513=ORIENTED_EDGE('',*,*,#375,.T.);
#514=ORIENTED_EDGE('',*,*,#376,.T.);
#515=ORIENTED_EDGE('',*,*,#377,.T.);
#516=ORIENTED_EDGE('',*,*,#332,.F.);
#517=ORIENTED_EDGE('',*,*,#361,.F.);
#518=ORIENTED_EDGE('',*,*,#378,.T.);
#519=ORIENTED_EDGE('',*,*,#379,.T.);
#520=ORIENTED_EDGE('',*,*,#380,.T.);
#521=ORIENTED_EDGE('',*,*,#381,.T.);
#522=ORIENTED_EDGE('',*,*,#330,.F.);
#523=ORIENTED_EDGE('',*,*,#374,.F.);
#524=ORIENTED_EDGE('',*,*,#354,.F.);
#525=ORIENTED_EDGE('',*,*,#356,.F.);
#526=ORIENTED_EDGE('',*,*,#337,.F.);
#527=ORIENTED_EDGE('',*,*,#327,.F.);
#528=ORIENTED_EDGE('',*,*,#382,.T.);
#529=ORIENTED_EDGE('',*,*,#379,.F.);
#530=ORIENTED_EDGE('',*,*,#383,.T.);
#531=ORIENTED_EDGE('',*,*,#384,.T.);
#532=ORIENTED_EDGE('',*,*,#385,.T.);
#533=ORIENTED_EDGE('',*,*,#386,.T.);
#534=ORIENTED_EDGE('',*,*,#375,.F.);
#535=ORIENTED_EDGE('',*,*,#335,.F.);
#536=ORIENTED_EDGE('',*,*,#387,.T.);
#537=ORIENTED_EDGE('',*,*,#388,.T.);
#538=ORIENTED_EDGE('',*,*,#376,.F.);
#539=ORIENTED_EDGE('',*,*,#386,.F.);
#540=ORIENTED_EDGE('',*,*,#389,.F.);
#541=ORIENTED_EDGE('',*,*,#390,.T.);
#542=ORIENTED_EDGE('',*,*,#380,.F.);
#543=ORIENTED_EDGE('',*,*,#382,.F.);
#544=ORIENTED_EDGE('',*,*,#391,.F.);
#545=ORIENTED_EDGE('',*,*,#392,.T.);
#546=ORIENTED_EDGE('',*,*,#391,.T.);
#547=ORIENTED_EDGE('',*,*,#384,.F.);
#548=ORIENTED_EDGE('',*,*,#393,.F.);
#549=ORIENTED_EDGE('',*,*,#394,.T.);
#550=ORIENTED_EDGE('',*,*,#393,.T.);
#551=ORIENTED_EDGE('',*,*,#383,.F.);
#552=ORIENTED_EDGE('',*,*,#378,.F.);
#553=ORIENTED_EDGE('',*,*,#395,.T.);
#554=ORIENTED_EDGE('',*,*,#389,.T.);
#555=ORIENTED_EDGE('',*,*,#385,.F.);
#556=ORIENTED_EDGE('',*,*,#396,.F.);
#557=ORIENTED_EDGE('',*,*,#397,.T.);
#558=ORIENTED_EDGE('',*,*,#396,.T.);
#559=ORIENTED_EDGE('',*,*,#387,.F.);
#560=ORIENTED_EDGE('',*,*,#334,.F.);
#561=ORIENTED_EDGE('',*,*,#390,.F.);
#562=ORIENTED_EDGE('',*,*,#392,.F.);
#563=ORIENTED_EDGE('',*,*,#394,.F.);
#564=ORIENTED_EDGE('',*,*,#381,.F.);
#565=ORIENTED_EDGE('',*,*,#395,.F.);
#566=ORIENTED_EDGE('',*,*,#397,.F.);
#567=ORIENTED_EDGE('',*,*,#333,.F.);
#568=ORIENTED_EDGE('',*,*,#377,.F.);
#569=ORIENTED_EDGE('',*,*,#388,.F.);
#570=ORIENTED_EDGE('',*,*,#362,.F.);
#571=ORIENTED_EDGE('',*,*,#341,.F.);
#572=ORIENTED_EDGE('',*,*,#366,.F.);
#573=ORIENTED_EDGE('',*,*,#368,.F.);
#574=ORIENTED_EDGE('',*,*,#373,.F.);
#575=ORIENTED_EDGE('',*,*,#360,.F.);
#576=CYLINDRICAL_SURFACE('',#644,2.5);
#577=CYLINDRICAL_SURFACE('',#646,2.5);
#578=CYLINDRICAL_SURFACE('',#648,2.5);
#579=CYLINDRICAL_SURFACE('',#650,2.5);
#580=CYLINDRICAL_SURFACE('',#652,2.5);
#581=CYLINDRICAL_SURFACE('',#656,5.);
#582=CYLINDRICAL_SURFACE('',#658,5.);
#583=CYLINDRICAL_SURFACE('',#660,5.);
#584=CYLINDRICAL_SURFACE('',#668,2.5);
#585=CYLINDRICAL_SURFACE('',#672,5.);
#586=CYLINDRICAL_SURFACE('',#673,5.);
#587=CYLINDRICAL_SURFACE('',#675,5.);
#588=CYLINDRICAL_SURFACE('',#677,2.5);
#589=CYLINDRICAL_SURFACE('',#681,5.);
#590=CYLINDRICAL_SURFACE('',#683,5.);
#591=CYLINDRICAL_SURFACE('',#685,2.5);
#592=CYLINDRICAL_SURFACE('',#689,5.);
#593=CYLINDRICAL_SURFACE('',#691,5.);
#594=CYLINDRICAL_SURFACE('',#693,0.875000000000004);
#595=CYLINDRICAL_SURFACE('',#694,0.874999999999995);
#596=CYLINDRICAL_SURFACE('',#695,0.875000000000004);
#597=CYLINDRICAL_SURFACE('',#696,0.874999999999999);
#598=CYLINDRICAL_SURFACE('',#705,5.00000007450581);
#599=CYLINDRICAL_SURFACE('',#707,9.00000013411045);
#600=CYLINDRICAL_SURFACE('',#710,5.00000007450581);
#601=CYLINDRICAL_SURFACE('',#713,9.00000013411045);
#602=ADVANCED_FACE('',(#38),#576,.T.);
#603=ADVANCED_FACE('',(#39),#577,.T.);
#604=ADVANCED_FACE('',(#40),#578,.T.);
#605=ADVANCED_FACE('',(#41),#579,.T.);
#606=ADVANCED_FACE('',(#42),#580,.T.);
#607=ADVANCED_FACE('',(#43,#15),#24,.F.);
#608=ADVANCED_FACE('',(#44),#581,.T.);
#609=ADVANCED_FACE('',(#45),#582,.T.);
#610=ADVANCED_FACE('',(#46),#583,.T.);
#611=ADVANCED_FACE('',(#47,#16,#17,#18,#19),#25,.T.);
#612=ADVANCED_FACE('',(#48),#584,.T.);
#613=ADVANCED_FACE('',(#49,#20),#26,.F.);
#614=ADVANCED_FACE('',(#50),#585,.T.);
#615=ADVANCED_FACE('',(#51),#586,.T.);
#616=ADVANCED_FACE('',(#52),#587,.T.);
#617=ADVANCED_FACE('',(#53),#588,.T.);
#618=ADVANCED_FACE('',(#54,#21),#27,.F.);
#619=ADVANCED_FACE('',(#55),#589,.T.);
#620=ADVANCED_FACE('',(#56),#590,.T.);
#621=ADVANCED_FACE('',(#57),#591,.T.);
#622=ADVANCED_FACE('',(#58,#22),#28,.F.);
#623=ADVANCED_FACE('',(#59),#592,.T.);
#624=ADVANCED_FACE('',(#60),#593,.T.);
#625=ADVANCED_FACE('',(#61),#594,.F.);
#626=ADVANCED_FACE('',(#62),#595,.F.);
#627=ADVANCED_FACE('',(#63),#596,.F.);
#628=ADVANCED_FACE('',(#64),#597,.F.);
#629=ADVANCED_FACE('',(#65,#23),#29,.T.);
#630=ADVANCED_FACE('',(#66),#30,.T.);
#631=ADVANCED_FACE('',(#67),#31,.F.);
#632=ADVANCED_FACE('',(#68),#32,.F.);
#633=ADVANCED_FACE('',(#69),#598,.F.);
#634=ADVANCED_FACE('',(#70),#599,.T.);
#635=ADVANCED_FACE('',(#71),#33,.T.);
#636=ADVANCED_FACE('',(#72),#600,.F.);
#637=ADVANCED_FACE('',(#73),#34,.T.);
#638=ADVANCED_FACE('',(#74),#601,.T.);
#639=ADVANCED_FACE('',(#75),#35,.T.);
#640=ADVANCED_FACE('',(#76),#36,.T.);
#641=ADVANCED_FACE('',(#77),#37,.T.);
#642=CLOSED_SHELL('',(#602,#603,#604,#605,#606,#607,#608,#609,#610,#611,
#612,#613,#614,#615,#616,#617,#618,#619,#620,#621,#622,#623,#624,#625,#626,
#627,#628,#629,#630,#631,#632,#633,#634,#635,#636,#637,#638,#639,#640,#641));
#643=AXIS2_PLACEMENT_3D('',#909,#718,#719);
#644=AXIS2_PLACEMENT_3D('',#910,#720,#721);
#645=AXIS2_PLACEMENT_3D('',#915,#723,#724);
#646=AXIS2_PLACEMENT_3D('',#926,#725,#726);
#647=AXIS2_PLACEMENT_3D('',#931,#728,#729);
#648=AXIS2_PLACEMENT_3D('',#961,#730,#731);
#649=AXIS2_PLACEMENT_3D('',#966,#733,#734);
#650=AXIS2_PLACEMENT_3D('',#977,#735,#736);
#651=AXIS2_PLACEMENT_3D('',#982,#738,#739);
#652=AXIS2_PLACEMENT_3D('',#1015,#740,#741);
#653=AXIS2_PLACEMENT_3D('',#1026,#742,#743);
#654=AXIS2_PLACEMENT_3D('',#1027,#744,#745);
#655=AXIS2_PLACEMENT_3D('',#1029,#746,#747);
#656=AXIS2_PLACEMENT_3D('',#1030,#748,#749);
#657=AXIS2_PLACEMENT_3D('',#1032,#750,#751);
#658=AXIS2_PLACEMENT_3D('',#1034,#753,#754);
#659=AXIS2_PLACEMENT_3D('',#1037,#756,#757);
#660=AXIS2_PLACEMENT_3D('',#1038,#758,#759);
#661=AXIS2_PLACEMENT_3D('',#1043,#762,#763);
#662=AXIS2_PLACEMENT_3D('',#1047,#765,#766);
#663=AXIS2_PLACEMENT_3D('',#1049,#768,#769);
#664=AXIS2_PLACEMENT_3D('',#1062,#776,#777);
#665=AXIS2_PLACEMENT_3D('',#1064,#778,#779);
#666=AXIS2_PLACEMENT_3D('',#1066,#780,#781);
#667=AXIS2_PLACEMENT_3D('',#1068,#782,#783);
#668=AXIS2_PLACEMENT_3D('',#1069,#784,#785);
#669=AXIS2_PLACEMENT_3D('',#1101,#786,#787);
#670=AXIS2_PLACEMENT_3D('',#1102,#788,#789);
#671=AXIS2_PLACEMENT_3D('',#1104,#790,#791);
#672=AXIS2_PLACEMENT_3D('',#1105,#792,#793);
#673=AXIS2_PLACEMENT_3D('',#1125,#795,#796);
#674=AXIS2_PLACEMENT_3D('',#1127,#797,#798);
#675=AXIS2_PLACEMENT_3D('',#1129,#800,#801);
#676=AXIS2_PLACEMENT_3D('',#1130,#802,#803);
#677=AXIS2_PLACEMENT_3D('',#1131,#804,#805);
#678=AXIS2_PLACEMENT_3D('',#1142,#806,#807);
#679=AXIS2_PLACEMENT_3D('',#1143,#808,#809);
#680=AXIS2_PLACEMENT_3D('',#1145,#810,#811);
#681=AXIS2_PLACEMENT_3D('',#1146,#812,#813);
#682=AXIS2_PLACEMENT_3D('',#1148,#814,#815);
#683=AXIS2_PLACEMENT_3D('',#1150,#817,#818);
#684=AXIS2_PLACEMENT_3D('',#1151,#819,#820);
#685=AXIS2_PLACEMENT_3D('',#1152,#821,#822);
#686=AXIS2_PLACEMENT_3D('',#1163,#823,#824);
#687=AXIS2_PLACEMENT_3D('',#1164,#825,#826);
#688=AXIS2_PLACEMENT_3D('',#1166,#827,#828);
#689=AXIS2_PLACEMENT_3D('',#1167,#829,#830);
#690=AXIS2_PLACEMENT_3D('',#1168,#831,#832);
#691=AXIS2_PLACEMENT_3D('',#1169,#833,#834);
#692=AXIS2_PLACEMENT_3D('',#1172,#836,#837);
#693=AXIS2_PLACEMENT_3D('',#1173,#838,#839);
#694=AXIS2_PLACEMENT_3D('',#1175,#841,#842);
#695=AXIS2_PLACEMENT_3D('',#1177,#844,#845);
#696=AXIS2_PLACEMENT_3D('',#1179,#847,#848);
#697=AXIS2_PLACEMENT_3D('',#1181,#850,#851);
#698=AXIS2_PLACEMENT_3D('',#1197,#861,#862);
#699=AXIS2_PLACEMENT_3D('',#1198,#863,#864);
#700=AXIS2_PLACEMENT_3D('',#1200,#865,#866);
#701=AXIS2_PLACEMENT_3D('',#1202,#867,#868);
#702=AXIS2_PLACEMENT_3D('',#1204,#870,#871);
#703=AXIS2_PLACEMENT_3D('',#1208,#873,#874);
#704=AXIS2_PLACEMENT_3D('',#1209,#875,#876);
#705=AXIS2_PLACEMENT_3D('',#1210,#877,#878);
#706=AXIS2_PLACEMENT_3D('',#1212,#879,#880);
#707=AXIS2_PLACEMENT_3D('',#1214,#882,#883);
#708=AXIS2_PLACEMENT_3D('',#1216,#884,#885);
#709=AXIS2_PLACEMENT_3D('',#1218,#887,#888);
#710=AXIS2_PLACEMENT_3D('',#1222,#891,#892);
#711=AXIS2_PLACEMENT_3D('',#1223,#893,#894);
#712=AXIS2_PLACEMENT_3D('',#1224,#895,#896);
#713=AXIS2_PLACEMENT_3D('',#1228,#899,#900);
#714=AXIS2_PLACEMENT_3D('',#1229,#901,#902);
#715=AXIS2_PLACEMENT_3D('',#1230,#903,#904);
#716=AXIS2_PLACEMENT_3D('',#1231,#905,#906);
#717=AXIS2_PLACEMENT_3D('',#1232,#907,#908);
#718=DIRECTION('axis',(0.,0.,1.));
#719=DIRECTION('refdir',(1.,0.,0.));
#720=DIRECTION('center_axis',(0.,1.,0.));
#721=DIRECTION('ref_axis',(1.,0.,0.));
#722=DIRECTION('',(0.,-1.,0.));
#723=DIRECTION('center_axis',(0.,1.,0.));
#724=DIRECTION('ref_axis',(1.,0.,0.));
#725=DIRECTION('center_axis',(0.,1.,0.));
#726=DIRECTION('ref_axis',(1.,0.,0.));
#727=DIRECTION('',(0.,-1.,0.));
#728=DIRECTION('center_axis',(0.,1.,0.));
#729=DIRECTION('ref_axis',(1.,0.,0.));
#730=DIRECTION('center_axis',(0.,1.,0.));
#731=DIRECTION('ref_axis',(1.,0.,0.));
#732=DIRECTION('',(0.,-1.,0.));
#733=DIRECTION('center_axis',(0.,1.,0.));
#734=DIRECTION('ref_axis',(1.,0.,0.));
#735=DIRECTION('center_axis',(0.,1.,0.));
#736=DIRECTION('ref_axis',(1.,0.,0.));
#737=DIRECTION('',(0.,-1.,0.));
#738=DIRECTION('center_axis',(0.,1.,0.));
#739=DIRECTION('ref_axis',(1.,0.,0.));
#740=DIRECTION('center_axis',(0.,1.,0.));
#741=DIRECTION('ref_axis',(1.,0.,0.));
#742=DIRECTION('center_axis',(0.,1.,0.));
#743=DIRECTION('ref_axis',(1.,0.,0.));
#744=DIRECTION('center_axis',(0.,-1.,0.));
#745=DIRECTION('ref_axis',(1.,0.,0.));
#746=DIRECTION('center_axis',(0.,-1.,0.));
#747=DIRECTION('ref_axis',(1.,0.,0.));
#748=DIRECTION('center_axis',(-1.,0.,0.));
#749=DIRECTION('ref_axis',(0.,0.707106781186547,-0.707106781186547));
#750=DIRECTION('center_axis',(-1.,0.,0.));
#751=DIRECTION('ref_axis',(0.,0.707106781186547,-0.707106781186547));
#752=DIRECTION('',(-1.,0.,0.));
#753=DIRECTION('center_axis',(-1.,0.,0.));
#754=DIRECTION('ref_axis',(0.,0.707106781186547,-0.707106781186547));
#755=DIRECTION('',(1.,0.,0.));
#756=DIRECTION('center_axis',(-1.,0.,0.));
#757=DIRECTION('ref_axis',(0.,0.707106781186547,-0.707106781186547));
#758=DIRECTION('center_axis',(-1.,0.,0.));
#759=DIRECTION('ref_axis',(0.,0.707106781186547,-0.707106781186547));
#760=DIRECTION('',(-1.,0.,0.));
#761=DIRECTION('',(1.,0.,0.));
#762=DIRECTION('center_axis',(-1.,0.,0.));
#763=DIRECTION('ref_axis',(0.,1.,0.));
#764=DIRECTION('',(1.,0.,0.));
#765=DIRECTION('center_axis',(1.,0.,0.));
#766=DIRECTION('ref_axis',(0.,0.707106781186547,-0.707106781186547));
#767=DIRECTION('',(1.,0.,0.));
#768=DIRECTION('center_axis',(0.,-1.,0.));
#769=DIRECTION('ref_axis',(0.,0.,-1.));
#770=DIRECTION('',(0.,0.,1.));
#771=DIRECTION('',(1.,0.,0.));
#772=DIRECTION('',(1.,0.,0.));
#773=DIRECTION('',(1.,0.,0.));
#774=DIRECTION('',(0.,0.,-1.));
#775=DIRECTION('',(-1.,0.,0.));
#776=DIRECTION('center_axis',(0.,1.,0.));
#777=DIRECTION('ref_axis',(1.,0.,0.));
#778=DIRECTION('center_axis',(0.,1.,0.));
#779=DIRECTION('ref_axis',(1.,0.,0.));
#780=DIRECTION('center_axis',(0.,1.,0.));
#781=DIRECTION('ref_axis',(1.,0.,0.));
#782=DIRECTION('center_axis',(0.,1.,0.));
#783=DIRECTION('ref_axis',(1.,0.,0.));
#784=DIRECTION('center_axis',(0.,1.,0.));
#785=DIRECTION('ref_axis',(1.,0.,0.));
#786=DIRECTION('center_axis',(0.,1.,0.));
#787=DIRECTION('ref_axis',(1.,0.,0.));
#788=DIRECTION('center_axis',(0.,-1.,0.));
#789=DIRECTION('ref_axis',(1.,0.,0.));
#790=DIRECTION('center_axis',(0.,-1.,0.));
#791=DIRECTION('ref_axis',(1.,0.,0.));
#792=DIRECTION('center_axis',(1.,0.,0.));
#793=DIRECTION('ref_axis',(0.,0.707106781186547,0.707106781186547));
#794=DIRECTION('',(-1.,0.,0.));
#795=DIRECTION('center_axis',(1.,0.,0.));
#796=DIRECTION('ref_axis',(0.,0.707106781186547,0.707106781186547));
#797=DIRECTION('center_axis',(-1.,0.,0.));
#798=DIRECTION('ref_axis',(0.,0.707106781186547,0.707106781186547));
#799=DIRECTION('',(-1.,0.,0.));
#800=DIRECTION('center_axis',(1.,0.,0.));
#801=DIRECTION('ref_axis',(0.,0.707106781186547,0.707106781186547));
#802=DIRECTION('center_axis',(-1.,0.,0.));
#803=DIRECTION('ref_axis',(0.,0.707106781186547,0.707106781186547));
#804=DIRECTION('center_axis',(0.,1.,0.));
#805=DIRECTION('ref_axis',(1.,0.,0.));
#806=DIRECTION('center_axis',(0.,1.,0.));
#807=DIRECTION('ref_axis',(1.,0.,0.));
#808=DIRECTION('center_axis',(0.,-1.,0.));
#809=DIRECTION('ref_axis',(1.,0.,0.));
#810=DIRECTION('center_axis',(0.,-1.,0.));
#811=DIRECTION('ref_axis',(1.,0.,0.));
#812=DIRECTION('center_axis',(-1.,0.,0.));
#813=DIRECTION('ref_axis',(0.,0.707106781186547,-0.707106781186547));
#814=DIRECTION('center_axis',(1.,0.,0.));
#815=DIRECTION('ref_axis',(0.,0.707106781186547,-0.707106781186547));
#816=DIRECTION('',(1.,0.,0.));
#817=DIRECTION('center_axis',(-1.,0.,0.));
#818=DIRECTION('ref_axis',(0.,0.707106781186547,-0.707106781186547));
#819=DIRECTION('center_axis',(1.,0.,0.));
#820=DIRECTION('ref_axis',(0.,0.707106781186547,-0.707106781186547));
#821=DIRECTION('center_axis',(0.,1.,0.));
#822=DIRECTION('ref_axis',(1.,0.,0.));
#823=DIRECTION('center_axis',(0.,1.,0.));
#824=DIRECTION('ref_axis',(1.,0.,0.));
#825=DIRECTION('center_axis',(0.,-1.,0.));
#826=DIRECTION('ref_axis',(1.,0.,0.));
#827=DIRECTION('center_axis',(0.,-1.,0.));
#828=DIRECTION('ref_axis',(1.,0.,0.));
#829=DIRECTION('center_axis',(1.,0.,0.));
#830=DIRECTION('ref_axis',(0.,0.707106781186547,0.707106781186547));
#831=DIRECTION('center_axis',(1.,0.,0.));
#832=DIRECTION('ref_axis',(0.,0.707106781186547,0.707106781186547));
#833=DIRECTION('center_axis',(1.,0.,0.));
#834=DIRECTION('ref_axis',(0.,0.707106781186547,0.707106781186547));
#835=DIRECTION('',(-1.,0.,0.));
#836=DIRECTION('center_axis',(1.,0.,0.));
#837=DIRECTION('ref_axis',(0.,0.707106781186547,0.707106781186547));
#838=DIRECTION('center_axis',(0.,1.,0.));
#839=DIRECTION('ref_axis',(1.,0.,0.));
#840=DIRECTION('',(0.,1.,0.));
#841=DIRECTION('center_axis',(0.,1.,0.));
#842=DIRECTION('ref_axis',(1.,0.,0.));
#843=DIRECTION('',(0.,1.,0.));
#844=DIRECTION('center_axis',(0.,1.,0.));
#845=DIRECTION('ref_axis',(1.,0.,0.));
#846=DIRECTION('',(0.,1.,0.));
#847=DIRECTION('center_axis',(0.,1.,0.));
#848=DIRECTION('ref_axis',(1.,0.,0.));
#849=DIRECTION('',(0.,1.,0.));
#850=DIRECTION('center_axis',(0.,1.,0.));
#851=DIRECTION('ref_axis',(0.,0.,1.));
#852=DIRECTION('',(0.,0.,1.));
#853=DIRECTION('',(0.,0.,-1.));
#854=DIRECTION('',(0.,0.,1.));
#855=DIRECTION('',(-1.,0.,0.));
#856=DIRECTION('',(0.,3.36738603387615E-16,-1.));
#857=DIRECTION('',(1.,0.,0.));
#858=DIRECTION('',(0.,0.,1.));
#859=DIRECTION('',(-1.,0.,0.));
#860=DIRECTION('',(0.,3.36738603387615E-16,-1.));
#861=DIRECTION('center_axis',(1.,0.,0.));
#862=DIRECTION('ref_axis',(0.,0.,-1.));
#863=DIRECTION('center_axis',(-1.,0.,0.));
#864=DIRECTION('ref_axis',(0.,0.,1.));
#865=DIRECTION('center_axis',(1.,0.,0.));
#866=DIRECTION('ref_axis',(0.,0.,1.));
#867=DIRECTION('center_axis',(-1.,0.,0.));
#868=DIRECTION('ref_axis',(0.,0.,1.));
#869=DIRECTION('',(0.,0.649814798629636,0.76009257823105));
#870=DIRECTION('center_axis',(-1.,0.,0.));
#871=DIRECTION('ref_axis',(0.,0.,1.));
#872=DIRECTION('',(0.,-0.76009257823105,0.649814798629636));
#873=DIRECTION('center_axis',(-1.,0.,0.));
#874=DIRECTION('ref_axis',(0.,0.,1.));
#875=DIRECTION('center_axis',(1.,0.,0.));
#876=DIRECTION('ref_axis',(0.,0.,1.));
#877=DIRECTION('center_axis',(1.,0.,0.));
#878=DIRECTION('ref_axis',(0.,-0.0319145395219529,-0.999490601340054));
#879=DIRECTION('center_axis',(-1.,0.,0.));
#880=DIRECTION('ref_axis',(0.,0.,1.));
#881=DIRECTION('',(1.,0.,0.));
#882=DIRECTION('center_axis',(1.,0.,0.));
#883=DIRECTION('ref_axis',(0.,0.,1.));
#884=DIRECTION('center_axis',(1.,0.,0.));
#885=DIRECTION('ref_axis',(0.,0.,1.));
#886=DIRECTION('',(1.,0.,0.));
#887=DIRECTION('center_axis',(0.,0.76009257823105,-0.649814798629636));
#888=DIRECTION('ref_axis',(0.,0.649814798629636,0.76009257823105));
#889=DIRECTION('',(0.,0.649814798629636,0.76009257823105));
#890=DIRECTION('',(1.,0.,0.));
#891=DIRECTION('center_axis',(1.,0.,0.));
#892=DIRECTION('ref_axis',(0.,0.,1.));
#893=DIRECTION('center_axis',(-1.,0.,0.));
#894=DIRECTION('ref_axis',(0.,0.,1.));
#895=DIRECTION('center_axis',(0.,0.649814798629636,0.76009257823105));
#896=DIRECTION('ref_axis',(0.,-0.76009257823105,0.649814798629636));
#897=DIRECTION('',(0.,-0.76009257823105,0.649814798629636));
#898=DIRECTION('',(1.,0.,0.));
#899=DIRECTION('center_axis',(1.,0.,0.));
#900=DIRECTION('ref_axis',(0.,0.183435173746973,-0.983031808759217));
#901=DIRECTION('center_axis',(1.,0.,0.));
#902=DIRECTION('ref_axis',(0.,0.,1.));
#903=DIRECTION('center_axis',(-1.,0.,0.));
#904=DIRECTION('ref_axis',(0.,0.,1.));
#905=DIRECTION('center_axis',(-1.,0.,0.));
#906=DIRECTION('ref_axis',(0.,0.,1.));
#907=DIRECTION('center_axis',(-1.,0.,0.));
#908=DIRECTION('ref_axis',(0.,0.,1.));
#909=CARTESIAN_POINT('',(0.,0.,0.));
#910=CARTESIAN_POINT('Origin',(70.6590442734314,65.,-57.4213736691861));
#911=CARTESIAN_POINT('',(68.1590442734314,70.,-57.4213736691861));
#912=CARTESIAN_POINT('',(68.1590442734314,69.3301270189222,-57.4213736691861));
#913=CARTESIAN_POINT('',(68.1590442734314,65.,-57.4213736691861));
#914=CARTESIAN_POINT('',(70.6590442734314,70.,-59.9213736691861));
#915=CARTESIAN_POINT('Origin',(70.6590442734314,70.,-57.4213736691861));
#916=CARTESIAN_POINT('Ctrl Pts',(68.1590442734314,69.3301270189222,-57.4213736691861));
#917=CARTESIAN_POINT('Ctrl Pts',(68.1590442734314,69.4965604327335,-57.7096447979845));
#918=CARTESIAN_POINT('Ctrl Pts',(68.2127476672819,69.6426660900684,-58.0363270157687));
#919=CARTESIAN_POINT('Ctrl Pts',(68.4613996879726,69.849263782752,-58.6594746145459));
#920=CARTESIAN_POINT('Ctrl Pts',(68.6571840694587,69.9114370769136,-58.9550473711462));
#921=CARTESIAN_POINT('Ctrl Pts',(69.1124104623651,69.9788300306939,-59.4102737640525));
#922=CARTESIAN_POINT('Ctrl Pts',(69.3931973655643,69.9914821831948,-59.6028539665318));
#923=CARTESIAN_POINT('Ctrl Pts',(70.0093124594574,70.0012381203181,-59.8583950943074));
#924=CARTESIAN_POINT('Ctrl Pts',(70.3446059583152,70.,-59.9213736691861));
#925=CARTESIAN_POINT('Ctrl Pts',(70.6590442734314,70.,-59.9213736691861));
#926=CARTESIAN_POINT('Origin',(70.6590442734314,65.,-88.7972750587204));
#927=CARTESIAN_POINT('',(68.1590442734314,70.,-88.7972750587204));
#928=CARTESIAN_POINT('',(68.1590442734314,69.3301270189222,-88.7972750587204));
#929=CARTESIAN_POINT('',(68.1590442734314,65.,-88.7972750587204));
#930=CARTESIAN_POINT('',(70.6590442734314,70.,-86.2972750587204));
#931=CARTESIAN_POINT('Origin',(70.6590442734314,70.,-88.7972750587204));
#932=CARTESIAN_POINT('',(70.6590442734314,65.,-91.2972750587204));
#933=CARTESIAN_POINT('Ctrl Pts',(70.6590442734314,65.,-91.2972750587204));
#934=CARTESIAN_POINT('Ctrl Pts',(70.9791311829284,65.4526712485487,-91.2972750587204));
#935=CARTESIAN_POINT('Ctrl Pts',(71.328061587077,65.9454546528457,-91.2326468140182));
#936=CARTESIAN_POINT('Ctrl Pts',(71.9857182716825,66.9073065202067,-90.9463570536127));
#937=CARTESIAN_POINT('Ctrl Pts',(72.2939238435839,67.3766436228736,-90.7244023082941));
#938=CARTESIAN_POINT('Ctrl Pts',(72.7040087796507,68.0714107905696,-90.2572716687254));
#939=CARTESIAN_POINT('Ctrl Pts',(72.8638723010243,68.3664883158918,-90.014588651672));
#940=CARTESIAN_POINT('Ctrl Pts',(73.0919487880414,68.9014671153246,-89.448500164055));
#941=CARTESIAN_POINT('Ctrl Pts',(73.1590442734314,69.1412075475125,-89.124493181741));
#942=CARTESIAN_POINT('Ctrl Pts',(73.1590442734314,69.4965604327335,-88.5090039299221));
#943=CARTESIAN_POINT('Ctrl Pts',(73.1053408795808,69.6426660900684,-88.1823217121378));
#944=CARTESIAN_POINT('Ctrl Pts',(72.8566888588902,69.849263782752,-87.5591741133606));
#945=CARTESIAN_POINT('Ctrl Pts',(72.660904477404,69.9114370769136,-87.2636013567603));
#946=CARTESIAN_POINT('Ctrl Pts',(72.2056780844977,69.9788300306939,-86.808374963854));
#947=CARTESIAN_POINT('Ctrl Pts',(71.9248911812985,69.9914821831948,-86.6157947613748));
#948=CARTESIAN_POINT('Ctrl Pts',(71.3087760874054,70.0012381203181,-86.3602536335991));
#949=CARTESIAN_POINT('Ctrl Pts',(70.9734825885476,70.,-86.2972750587204));
#950=CARTESIAN_POINT('Ctrl Pts',(70.6590442734314,70.,-86.2972750587204));
#951=CARTESIAN_POINT('Ctrl Pts',(68.1590442734314,69.3301270189222,-88.7972750587204));
#952=CARTESIAN_POINT('Ctrl Pts',(68.1590442734314,69.1412075475125,-89.124493181741));
#953=CARTESIAN_POINT('Ctrl Pts',(68.2261397588214,68.9014671153246,-89.4485001640551));
#954=CARTESIAN_POINT('Ctrl Pts',(68.4542162458385,68.3664883158918,-90.014588651672));
#955=CARTESIAN_POINT('Ctrl Pts',(68.614079767212,68.0714107905696,-90.2572716687254));
#956=CARTESIAN_POINT('Ctrl Pts',(69.0241647032788,67.3766436228736,-90.7244023082941));
#957=CARTESIAN_POINT('Ctrl Pts',(69.3323702751803,66.9073065202067,-90.9463570536127));
#958=CARTESIAN_POINT('Ctrl Pts',(69.9900269597858,65.9454546528457,-91.2326468140182));
#959=CARTESIAN_POINT('Ctrl Pts',(70.3389573639344,65.4526712485487,-91.2972750587204));
#960=CARTESIAN_POINT('Ctrl Pts',(70.6590442734314,65.,-91.2972750587204));
#961=CARTESIAN_POINT('Origin',(168.753111978156,65.,-57.4213736691861));
#962=CARTESIAN_POINT('',(166.253111978156,70.,-57.4213736691861));
#963=CARTESIAN_POINT('',(166.253111978156,69.3301270189222,-57.4213736691861));
#964=CARTESIAN_POINT('',(166.253111978156,65.,-57.4213736691861));
#965=CARTESIAN_POINT('',(168.753111978156,70.,-59.9213736691861));
#966=CARTESIAN_POINT('Origin',(168.753111978156,70.,-57.4213736691861));
#967=CARTESIAN_POINT('Ctrl Pts',(166.253111978156,69.3301270189222,-57.4213736691861));
#968=CARTESIAN_POINT('Ctrl Pts',(166.253111978156,69.4965604327335,-57.7096447979845));
#969=CARTESIAN_POINT('Ctrl Pts',(166.306815372006,69.6426660900684,-58.0363270157687));
#970=CARTESIAN_POINT('Ctrl Pts',(166.555467392697,69.849263782752,-58.6594746145459));
#971=CARTESIAN_POINT('Ctrl Pts',(166.751251774183,69.9114370769136,-58.9550473711462));
#972=CARTESIAN_POINT('Ctrl Pts',(167.206478167089,69.9788300306939,-59.4102737640525));
#973=CARTESIAN_POINT('Ctrl Pts',(167.487265070289,69.9914821831948,-59.6028539665318));
#974=CARTESIAN_POINT('Ctrl Pts',(168.103380164182,70.0012381203181,-59.8583950943074));
#975=CARTESIAN_POINT('Ctrl Pts',(168.43867366304,70.,-59.9213736691861));
#976=CARTESIAN_POINT('Ctrl Pts',(168.753111978156,70.,-59.9213736691861));
#977=CARTESIAN_POINT('Origin',(168.753111978156,65.,-88.7972750587204));
#978=CARTESIAN_POINT('',(166.253111978156,70.,-88.7972750587204));
#979=CARTESIAN_POINT('',(166.253111978156,69.3301270189222,-88.7972750587204));
#980=CARTESIAN_POINT('',(166.253111978156,65.,-88.7972750587204));
#981=CARTESIAN_POINT('',(168.753111978156,70.,-86.2972750587204));
#982=CARTESIAN_POINT('Origin',(168.753111978156,70.,-88.7972750587204));
#983=CARTESIAN_POINT('',(171.253111978156,69.3301270189222,-88.7972750587204));
#984=CARTESIAN_POINT('Ctrl Pts',(171.253111978156,69.3301270189222,-88.7972750587204));
#985=CARTESIAN_POINT('Ctrl Pts',(171.253111978156,69.4965604327335,-88.5090039299221));
#986=CARTESIAN_POINT('Ctrl Pts',(171.199408584305,69.6426660900684,-88.1823217121378));
#987=CARTESIAN_POINT('Ctrl Pts',(170.950756563615,69.849263782752,-87.5591741133606));
#988=CARTESIAN_POINT('Ctrl Pts',(170.754972182128,69.9114370769136,-87.2636013567603));
#989=CARTESIAN_POINT('Ctrl Pts',(170.299745789222,69.9788300306939,-86.808374963854));
#990=CARTESIAN_POINT('Ctrl Pts',(170.018958886023,69.9914821831948,-86.6157947613748));
#991=CARTESIAN_POINT('Ctrl Pts',(169.40284379213,70.0012381203181,-86.3602536335991));
#992=CARTESIAN_POINT('Ctrl Pts',(169.067550293272,70.,-86.2972750587204));
#993=CARTESIAN_POINT('Ctrl Pts',(168.753111978156,70.,-86.2972750587204));
#994=CARTESIAN_POINT('',(168.753111978156,65.,-91.2972750587204));
#995=CARTESIAN_POINT('Ctrl Pts',(168.753111978156,65.,-91.2972750587204));
#996=CARTESIAN_POINT('Ctrl Pts',(169.073198887653,65.4526712485487,-91.2972750587204));
#997=CARTESIAN_POINT('Ctrl Pts',(169.422129291801,65.9454546528457,-91.2326468140182));
#998=CARTESIAN_POINT('Ctrl Pts',(170.079785976407,66.9073065202066,-90.9463570536127));
#999=CARTESIAN_POINT('Ctrl Pts',(170.387991548308,67.3766436228736,-90.7244023082941));
#1000=CARTESIAN_POINT('Ctrl Pts',(170.798076484375,68.0714107905696,-90.2572716687254));
#1001=CARTESIAN_POINT('Ctrl Pts',(170.957940005749,68.3664883158918,-90.014588651672));
#1002=CARTESIAN_POINT('Ctrl Pts',(171.186016492766,68.9014671153246,-89.448500164055));
#1003=CARTESIAN_POINT('Ctrl Pts',(171.253111978156,69.1412075475125,-89.1244931817411));
#1004=CARTESIAN_POINT('Ctrl Pts',(171.253111978156,69.3301270189222,-88.7972750587205));
#1005=CARTESIAN_POINT('Ctrl Pts',(166.253111978156,69.3301270189222,-88.7972750587204));
#1006=CARTESIAN_POINT('Ctrl Pts',(166.253111978156,69.1412075475125,-89.124493181741));
#1007=CARTESIAN_POINT('Ctrl Pts',(166.320207463546,68.9014671153246,-89.4485001640551));
#1008=CARTESIAN_POINT('Ctrl Pts',(166.548283950563,68.3664883158918,-90.014588651672));
#1009=CARTESIAN_POINT('Ctrl Pts',(166.708147471936,68.0714107905696,-90.2572716687254));
#1010=CARTESIAN_POINT('Ctrl Pts',(167.118232408003,67.3766436228736,-90.7244023082941));
#1011=CARTESIAN_POINT('Ctrl Pts',(167.426437979905,66.9073065202066,-90.9463570536127));
#1012=CARTESIAN_POINT('Ctrl Pts',(168.08409466451,65.9454546528457,-91.2326468140182));
#1013=CARTESIAN_POINT('Ctrl Pts',(168.433025068659,65.4526712485487,-91.2972750587204));
#1014=CARTESIAN_POINT('Ctrl Pts',(168.753111978156,65.,-91.2972750587204));
#1015=CARTESIAN_POINT('Origin',(168.753111978156,65.,-88.7972750587204));
#1016=CARTESIAN_POINT('Ctrl Pts',(168.753111978156,70.,-86.2972750587204));
#1017=CARTESIAN_POINT('Ctrl Pts',(168.43867366304,70.,-86.2972750587204));
#1018=CARTESIAN_POINT('Ctrl Pts',(168.103380164182,70.0012381203181,-86.3602536335991));
#1019=CARTESIAN_POINT('Ctrl Pts',(167.487265070289,69.9914821831948,-86.6157947613748));
#1020=CARTESIAN_POINT('Ctrl Pts',(167.206478167089,69.9788300306939,-86.808374963854));
#1021=CARTESIAN_POINT('Ctrl Pts',(166.751251774183,69.9114370769136,-87.2636013567603));
#1022=CARTESIAN_POINT('Ctrl Pts',(166.555467392697,69.849263782752,-87.5591741133606));
#1023=CARTESIAN_POINT('Ctrl Pts',(166.306815372006,69.6426660900684,-88.1823217121378));
#1024=CARTESIAN_POINT('Ctrl Pts',(166.253111978156,69.4965604327335,-88.5090039299221));
#1025=CARTESIAN_POINT('Ctrl Pts',(166.253111978156,69.3301270189222,-88.7972750587204));
#1026=CARTESIAN_POINT('Origin',(168.753111978156,70.,-88.7972750587204));
#1027=CARTESIAN_POINT('Origin',(168.753111978156,70.,-88.7972750587204));
#1028=CARTESIAN_POINT('',(167.878111978156,70.,-88.7972750587204));
#1029=CARTESIAN_POINT('Origin',(168.753111978156,70.,-88.7972750587204));
#1030=CARTESIAN_POINT('Origin',(145.479595051975,65.,-86.2972750587204));
#1031=CARTESIAN_POINT('',(171.253111978156,65.,-91.2972750587204));
#1032=CARTESIAN_POINT('Origin',(171.253111978156,65.,-86.2972750587204));
#1033=CARTESIAN_POINT('',(145.479595051975,65.,-91.2972750587204));
#1034=CARTESIAN_POINT('Origin',(145.479595051975,65.,-86.2972750587204));
#1035=CARTESIAN_POINT('',(171.253111978156,70.,-86.2972750587204));
#1036=CARTESIAN_POINT('',(145.479595051975,70.,-86.2972750587204));
#1037=CARTESIAN_POINT('Origin',(171.253111978156,65.,-86.2972750587204));
#1038=CARTESIAN_POINT('Origin',(145.479595051975,65.,-86.2972750587204));
#1039=CARTESIAN_POINT('',(145.479595051975,65.,-91.2972750587204));
#1040=CARTESIAN_POINT('',(109.659044273431,70.,-86.2972750587204));
#1041=CARTESIAN_POINT('',(68.1590442734314,70.,-86.2972750587204));
#1042=CARTESIAN_POINT('',(109.659044273431,69.7287080734799,-87.9218734570351));
#1043=CARTESIAN_POINT('Origin',(109.659044273431,65.,-86.2972750587204));
#1044=CARTESIAN_POINT('',(129.659044273431,69.7287080734799,-87.9218734570351));
#1045=CARTESIAN_POINT('',(68.1590442734314,69.7287080734799,-87.9218734570351));
#1046=CARTESIAN_POINT('',(129.659044273431,70.,-86.2972750587204));
#1047=CARTESIAN_POINT('Origin',(129.659044273431,65.,-86.2972750587204));
#1048=CARTESIAN_POINT('',(145.479595051975,70.,-86.2972750587204));
#1049=CARTESIAN_POINT('Origin',(119.706078125794,65.,-73.1093243639533));
#1050=CARTESIAN_POINT('',(171.253111978156,65.,-54.9213736691861));
#1051=CARTESIAN_POINT('',(171.253111978156,65.,-1.29727505872044));
#1052=CARTESIAN_POINT('',(168.753111978156,65.,-54.9213736691861));
#1053=CARTESIAN_POINT('',(93.9325611996125,65.,-54.9213736691861));
#1054=CARTESIAN_POINT('',(70.6590442734314,65.,-54.9213736691861));
#1055=CARTESIAN_POINT('',(93.9325611996125,65.,-54.9213736691861));
#1056=CARTESIAN_POINT('',(68.1590442734314,65.,-54.9213736691861));
#1057=CARTESIAN_POINT('',(93.9325611996125,65.,-54.9213736691861));
#1058=CARTESIAN_POINT('',(68.1590442734314,65.,-91.2972750587204));
#1059=CARTESIAN_POINT('',(68.1590442734314,65.,-61.2972750587204));
#1060=CARTESIAN_POINT('',(145.479595051975,65.,-91.2972750587204));
#1061=CARTESIAN_POINT('',(69.7840442734314,65.,-57.4213736691861));
#1062=CARTESIAN_POINT('Origin',(70.6590442734314,65.,-57.4213736691861));
#1063=CARTESIAN_POINT('',(69.7840442734314,65.,-88.7972750587204));
#1064=CARTESIAN_POINT('Origin',(70.6590442734314,65.,-88.7972750587204));
#1065=CARTESIAN_POINT('',(167.878111978156,65.,-57.4213736691861));
#1066=CARTESIAN_POINT('Origin',(168.753111978156,65.,-57.4213736691861));
#1067=CARTESIAN_POINT('',(167.878111978156,65.,-88.7972750587204));
#1068=CARTESIAN_POINT('Origin',(168.753111978156,65.,-88.7972750587204));
#1069=CARTESIAN_POINT('Origin',(168.753111978156,65.,-57.4213736691861));
#1070=CARTESIAN_POINT('Ctrl Pts',(168.753111978156,65.,-54.9213736691861));
#1071=CARTESIAN_POINT('Ctrl Pts',(168.433025068659,65.4526712485487,-54.9213736691861));
#1072=CARTESIAN_POINT('Ctrl Pts',(168.08409466451,65.9454546528457,-54.9860019138884));
#1073=CARTESIAN_POINT('Ctrl Pts',(167.426437979905,66.9073065202066,-55.2722916742938));
#1074=CARTESIAN_POINT('Ctrl Pts',(167.118232408003,67.3766436228736,-55.4942464196124));
#1075=CARTESIAN_POINT('Ctrl Pts',(166.708147471936,68.0714107905696,-55.9613770591812));
#1076=CARTESIAN_POINT('Ctrl Pts',(166.548283950563,68.3664883158918,-56.2040600762346));
#1077=CARTESIAN_POINT('Ctrl Pts',(166.320207463546,68.9014671153246,-56.7701485638515));
#1078=CARTESIAN_POINT('Ctrl Pts',(166.253111978156,69.1412075475125,-57.0941555461655));
#1079=CARTESIAN_POINT('Ctrl Pts',(166.253111978156,69.3301270189222,-57.4213736691861));
#1080=CARTESIAN_POINT('',(171.253111978156,69.3301270189222,-57.4213736691861));
#1081=CARTESIAN_POINT('Ctrl Pts',(171.253111978156,69.3301270189222,-57.4213736691861));
#1082=CARTESIAN_POINT('Ctrl Pts',(171.253111978156,69.1412075475125,-57.0941555461655));
#1083=CARTESIAN_POINT('Ctrl Pts',(171.186016492766,68.9014671153246,-56.7701485638515));
#1084=CARTESIAN_POINT('Ctrl Pts',(170.957940005749,68.3664883158918,-56.2040600762346));
#1085=CARTESIAN_POINT('Ctrl Pts',(170.798076484375,68.0714107905696,-55.9613770591812));
#1086=CARTESIAN_POINT('Ctrl Pts',(170.387991548308,67.3766436228736,-55.4942464196124));
#1087=CARTESIAN_POINT('Ctrl Pts',(170.079785976407,66.9073065202066,-55.2722916742938));
#1088=CARTESIAN_POINT('Ctrl Pts',(169.422129291801,65.9454546528457,-54.9860019138884));
#1089=CARTESIAN_POINT('Ctrl Pts',(169.073198887653,65.4526712485487,-54.9213736691861));
#1090=CARTESIAN_POINT('Ctrl Pts',(168.753111978156,65.,-54.9213736691861));
#1091=CARTESIAN_POINT('Ctrl Pts',(168.753111978156,70.,-59.9213736691861));
#1092=CARTESIAN_POINT('Ctrl Pts',(169.067550293272,70.,-59.9213736691861));
#1093=CARTESIAN_POINT('Ctrl Pts',(169.40284379213,70.0012381203181,-59.8583950943074));
#1094=CARTESIAN_POINT('Ctrl Pts',(170.018958886023,69.9914821831948,-59.6028539665318));
#1095=CARTESIAN_POINT('Ctrl Pts',(170.299745789222,69.9788300306939,-59.4102737640525));
#1096=CARTESIAN_POINT('Ctrl Pts',(170.754972182128,69.9114370769136,-58.9550473711462));
#1097=CARTESIAN_POINT('Ctrl Pts',(170.950756563615,69.849263782752,-58.6594746145459));
#1098=CARTESIAN_POINT('Ctrl Pts',(171.199408584305,69.6426660900684,-58.0363270157687));
#1099=CARTESIAN_POINT('Ctrl Pts',(171.253111978156,69.4965604327335,-57.7096447979845));
#1100=CARTESIAN_POINT('Ctrl Pts',(171.253111978156,69.3301270189222,-57.4213736691861));
#1101=CARTESIAN_POINT('Origin',(168.753111978156,70.,-57.4213736691861));
#1102=CARTESIAN_POINT('Origin',(168.753111978156,70.,-57.4213736691861));
#1103=CARTESIAN_POINT('',(167.878111978156,70.,-57.4213736691861));
#1104=CARTESIAN_POINT('Origin',(168.753111978156,70.,-57.4213736691861));
#1105=CARTESIAN_POINT('Origin',(93.9325611996125,65.,-59.9213736691861));
#1106=CARTESIAN_POINT('',(93.9325611996125,70.,-59.9213736691861));
#1107=CARTESIAN_POINT('Ctrl Pts',(70.6590442734314,70.,-59.9213736691861));
#1108=CARTESIAN_POINT('Ctrl Pts',(70.9734825885476,70.,-59.9213736691861));
#1109=CARTESIAN_POINT('Ctrl Pts',(71.3087760874054,70.0012381203181,-59.8583950943074));
#1110=CARTESIAN_POINT('Ctrl Pts',(71.9248911812985,69.9914821831948,-59.6028539665318));
#1111=CARTESIAN_POINT('Ctrl Pts',(72.2056780844977,69.9788300306939,-59.4102737640525));
#1112=CARTESIAN_POINT('Ctrl Pts',(72.660904477404,69.9114370769136,-58.9550473711462));
#1113=CARTESIAN_POINT('Ctrl Pts',(72.8566888588902,69.849263782752,-58.6594746145459));
#1114=CARTESIAN_POINT('Ctrl Pts',(73.1053408795808,69.6426660900684,-58.0363270157687));
#1115=CARTESIAN_POINT('Ctrl Pts',(73.1590442734314,69.4965604327335,-57.7096447979845));
#1116=CARTESIAN_POINT('Ctrl Pts',(73.1590442734314,69.1412075475125,-57.0941555461655));
#1117=CARTESIAN_POINT('Ctrl Pts',(73.0919487880414,68.9014671153246,-56.7701485638515));
#1118=CARTESIAN_POINT('Ctrl Pts',(72.8638723010243,68.3664883158918,-56.2040600762346));
#1119=CARTESIAN_POINT('Ctrl Pts',(72.7040087796507,68.0714107905696,-55.9613770591812));
#1120=CARTESIAN_POINT('Ctrl Pts',(72.2939238435839,67.3766436228736,-55.4942464196124));
#1121=CARTESIAN_POINT('Ctrl Pts',(71.9857182716825,66.9073065202067,-55.2722916742938));
#1122=CARTESIAN_POINT('Ctrl Pts',(71.328061587077,65.9454546528457,-54.9860019138884));
#1123=CARTESIAN_POINT('Ctrl Pts',(70.9791311829284,65.4526712485487,-54.9213736691861));
#1124=CARTESIAN_POINT('Ctrl Pts',(70.6590442734314,65.,-54.9213736691861));
#1125=CARTESIAN_POINT('Origin',(93.9325611996125,65.,-59.9213736691861));
#1126=CARTESIAN_POINT('',(171.253111978156,70.,-59.9213736691861));
#1127=CARTESIAN_POINT('Origin',(171.253111978156,65.,-59.9213736691861));
#1128=CARTESIAN_POINT('',(93.9325611996125,70.,-59.9213736691861));
#1129=CARTESIAN_POINT('Origin',(93.9325611996125,65.,-59.9213736691861));
#1130=CARTESIAN_POINT('Origin',(171.253111978156,65.,-59.9213736691861));
#1131=CARTESIAN_POINT('Origin',(70.6590442734314,65.,-88.7972750587204));
#1132=CARTESIAN_POINT('Ctrl Pts',(70.6590442734314,70.,-86.2972750587204));
#1133=CARTESIAN_POINT('Ctrl Pts',(70.3446059583152,70.,-86.2972750587204));
#1134=CARTESIAN_POINT('Ctrl Pts',(70.0093124594574,70.0012381203181,-86.3602536335992));
#1135=CARTESIAN_POINT('Ctrl Pts',(69.3931973655643,69.9914821831948,-86.6157947613748));
#1136=CARTESIAN_POINT('Ctrl Pts',(69.112410462365,69.9788300306939,-86.808374963854));
#1137=CARTESIAN_POINT('Ctrl Pts',(68.6571840694587,69.9114370769136,-87.2636013567603));
#1138=CARTESIAN_POINT('Ctrl Pts',(68.4613996879726,69.849263782752,-87.5591741133606));
#1139=CARTESIAN_POINT('Ctrl Pts',(68.2127476672819,69.6426660900684,-88.1823217121378));
#1140=CARTESIAN_POINT('Ctrl Pts',(68.1590442734314,69.4965604327335,-88.509003929922));
#1141=CARTESIAN_POINT('Ctrl Pts',(68.1590442734314,69.3301270189222,-88.7972750587204));
#1142=CARTESIAN_POINT('Origin',(70.6590442734314,70.,-88.7972750587204));
#1143=CARTESIAN_POINT('Origin',(70.6590442734314,70.,-88.7972750587204));
#1144=CARTESIAN_POINT('',(69.7840442734314,70.,-88.7972750587204));
#1145=CARTESIAN_POINT('Origin',(70.6590442734314,70.,-88.7972750587204));
#1146=CARTESIAN_POINT('Origin',(145.479595051975,65.,-86.2972750587204));
#1147=CARTESIAN_POINT('',(68.1590442734314,70.,-86.2972750587204));
#1148=CARTESIAN_POINT('Origin',(68.1590442734314,65.,-86.2972750587204));
#1149=CARTESIAN_POINT('',(68.1590442734314,70.,-86.2972750587204));
#1150=CARTESIAN_POINT('Origin',(145.479595051975,65.,-86.2972750587204));
#1151=CARTESIAN_POINT('Origin',(68.1590442734314,65.,-86.2972750587204));
#1152=CARTESIAN_POINT('Origin',(70.6590442734314,65.,-57.4213736691861));
#1153=CARTESIAN_POINT('Ctrl Pts',(70.6590442734314,65.,-54.9213736691861));
#1154=CARTESIAN_POINT('Ctrl Pts',(70.3389573639344,65.4526712485487,-54.9213736691861));
#1155=CARTESIAN_POINT('Ctrl Pts',(69.9900269597858,65.9454546528457,-54.9860019138884));
#1156=CARTESIAN_POINT('Ctrl Pts',(69.3323702751803,66.9073065202066,-55.2722916742938));
#1157=CARTESIAN_POINT('Ctrl Pts',(69.0241647032789,67.3766436228736,-55.4942464196124));
#1158=CARTESIAN_POINT('Ctrl Pts',(68.614079767212,68.0714107905696,-55.9613770591812));
#1159=CARTESIAN_POINT('Ctrl Pts',(68.4542162458385,68.3664883158918,-56.2040600762346));
#1160=CARTESIAN_POINT('Ctrl Pts',(68.2261397588214,68.9014671153246,-56.7701485638515));
#1161=CARTESIAN_POINT('Ctrl Pts',(68.1590442734314,69.1412075475125,-57.0941555461655));
#1162=CARTESIAN_POINT('Ctrl Pts',(68.1590442734314,69.3301270189222,-57.4213736691861));
#1163=CARTESIAN_POINT('Origin',(70.6590442734314,70.,-57.4213736691861));
#1164=CARTESIAN_POINT('Origin',(70.6590442734314,70.,-57.4213736691861));
#1165=CARTESIAN_POINT('',(69.7840442734314,70.,-57.4213736691861));
#1166=CARTESIAN_POINT('Origin',(70.6590442734314,70.,-57.4213736691861));
#1167=CARTESIAN_POINT('Origin',(93.9325611996125,65.,-59.9213736691861));
#1168=CARTESIAN_POINT('Origin',(68.1590442734314,65.,-59.9213736691861));
#1169=CARTESIAN_POINT('Origin',(93.9325611996125,65.,-59.9213736691861));
#1170=CARTESIAN_POINT('',(68.1590442734314,70.,-59.9213736691861));
#1171=CARTESIAN_POINT('',(93.9325611996125,70.,-59.9213736691861));
#1172=CARTESIAN_POINT('Origin',(68.1590442734314,65.,-59.9213736691861));
#1173=CARTESIAN_POINT('Origin',(70.6590442734314,65.,-88.7972750587204));
#1174=CARTESIAN_POINT('',(69.7840442734314,65.,-88.7972750587204));
#1175=CARTESIAN_POINT('Origin',(168.753111978156,65.,-88.7972750587204));
#1176=CARTESIAN_POINT('',(167.878111978156,65.,-88.7972750587204));
#1177=CARTESIAN_POINT('Origin',(70.6590442734314,65.,-57.4213736691861));
#1178=CARTESIAN_POINT('',(69.7840442734314,65.,-57.4213736691861));
#1179=CARTESIAN_POINT('Origin',(168.753111978156,65.,-57.4213736691861));
#1180=CARTESIAN_POINT('',(167.878111978156,65.,-57.4213736691861));
#1181=CARTESIAN_POINT('Origin',(119.706078125794,70.,-73.1093243639533));
#1182=CARTESIAN_POINT('',(68.1590442734314,70.,-81.9588766313497));
#1183=CARTESIAN_POINT('',(171.253111978156,70.,-81.9588766313497));
#1184=CARTESIAN_POINT('',(129.659044273431,70.,-83.0000001440443));
#1185=CARTESIAN_POINT('',(129.659044273431,70.,-79.5546625495385));
#1186=CARTESIAN_POINT('',(109.659044273431,70.,-83.0000001440443));
#1187=CARTESIAN_POINT('',(68.1590442734314,70.,-83.0000001440443));
#1188=CARTESIAN_POINT('',(109.659044273431,70.,-59.9213736691861));
#1189=CARTESIAN_POINT('',(109.659044273431,70.,-77.0000022401415));
#1190=CARTESIAN_POINT('',(129.659044273431,70.,-77.0000022401415));
#1191=CARTESIAN_POINT('',(68.1590442734314,70.,-77.0000022401415));
#1192=CARTESIAN_POINT('',(129.659044273431,70.,-71.9377437302749));
#1193=CARTESIAN_POINT('',(129.659044273431,70.,-73.5546630065076));
#1194=CARTESIAN_POINT('',(109.659044273431,70.,-71.9377437302749));
#1195=CARTESIAN_POINT('',(68.1590442734314,70.,-71.9377437302749));
#1196=CARTESIAN_POINT('',(109.659044273431,70.,-59.9213736691861));
#1197=CARTESIAN_POINT('Origin',(171.253111978156,0.,28.7027249412796));
#1198=CARTESIAN_POINT('Origin',(129.659044273431,74.9241670769911,-74.000001649062));
#1199=CARTESIAN_POINT('',(129.659044273431,79.8483341539822,-73.1591678860771));
#1200=CARTESIAN_POINT('Origin',(129.659044273431,74.0000008791685,-80.0000011920929));
#1201=CARTESIAN_POINT('',(129.659044273431,77.2490749207317,-76.1995382443064));
#1202=CARTESIAN_POINT('Origin',(129.659044273431,74.0000008791685,-80.0000011920929));
#1203=CARTESIAN_POINT('',(129.659044273431,74.0000008791685,-80.0000011920929));
#1204=CARTESIAN_POINT('Origin',(129.659044273431,75.2847711293321,-86.0000007351238));
#1205=CARTESIAN_POINT('',(129.659044273431,80.8408341851843,-85.8483344669066));
#1206=CARTESIAN_POINT('',(129.659044273431,77.8004638269551,-83.249075233656));
#1207=CARTESIAN_POINT('',(129.659044273431,74.0000008791685,-80.0000011920929));
#1208=CARTESIAN_POINT('Origin',(129.659044273431,74.0000008791685,-80.0000011920929));
#1209=CARTESIAN_POINT('Origin',(129.659044273431,74.0000008791685,-80.0000011920929));
#1210=CARTESIAN_POINT('Origin',(68.1590442734314,74.0000008791685,-80.0000011920929));
#1211=CARTESIAN_POINT('',(109.659044273431,77.8004638269551,-83.249075233656));
#1212=CARTESIAN_POINT('Origin',(109.659044273431,74.0000008791685,-80.0000011920929));
#1213=CARTESIAN_POINT('',(68.1590442734314,77.8004638269551,-83.249075233656));
#1214=CARTESIAN_POINT('Origin',(68.1590442734314,74.0000008791685,-80.0000011920929));
#1215=CARTESIAN_POINT('',(109.659044273431,79.8483341539822,-73.1591678860771));
#1216=CARTESIAN_POINT('Origin',(109.659044273431,74.0000008791685,-80.0000011920929));
#1217=CARTESIAN_POINT('',(68.1590442734314,79.8483341539822,-73.1591678860771));
#1218=CARTESIAN_POINT('Origin',(68.1590442734314,77.2490749207317,-76.1995382443064));
#1219=CARTESIAN_POINT('',(109.659044273431,77.2490749207317,-76.1995382443064));
#1220=CARTESIAN_POINT('',(109.659044273431,77.3014148772756,-76.1383158581775));
#1221=CARTESIAN_POINT('',(68.1590442734314,77.2490749207317,-76.1995382443064));
#1222=CARTESIAN_POINT('Origin',(68.1590442734314,74.0000008791685,-80.0000011920929));
#1223=CARTESIAN_POINT('Origin',(109.659044273431,74.0000008791685,-80.0000011920929));
#1224=CARTESIAN_POINT('Origin',(68.1590442734314,80.8408341851843,-85.8483344669066));
#1225=CARTESIAN_POINT('',(109.659044273431,80.8408341851843,-85.8483344669066));
#1226=CARTESIAN_POINT('',(109.659044273431,79.273307685801,-84.5082320297614));
#1227=CARTESIAN_POINT('',(68.1590442734314,80.8408341851843,-85.8483344669066));
#1228=CARTESIAN_POINT('Origin',(68.1590442734314,74.0000008791685,-80.0000011920929));
#1229=CARTESIAN_POINT('Origin',(109.659044273431,74.0000008791685,-80.0000011920929));
#1230=CARTESIAN_POINT('Origin',(109.659044273431,74.9241670769911,-74.000001649062));
#1231=CARTESIAN_POINT('Origin',(109.659044273431,75.2847711293321,-86.0000007351238));
#1232=CARTESIAN_POINT('Origin',(68.1590442734314,0.,-91.2972750587204));
#1233=UNCERTAINTY_MEASURE_WITH_UNIT(LENGTH_MEASURE(0.01),#1237,
'DISTANCE_ACCURACY_VALUE',
'Maximum model space distance between geometric entities at asserted c
onnectivities');
#1234=UNCERTAINTY_MEASURE_WITH_UNIT(LENGTH_MEASURE(0.01),#1237,
'DISTANCE_ACCURACY_VALUE',
'Maximum model space distance between geometric entities at asserted c
onnectivities');
#1235=(
GEOMETRIC_REPRESENTATION_CONTEXT(3)
GLOBAL_UNCERTAINTY_ASSIGNED_CONTEXT((#1233))
GLOBAL_UNIT_ASSIGNED_CONTEXT((#1237,#1238,#1239))
REPRESENTATION_CONTEXT('','3D')
);
#1236=(
GEOMETRIC_REPRESENTATION_CONTEXT(3)
GLOBAL_UNCERTAINTY_ASSIGNED_CONTEXT((#1234))
GLOBAL_UNIT_ASSIGNED_CONTEXT((#1237,#1238,#1239))
REPRESENTATION_CONTEXT('','3D')
);
#1237=(
LENGTH_UNIT()
NAMED_UNIT(*)
SI_UNIT(.MILLI.,.METRE.)
);
#1238=(
NAMED_UNIT(*)
PLANE_ANGLE_UNIT()
SI_UNIT($,.RADIAN.)
);
#1239=(
NAMED_UNIT(*)
SI_UNIT($,.STERADIAN.)
SOLID_ANGLE_UNIT()
);
#1240=SHAPE_DEFINITION_REPRESENTATION(#1241,#1242);
#1241=PRODUCT_DEFINITION_SHAPE('',$,#1244);
#1242=SHAPE_REPRESENTATION('',(#643),#1235);
#1243=PRODUCT_DEFINITION_CONTEXT('part definition',#1248,'design');
#1244=PRODUCT_DEFINITION('yousnoozeyousolve 1','yousnoozeyousolve v3',#1245,
#1243);
#1245=PRODUCT_DEFINITION_FORMATION('',$,#1250);
#1246=PRODUCT_RELATED_PRODUCT_CATEGORY('yousnoozeyousolve v3',
'yousnoozeyousolve v3',(#1250));
#1247=APPLICATION_PROTOCOL_DEFINITION('international standard',
'automotive_design',2009,#1248);
#1248=APPLICATION_CONTEXT(
'Core Data for Automotive Mechanical Design Process');
#1249=PRODUCT_CONTEXT('part definition',#1248,'mechanical');
#1250=PRODUCT('yousnoozeyousolve 1','yousnoozeyousolve v3',
'KiCad electronic assembly',(#1249));
#1251=PRESENTATION_STYLE_ASSIGNMENT((#1252));
#1252=SURFACE_STYLE_USAGE(.BOTH.,#1253);
#1253=SURFACE_SIDE_STYLE('',(#1254));
#1254=SURFACE_STYLE_FILL_AREA(#1255);
#1255=FILL_AREA_STYLE('Steel - Satin',(#1256));
#1256=FILL_AREA_STYLE_COLOUR('Steel - Satin',#1257);
#1257=COLOUR_RGB('Steel - Satin',0.627450980392157,0.627450980392157,0.627450980392157);
ENDSEC;
END-ISO-10303-21;
