ISO-10303-21;
HEADER;
/* Generated by software containing ST-Developer
 * from STEP Tools, Inc. (www.steptools.com) 
 */

FILE_DESCRIPTION(
/* description */ ('KiCad electronic assembly'),
/* implementation_level */ '2;1');

FILE_NAME(
/* name */ 'yousnoozeyousolveMIDDLECASE.step',
/* time_stamp */ '2026-09-12T08:41:39+08:00',
/* author */ (''),
/* organization */ (''),
/* preprocessor_version */ 'ST-DEVELOPER v20.2',
/* originating_system */ 'Autodesk Translation Framework v15.15.0.0',
/* authorisation */ '');

FILE_SCHEMA (('AUTOMOTIVE_DESIGN { 1 0 10303 214 3 1 1 }'));
ENDSEC;

DATA;
#10=MECHANICAL_DESIGN_GEOMETRIC_PRESENTATION_REPRESENTATION('',(#13),#1530);
#11=SHAPE_REPRESENTATION_RELATIONSHIP('SRR','None',#1536,#12);
#12=ADVANCED_BREP_SHAPE_REPRESENTATION('',(#14),#1529);
#13=STYLED_ITEM('',(#1545),#14);
#14=MANIFOLD_SOLID_BREP('Body6',#928);
#15=ELLIPSE('',#949,7.07106781186548,5.);
#16=ELLIPSE('',#952,7.07106781186548,5.);
#17=B_SPLINE_CURVE_WITH_KNOTS('',3,(#1298,#1299,#1300,#1301,#1302,#1303),
 .UNSPECIFIED.,.F.,.F.,(4,2,4),(0.413355790192524,0.476868022359674,0.543036625531618),
 .UNSPECIFIED.);
#18=B_SPLINE_CURVE_WITH_KNOTS('',3,(#1305,#1306,#1307,#1308,#1309,#1310),
 .UNSPECIFIED.,.F.,.F.,(4,2,4),(0.543036625531618,0.609205228703563,0.672717460870708),
 .UNSPECIFIED.);
#19=B_SPLINE_CURVE_WITH_KNOTS('',3,(#1320,#1321,#1322,#1323,#1324,#1325,
#1326,#1327,#1328,#1329,#1330,#1331,#1332,#1333),.UNSPECIFIED.,.F.,.F.,
(4,2,2,2,2,2,4),(0.340605492905856,0.402793043227179,0.469139324242543,
0.535485605257907,0.601831886273271,0.668178167288635,0.730365717609958),
 .UNSPECIFIED.);
#20=B_SPLINE_CURVE_WITH_KNOTS('',3,(#1342,#1343,#1344,#1345,#1346,#1347),
 .UNSPECIFIED.,.F.,.F.,(4,2,4),(0.514072950533508,0.553611604435886,0.593150258338258),
 .UNSPECIFIED.);
#21=FACE_BOUND('',#124,.T.);
#22=FACE_BOUND('',#125,.T.);
#23=FACE_BOUND('',#126,.T.);
#24=FACE_BOUND('',#127,.T.);
#25=FACE_BOUND('',#128,.T.);
#26=FACE_BOUND('',#135,.T.);
#27=FACE_BOUND('',#144,.T.);
#28=FACE_BOUND('',#153,.T.);
#29=FACE_BOUND('',#156,.T.);
#30=FACE_BOUND('',#158,.T.);
#31=FACE_BOUND('',#167,.T.);
#32=FACE_BOUND('',#170,.T.);
#33=FACE_BOUND('',#171,.T.);
#34=PLANE('',#933);
#35=PLANE('',#937);
#36=PLANE('',#941);
#37=PLANE('',#945);
#38=PLANE('',#946);
#39=PLANE('',#947);
#40=PLANE('',#959);
#41=PLANE('',#962);
#42=PLANE('',#963);
#43=PLANE('',#970);
#44=PLANE('',#971);
#45=PLANE('',#972);
#46=PLANE('',#973);
#47=PLANE('',#974);
#48=PLANE('',#975);
#49=PLANE('',#976);
#50=PLANE('',#977);
#51=PLANE('',#978);
#52=PLANE('',#979);
#53=PLANE('',#980);
#54=PLANE('',#981);
#55=PLANE('',#982);
#56=PLANE('',#983);
#57=PLANE('',#984);
#58=PLANE('',#985);
#59=PLANE('',#986);
#60=PLANE('',#987);
#61=PLANE('',#988);
#62=PLANE('',#989);
#63=PLANE('',#990);
#64=PLANE('',#991);
#65=PLANE('',#992);
#66=PLANE('',#993);
#67=PLANE('',#994);
#68=PLANE('',#997);
#69=FACE_OUTER_BOUND('',#115,.T.);
#70=FACE_OUTER_BOUND('',#116,.T.);
#71=FACE_OUTER_BOUND('',#117,.T.);
#72=FACE_OUTER_BOUND('',#118,.T.);
#73=FACE_OUTER_BOUND('',#119,.T.);
#74=FACE_OUTER_BOUND('',#120,.T.);
#75=FACE_OUTER_BOUND('',#121,.T.);
#76=FACE_OUTER_BOUND('',#122,.T.);
#77=FACE_OUTER_BOUND('',#123,.T.);
#78=FACE_OUTER_BOUND('',#129,.T.);
#79=FACE_OUTER_BOUND('',#130,.T.);
#80=FACE_OUTER_BOUND('',#131,.T.);
#81=FACE_OUTER_BOUND('',#132,.T.);
#82=FACE_OUTER_BOUND('',#133,.T.);
#83=FACE_OUTER_BOUND('',#134,.T.);
#84=FACE_OUTER_BOUND('',#136,.T.);
#85=FACE_OUTER_BOUND('',#137,.T.);
#86=FACE_OUTER_BOUND('',#138,.T.);
#87=FACE_OUTER_BOUND('',#139,.T.);
#88=FACE_OUTER_BOUND('',#140,.T.);
#89=FACE_OUTER_BOUND('',#141,.T.);
#90=FACE_OUTER_BOUND('',#142,.T.);
#91=FACE_OUTER_BOUND('',#143,.T.);
#92=FACE_OUTER_BOUND('',#145,.T.);
#93=FACE_OUTER_BOUND('',#146,.T.);
#94=FACE_OUTER_BOUND('',#147,.T.);
#95=FACE_OUTER_BOUND('',#148,.T.);
#96=FACE_OUTER_BOUND('',#149,.T.);
#97=FACE_OUTER_BOUND('',#150,.T.);
#98=FACE_OUTER_BOUND('',#151,.T.);
#99=FACE_OUTER_BOUND('',#152,.T.);
#100=FACE_OUTER_BOUND('',#154,.T.);
#101=FACE_OUTER_BOUND('',#155,.T.);
#102=FACE_OUTER_BOUND('',#157,.T.);
#103=FACE_OUTER_BOUND('',#159,.T.);
#104=FACE_OUTER_BOUND('',#160,.T.);
#105=FACE_OUTER_BOUND('',#161,.T.);
#106=FACE_OUTER_BOUND('',#162,.T.);
#107=FACE_OUTER_BOUND('',#163,.T.);
#108=FACE_OUTER_BOUND('',#164,.T.);
#109=FACE_OUTER_BOUND('',#165,.T.);
#110=FACE_OUTER_BOUND('',#166,.T.);
#111=FACE_OUTER_BOUND('',#168,.T.);
#112=FACE_OUTER_BOUND('',#169,.T.);
#113=FACE_OUTER_BOUND('',#172,.T.);
#114=FACE_OUTER_BOUND('',#173,.T.);
#115=EDGE_LOOP('',(#613,#614,#615,#616));
#116=EDGE_LOOP('',(#617));
#117=EDGE_LOOP('',(#618,#619,#620,#621));
#118=EDGE_LOOP('',(#622));
#119=EDGE_LOOP('',(#623,#624,#625,#626));
#120=EDGE_LOOP('',(#627));
#121=EDGE_LOOP('',(#628,#629,#630,#631));
#122=EDGE_LOOP('',(#632));
#123=EDGE_LOOP('',(#633,#634,#635,#636));
#124=EDGE_LOOP('',(#637,#638,#639,#640));
#125=EDGE_LOOP('',(#641));
#126=EDGE_LOOP('',(#642));
#127=EDGE_LOOP('',(#643));
#128=EDGE_LOOP('',(#644));
#129=EDGE_LOOP('',(#645,#646,#647,#648,#649,#650));
#130=EDGE_LOOP('',(#651,#652,#653,#654,#655,#656,#657));
#131=EDGE_LOOP('',(#658,#659,#660,#661,#662,#663,#664,#665));
#132=EDGE_LOOP('',(#666,#667,#668,#669));
#133=EDGE_LOOP('',(#670,#671,#672,#673,#674,#675,#676,#677));
#134=EDGE_LOOP('',(#678,#679,#680,#681,#682,#683,#684,#685,#686,#687));
#135=EDGE_LOOP('',(#688,#689,#690,#691));
#136=EDGE_LOOP('',(#692,#693,#694,#695));
#137=EDGE_LOOP('',(#696,#697,#698,#699,#700,#701,#702,#703));
#138=EDGE_LOOP('',(#704,#705,#706,#707));
#139=EDGE_LOOP('',(#708,#709,#710,#711,#712,#713));
#140=EDGE_LOOP('',(#714,#715,#716,#717));
#141=EDGE_LOOP('',(#718,#719,#720,#721,#722,#723));
#142=EDGE_LOOP('',(#724,#725,#726,#727));
#143=EDGE_LOOP('',(#728,#729,#730,#731,#732,#733,#734,#735));
#144=EDGE_LOOP('',(#736));
#145=EDGE_LOOP('',(#737,#738,#739,#740));
#146=EDGE_LOOP('',(#741,#742,#743,#744));
#147=EDGE_LOOP('',(#745,#746,#747,#748));
#148=EDGE_LOOP('',(#749,#750,#751,#752));
#149=EDGE_LOOP('',(#753,#754,#755,#756));
#150=EDGE_LOOP('',(#757,#758,#759,#760));
#151=EDGE_LOOP('',(#761,#762,#763,#764));
#152=EDGE_LOOP('',(#765,#766,#767,#768,#769,#770,#771,#772));
#153=EDGE_LOOP('',(#773,#774,#775,#776));
#154=EDGE_LOOP('',(#777,#778,#779,#780));
#155=EDGE_LOOP('',(#781,#782,#783,#784,#785,#786,#787,#788));
#156=EDGE_LOOP('',(#789));
#157=EDGE_LOOP('',(#790,#791,#792,#793,#794,#795,#796,#797));
#158=EDGE_LOOP('',(#798,#799,#800,#801));
#159=EDGE_LOOP('',(#802,#803,#804,#805));
#160=EDGE_LOOP('',(#806,#807,#808));
#161=EDGE_LOOP('',(#809,#810,#811,#812));
#162=EDGE_LOOP('',(#813,#814,#815,#816));
#163=EDGE_LOOP('',(#817,#818,#819,#820));
#164=EDGE_LOOP('',(#821,#822,#823,#824));
#165=EDGE_LOOP('',(#825,#826,#827,#828));
#166=EDGE_LOOP('',(#829,#830,#831,#832));
#167=EDGE_LOOP('',(#833,#834,#835,#836));
#168=EDGE_LOOP('',(#837,#838,#839,#840,#841,#842));
#169=EDGE_LOOP('',(#843,#844,#845,#846,#847,#848,#849,#850,#851,#852,#853,
#854,#855,#856,#857,#858,#859,#860,#861,#862));
#170=EDGE_LOOP('',(#863));
#171=EDGE_LOOP('',(#864));
#172=EDGE_LOOP('',(#865,#866,#867,#868));
#173=EDGE_LOOP('',(#869,#870));
#174=LINE('',#1244,#277);
#175=LINE('',#1251,#278);
#176=LINE('',#1258,#279);
#177=LINE('',#1265,#280);
#178=LINE('',#1271,#281);
#179=LINE('',#1273,#282);
#180=LINE('',#1275,#283);
#181=LINE('',#1276,#284);
#182=LINE('',#1279,#285);
#183=LINE('',#1281,#286);
#184=LINE('',#1283,#287);
#185=LINE('',#1284,#288);
#186=LINE('',#1287,#289);
#187=LINE('',#1289,#290);
#188=LINE('',#1291,#291);
#189=LINE('',#1293,#292);
#190=LINE('',#1294,#293);
#191=LINE('',#1312,#294);
#192=LINE('',#1316,#295);
#193=LINE('',#1335,#296);
#194=LINE('',#1338,#297);
#195=LINE('',#1340,#298);
#196=LINE('',#1348,#299);
#197=LINE('',#1351,#300);
#198=LINE('',#1354,#301);
#199=LINE('',#1359,#302);
#200=LINE('',#1363,#303);
#201=LINE('',#1365,#304);
#202=LINE('',#1366,#305);
#203=LINE('',#1372,#306);
#204=LINE('',#1374,#307);
#205=LINE('',#1376,#308);
#206=LINE('',#1377,#309);
#207=LINE('',#1380,#310);
#208=LINE('',#1381,#311);
#209=LINE('',#1386,#312);
#210=LINE('',#1387,#313);
#211=LINE('',#1389,#314);
#212=LINE('',#1390,#315);
#213=LINE('',#1395,#316);
#214=LINE('',#1399,#317);
#215=LINE('',#1404,#318);
#216=LINE('',#1406,#319);
#217=LINE('',#1408,#320);
#218=LINE('',#1409,#321);
#219=LINE('',#1412,#322);
#220=LINE('',#1414,#323);
#221=LINE('',#1415,#324);
#222=LINE('',#1417,#325);
#223=LINE('',#1418,#326);
#224=LINE('',#1422,#327);
#225=LINE('',#1423,#328);
#226=LINE('',#1424,#329);
#227=LINE('',#1427,#330);
#228=LINE('',#1429,#331);
#229=LINE('',#1431,#332);
#230=LINE('',#1433,#333);
#231=LINE('',#1434,#334);
#232=LINE('',#1438,#335);
#233=LINE('',#1439,#336);
#234=LINE('',#1440,#337);
#235=LINE('',#1444,#338);
#236=LINE('',#1445,#339);
#237=LINE('',#1446,#340);
#238=LINE('',#1448,#341);
#239=LINE('',#1452,#342);
#240=LINE('',#1454,#343);
#241=LINE('',#1456,#344);
#242=LINE('',#1457,#345);
#243=LINE('',#1460,#346);
#244=LINE('',#1462,#347);
#245=LINE('',#1463,#348);
#246=LINE('',#1466,#349);
#247=LINE('',#1468,#350);
#248=LINE('',#1469,#351);
#249=LINE('',#1471,#352);
#250=LINE('',#1472,#353);
#251=LINE('',#1476,#354);
#252=LINE('',#1478,#355);
#253=LINE('',#1479,#356);
#254=LINE('',#1480,#357);
#255=LINE('',#1481,#358);
#256=LINE('',#1484,#359);
#257=LINE('',#1485,#360);
#258=LINE('',#1487,#361);
#259=LINE('',#1488,#362);
#260=LINE('',#1490,#363);
#261=LINE('',#1492,#364);
#262=LINE('',#1496,#365);
#263=LINE('',#1498,#366);
#264=LINE('',#1499,#367);
#265=LINE('',#1502,#368);
#266=LINE('',#1503,#369);
#267=LINE('',#1506,#370);
#268=LINE('',#1507,#371);
#269=LINE('',#1509,#372);
#270=LINE('',#1512,#373);
#271=LINE('',#1513,#374);
#272=LINE('',#1515,#375);
#273=LINE('',#1517,#376);
#274=LINE('',#1520,#377);
#275=LINE('',#1522,#378);
#276=LINE('',#1523,#379);
#277=VECTOR('',#1004,0.874999999999995);
#278=VECTOR('',#1013,0.874999999999999);
#279=VECTOR('',#1022,0.875000000000004);
#280=VECTOR('',#1031,0.874999999999999);
#281=VECTOR('',#1038,10.);
#282=VECTOR('',#1039,10.);
#283=VECTOR('',#1040,10.);
#284=VECTOR('',#1041,10.);
#285=VECTOR('',#1042,10.);
#286=VECTOR('',#1043,10.);
#287=VECTOR('',#1044,10.);
#288=VECTOR('',#1045,10.);
#289=VECTOR('',#1048,10.);
#290=VECTOR('',#1049,10.);
#291=VECTOR('',#1050,10.);
#292=VECTOR('',#1051,10.);
#293=VECTOR('',#1052,10.);
#294=VECTOR('',#1055,10.);
#295=VECTOR('',#1060,10.);
#296=VECTOR('',#1063,10.);
#297=VECTOR('',#1066,10.);
#298=VECTOR('',#1067,10.);
#299=VECTOR('',#1068,10.);
#300=VECTOR('',#1071,10.);
#301=VECTOR('',#1074,10.);
#302=VECTOR('',#1081,1.75000000000001);
#303=VECTOR('',#1086,10.);
#304=VECTOR('',#1087,10.);
#305=VECTOR('',#1088,10.);
#306=VECTOR('',#1093,10.);
#307=VECTOR('',#1094,10.);
#308=VECTOR('',#1095,10.);
#309=VECTOR('',#1096,10.);
#310=VECTOR('',#1099,10.);
#311=VECTOR('',#1100,10.);
#312=VECTOR('',#1105,10.);
#313=VECTOR('',#1106,10.);
#314=VECTOR('',#1107,10.);
#315=VECTOR('',#1108,10.);
#316=VECTOR('',#1113,8.00000000000001);
#317=VECTOR('',#1118,1.75);
#318=VECTOR('',#1123,10.);
#319=VECTOR('',#1124,10.);
#320=VECTOR('',#1125,10.);
#321=VECTOR('',#1126,10.);
#322=VECTOR('',#1129,10.);
#323=VECTOR('',#1130,10.);
#324=VECTOR('',#1131,10.);
#325=VECTOR('',#1132,10.);
#326=VECTOR('',#1133,10.);
#327=VECTOR('',#1136,10.);
#328=VECTOR('',#1137,10.);
#329=VECTOR('',#1138,10.);
#330=VECTOR('',#1141,10.);
#331=VECTOR('',#1142,10.);
#332=VECTOR('',#1143,10.);
#333=VECTOR('',#1144,10.);
#334=VECTOR('',#1145,10.);
#335=VECTOR('',#1148,10.);
#336=VECTOR('',#1149,10.);
#337=VECTOR('',#1150,10.);
#338=VECTOR('',#1153,10.);
#339=VECTOR('',#1154,10.);
#340=VECTOR('',#1155,10.);
#341=VECTOR('',#1158,10.);
#342=VECTOR('',#1161,10.);
#343=VECTOR('',#1162,10.);
#344=VECTOR('',#1163,10.);
#345=VECTOR('',#1164,10.);
#346=VECTOR('',#1167,10.);
#347=VECTOR('',#1168,10.);
#348=VECTOR('',#1169,10.);
#349=VECTOR('',#1172,10.);
#350=VECTOR('',#1173,10.);
#351=VECTOR('',#1174,10.);
#352=VECTOR('',#1177,10.);
#353=VECTOR('',#1178,10.);
#354=VECTOR('',#1181,10.);
#355=VECTOR('',#1182,10.);
#356=VECTOR('',#1183,10.);
#357=VECTOR('',#1184,10.);
#358=VECTOR('',#1185,10.);
#359=VECTOR('',#1188,10.);
#360=VECTOR('',#1189,10.);
#361=VECTOR('',#1192,10.);
#362=VECTOR('',#1193,10.);
#363=VECTOR('',#1196,10.);
#364=VECTOR('',#1199,10.);
#365=VECTOR('',#1204,10.);
#366=VECTOR('',#1205,10.);
#367=VECTOR('',#1206,10.);
#368=VECTOR('',#1209,10.);
#369=VECTOR('',#1210,10.);
#370=VECTOR('',#1213,10.);
#371=VECTOR('',#1214,10.);
#372=VECTOR('',#1217,10.);
#373=VECTOR('',#1220,10.);
#374=VECTOR('',#1221,10.);
#375=VECTOR('',#1224,10.);
#376=VECTOR('',#1227,10.);
#377=VECTOR('',#1230,10.);
#378=VECTOR('',#1231,10.);
#379=VECTOR('',#1232,10.);
#380=CIRCLE('',#931,0.874999999999995);
#381=CIRCLE('',#932,0.874999999999995);
#382=CIRCLE('',#935,0.874999999999999);
#383=CIRCLE('',#936,0.874999999999999);
#384=CIRCLE('',#939,0.875000000000004);
#385=CIRCLE('',#940,0.875000000000004);
#386=CIRCLE('',#943,0.874999999999999);
#387=CIRCLE('',#944,0.874999999999999);
#388=CIRCLE('',#950,5.);
#389=CIRCLE('',#954,5.);
#390=CIRCLE('',#956,1.75000000000001);
#391=CIRCLE('',#957,1.75000000000001);
#392=CIRCLE('',#958,1.75000000000001);
#393=CIRCLE('',#960,1.75);
#394=CIRCLE('',#961,1.75);
#395=CIRCLE('',#964,15.);
#396=CIRCLE('',#966,8.00000000000001);
#397=CIRCLE('',#967,8.00000000000001);
#398=CIRCLE('',#969,1.75);
#399=CIRCLE('',#996,15.);
#400=VERTEX_POINT('',#1241);
#401=VERTEX_POINT('',#1243);
#402=VERTEX_POINT('',#1248);
#403=VERTEX_POINT('',#1250);
#404=VERTEX_POINT('',#1255);
#405=VERTEX_POINT('',#1257);
#406=VERTEX_POINT('',#1262);
#407=VERTEX_POINT('',#1264);
#408=VERTEX_POINT('',#1269);
#409=VERTEX_POINT('',#1270);
#410=VERTEX_POINT('',#1272);
#411=VERTEX_POINT('',#1274);
#412=VERTEX_POINT('',#1277);
#413=VERTEX_POINT('',#1278);
#414=VERTEX_POINT('',#1280);
#415=VERTEX_POINT('',#1282);
#416=VERTEX_POINT('',#1286);
#417=VERTEX_POINT('',#1288);
#418=VERTEX_POINT('',#1290);
#419=VERTEX_POINT('',#1292);
#420=VERTEX_POINT('',#1296);
#421=VERTEX_POINT('',#1297);
#422=VERTEX_POINT('',#1304);
#423=VERTEX_POINT('',#1311);
#424=VERTEX_POINT('',#1314);
#425=VERTEX_POINT('',#1318);
#426=VERTEX_POINT('',#1319);
#427=VERTEX_POINT('',#1334);
#428=VERTEX_POINT('',#1336);
#429=VERTEX_POINT('',#1339);
#430=VERTEX_POINT('',#1341);
#431=VERTEX_POINT('',#1350);
#432=VERTEX_POINT('',#1352);
#433=VERTEX_POINT('',#1358);
#434=VERTEX_POINT('',#1362);
#435=VERTEX_POINT('',#1364);
#436=VERTEX_POINT('',#1367);
#437=VERTEX_POINT('',#1370);
#438=VERTEX_POINT('',#1371);
#439=VERTEX_POINT('',#1373);
#440=VERTEX_POINT('',#1375);
#441=VERTEX_POINT('',#1379);
#442=VERTEX_POINT('',#1383);
#443=VERTEX_POINT('',#1384);
#444=VERTEX_POINT('',#1388);
#445=VERTEX_POINT('',#1392);
#446=VERTEX_POINT('',#1394);
#447=VERTEX_POINT('',#1398);
#448=VERTEX_POINT('',#1402);
#449=VERTEX_POINT('',#1403);
#450=VERTEX_POINT('',#1405);
#451=VERTEX_POINT('',#1407);
#452=VERTEX_POINT('',#1411);
#453=VERTEX_POINT('',#1413);
#454=VERTEX_POINT('',#1416);
#455=VERTEX_POINT('',#1420);
#456=VERTEX_POINT('',#1421);
#457=VERTEX_POINT('',#1426);
#458=VERTEX_POINT('',#1428);
#459=VERTEX_POINT('',#1430);
#460=VERTEX_POINT('',#1432);
#461=VERTEX_POINT('',#1436);
#462=VERTEX_POINT('',#1437);
#463=VERTEX_POINT('',#1442);
#464=VERTEX_POINT('',#1443);
#465=VERTEX_POINT('',#1450);
#466=VERTEX_POINT('',#1451);
#467=VERTEX_POINT('',#1453);
#468=VERTEX_POINT('',#1455);
#469=VERTEX_POINT('',#1459);
#470=VERTEX_POINT('',#1461);
#471=VERTEX_POINT('',#1465);
#472=VERTEX_POINT('',#1467);
#473=VERTEX_POINT('',#1474);
#474=VERTEX_POINT('',#1475);
#475=VERTEX_POINT('',#1477);
#476=VERTEX_POINT('',#1483);
#477=VERTEX_POINT('',#1495);
#478=VERTEX_POINT('',#1497);
#479=VERTEX_POINT('',#1501);
#480=VERTEX_POINT('',#1505);
#481=VERTEX_POINT('',#1511);
#482=VERTEX_POINT('',#1519);
#483=VERTEX_POINT('',#1521);
#484=EDGE_CURVE('',#400,#400,#380,.T.);
#485=EDGE_CURVE('',#400,#401,#174,.T.);
#486=EDGE_CURVE('',#401,#401,#381,.T.);
#487=EDGE_CURVE('',#402,#402,#382,.T.);
#488=EDGE_CURVE('',#402,#403,#175,.T.);
#489=EDGE_CURVE('',#403,#403,#383,.T.);
#490=EDGE_CURVE('',#404,#404,#384,.T.);
#491=EDGE_CURVE('',#404,#405,#176,.T.);
#492=EDGE_CURVE('',#405,#405,#385,.T.);
#493=EDGE_CURVE('',#406,#406,#386,.T.);
#494=EDGE_CURVE('',#406,#407,#177,.T.);
#495=EDGE_CURVE('',#407,#407,#387,.T.);
#496=EDGE_CURVE('',#408,#409,#178,.T.);
#497=EDGE_CURVE('',#408,#410,#179,.T.);
#498=EDGE_CURVE('',#411,#410,#180,.T.);
#499=EDGE_CURVE('',#411,#409,#181,.T.);
#500=EDGE_CURVE('',#412,#413,#182,.T.);
#501=EDGE_CURVE('',#414,#412,#183,.T.);
#502=EDGE_CURVE('',#415,#414,#184,.T.);
#503=EDGE_CURVE('',#413,#415,#185,.T.);
#504=EDGE_CURVE('',#416,#410,#186,.T.);
#505=EDGE_CURVE('',#417,#416,#187,.T.);
#506=EDGE_CURVE('',#418,#417,#188,.T.);
#507=EDGE_CURVE('',#418,#419,#189,.T.);
#508=EDGE_CURVE('',#419,#411,#190,.T.);
#509=EDGE_CURVE('',#420,#421,#17,.T.);
#510=EDGE_CURVE('',#421,#422,#18,.T.);
#511=EDGE_CURVE('',#422,#423,#191,.T.);
#512=EDGE_CURVE('',#423,#417,#15,.T.);
#513=EDGE_CURVE('',#416,#424,#388,.F.);
#514=EDGE_CURVE('',#424,#420,#192,.T.);
#515=EDGE_CURVE('',#425,#426,#19,.T.);
#516=EDGE_CURVE('',#426,#427,#193,.T.);
#517=EDGE_CURVE('',#427,#428,#16,.T.);
#518=EDGE_CURVE('',#428,#417,#194,.T.);
#519=EDGE_CURVE('',#423,#429,#195,.T.);
#520=EDGE_CURVE('',#429,#430,#20,.T.);
#521=EDGE_CURVE('',#430,#425,#196,.T.);
#522=EDGE_CURVE('',#427,#431,#197,.T.);
#523=EDGE_CURVE('',#431,#432,#389,.F.);
#524=EDGE_CURVE('',#432,#428,#198,.T.);
#525=EDGE_CURVE('',#430,#420,#390,.T.);
#526=EDGE_CURVE('',#422,#429,#391,.T.);
#527=EDGE_CURVE('',#421,#433,#199,.T.);
#528=EDGE_CURVE('',#433,#433,#392,.T.);
#529=EDGE_CURVE('',#424,#434,#200,.T.);
#530=EDGE_CURVE('',#434,#435,#201,.T.);
#531=EDGE_CURVE('',#435,#431,#202,.T.);
#532=EDGE_CURVE('',#426,#436,#393,.T.);
#533=EDGE_CURVE('',#436,#425,#394,.T.);
#534=EDGE_CURVE('',#437,#438,#203,.T.);
#535=EDGE_CURVE('',#438,#439,#204,.T.);
#536=EDGE_CURVE('',#439,#440,#205,.T.);
#537=EDGE_CURVE('',#440,#437,#206,.T.);
#538=EDGE_CURVE('',#441,#428,#207,.T.);
#539=EDGE_CURVE('',#441,#418,#208,.T.);
#540=EDGE_CURVE('',#442,#443,#395,.T.);
#541=EDGE_CURVE('',#442,#441,#209,.T.);
#542=EDGE_CURVE('',#432,#408,#210,.T.);
#543=EDGE_CURVE('',#444,#409,#211,.T.);
#544=EDGE_CURVE('',#444,#443,#212,.T.);
#545=EDGE_CURVE('',#445,#445,#396,.T.);
#546=EDGE_CURVE('',#445,#446,#213,.T.);
#547=EDGE_CURVE('',#446,#446,#397,.T.);
#548=EDGE_CURVE('',#436,#447,#214,.T.);
#549=EDGE_CURVE('',#447,#447,#398,.T.);
#550=EDGE_CURVE('',#448,#449,#215,.T.);
#551=EDGE_CURVE('',#449,#450,#216,.T.);
#552=EDGE_CURVE('',#450,#451,#217,.T.);
#553=EDGE_CURVE('',#448,#451,#218,.T.);
#554=EDGE_CURVE('',#449,#452,#219,.T.);
#555=EDGE_CURVE('',#452,#453,#220,.T.);
#556=EDGE_CURVE('',#435,#453,#221,.T.);
#557=EDGE_CURVE('',#435,#454,#222,.T.);
#558=EDGE_CURVE('',#454,#450,#223,.T.);
#559=EDGE_CURVE('',#455,#456,#224,.T.);
#560=EDGE_CURVE('',#412,#456,#225,.T.);
#561=EDGE_CURVE('',#413,#455,#226,.T.);
#562=EDGE_CURVE('',#419,#457,#227,.T.);
#563=EDGE_CURVE('',#457,#458,#228,.T.);
#564=EDGE_CURVE('',#458,#459,#229,.T.);
#565=EDGE_CURVE('',#459,#460,#230,.T.);
#566=EDGE_CURVE('',#460,#444,#231,.T.);
#567=EDGE_CURVE('',#461,#462,#232,.T.);
#568=EDGE_CURVE('',#458,#461,#233,.T.);
#569=EDGE_CURVE('',#457,#462,#234,.T.);
#570=EDGE_CURVE('',#463,#464,#235,.T.);
#571=EDGE_CURVE('',#460,#463,#236,.T.);
#572=EDGE_CURVE('',#459,#464,#237,.T.);
#573=EDGE_CURVE('',#464,#461,#238,.T.);
#574=EDGE_CURVE('',#465,#466,#239,.T.);
#575=EDGE_CURVE('',#467,#465,#240,.T.);
#576=EDGE_CURVE('',#468,#467,#241,.T.);
#577=EDGE_CURVE('',#468,#466,#242,.T.);
#578=EDGE_CURVE('',#466,#469,#243,.T.);
#579=EDGE_CURVE('',#470,#468,#244,.T.);
#580=EDGE_CURVE('',#470,#469,#245,.T.);
#581=EDGE_CURVE('',#469,#471,#246,.T.);
#582=EDGE_CURVE('',#472,#470,#247,.T.);
#583=EDGE_CURVE('',#472,#471,#248,.T.);
#584=EDGE_CURVE('',#471,#465,#249,.T.);
#585=EDGE_CURVE('',#467,#472,#250,.T.);
#586=EDGE_CURVE('',#473,#474,#251,.T.);
#587=EDGE_CURVE('',#475,#474,#252,.T.);
#588=EDGE_CURVE('',#453,#475,#253,.T.);
#589=EDGE_CURVE('',#452,#455,#254,.T.);
#590=EDGE_CURVE('',#415,#473,#255,.T.);
#591=EDGE_CURVE('',#476,#473,#256,.T.);
#592=EDGE_CURVE('',#414,#476,#257,.T.);
#593=EDGE_CURVE('',#462,#476,#258,.T.);
#594=EDGE_CURVE('',#456,#463,#259,.T.);
#595=EDGE_CURVE('',#434,#435,#260,.T.);
#596=EDGE_CURVE('',#475,#434,#261,.T.);
#597=EDGE_CURVE('',#438,#477,#262,.T.);
#598=EDGE_CURVE('',#478,#477,#263,.T.);
#599=EDGE_CURVE('',#439,#478,#264,.T.);
#600=EDGE_CURVE('',#479,#478,#265,.T.);
#601=EDGE_CURVE('',#440,#479,#266,.T.);
#602=EDGE_CURVE('',#480,#479,#267,.T.);
#603=EDGE_CURVE('',#437,#480,#268,.T.);
#604=EDGE_CURVE('',#477,#480,#269,.T.);
#605=EDGE_CURVE('',#481,#434,#270,.T.);
#606=EDGE_CURVE('',#454,#481,#271,.T.);
#607=EDGE_CURVE('',#451,#481,#272,.T.);
#608=EDGE_CURVE('',#474,#448,#273,.T.);
#609=EDGE_CURVE('',#442,#482,#274,.T.);
#610=EDGE_CURVE('',#483,#482,#275,.T.);
#611=EDGE_CURVE('',#443,#483,#276,.T.);
#612=EDGE_CURVE('',#482,#483,#399,.T.);
#613=ORIENTED_EDGE('',*,*,#484,.F.);
#614=ORIENTED_EDGE('',*,*,#485,.T.);
#615=ORIENTED_EDGE('',*,*,#486,.T.);
#616=ORIENTED_EDGE('',*,*,#485,.F.);
#617=ORIENTED_EDGE('',*,*,#486,.F.);
#618=ORIENTED_EDGE('',*,*,#487,.F.);
#619=ORIENTED_EDGE('',*,*,#488,.T.);
#620=ORIENTED_EDGE('',*,*,#489,.T.);
#621=ORIENTED_EDGE('',*,*,#488,.F.);
#622=ORIENTED_EDGE('',*,*,#489,.F.);
#623=ORIENTED_EDGE('',*,*,#490,.F.);
#624=ORIENTED_EDGE('',*,*,#491,.T.);
#625=ORIENTED_EDGE('',*,*,#492,.T.);
#626=ORIENTED_EDGE('',*,*,#491,.F.);
#627=ORIENTED_EDGE('',*,*,#492,.F.);
#628=ORIENTED_EDGE('',*,*,#493,.F.);
#629=ORIENTED_EDGE('',*,*,#494,.T.);
#630=ORIENTED_EDGE('',*,*,#495,.T.);
#631=ORIENTED_EDGE('',*,*,#494,.F.);
#632=ORIENTED_EDGE('',*,*,#495,.F.);
#633=ORIENTED_EDGE('',*,*,#496,.F.);
#634=ORIENTED_EDGE('',*,*,#497,.T.);
#635=ORIENTED_EDGE('',*,*,#498,.F.);
#636=ORIENTED_EDGE('',*,*,#499,.T.);
#637=ORIENTED_EDGE('',*,*,#500,.F.);
#638=ORIENTED_EDGE('',*,*,#501,.F.);
#639=ORIENTED_EDGE('',*,*,#502,.F.);
#640=ORIENTED_EDGE('',*,*,#503,.F.);
#641=ORIENTED_EDGE('',*,*,#493,.T.);
#642=ORIENTED_EDGE('',*,*,#490,.T.);
#643=ORIENTED_EDGE('',*,*,#487,.T.);
#644=ORIENTED_EDGE('',*,*,#484,.T.);
#645=ORIENTED_EDGE('',*,*,#498,.T.);
#646=ORIENTED_EDGE('',*,*,#504,.F.);
#647=ORIENTED_EDGE('',*,*,#505,.F.);
#648=ORIENTED_EDGE('',*,*,#506,.F.);
#649=ORIENTED_EDGE('',*,*,#507,.T.);
#650=ORIENTED_EDGE('',*,*,#508,.T.);
#651=ORIENTED_EDGE('',*,*,#509,.T.);
#652=ORIENTED_EDGE('',*,*,#510,.T.);
#653=ORIENTED_EDGE('',*,*,#511,.T.);
#654=ORIENTED_EDGE('',*,*,#512,.T.);
#655=ORIENTED_EDGE('',*,*,#505,.T.);
#656=ORIENTED_EDGE('',*,*,#513,.T.);
#657=ORIENTED_EDGE('',*,*,#514,.T.);
#658=ORIENTED_EDGE('',*,*,#515,.T.);
#659=ORIENTED_EDGE('',*,*,#516,.T.);
#660=ORIENTED_EDGE('',*,*,#517,.T.);
#661=ORIENTED_EDGE('',*,*,#518,.T.);
#662=ORIENTED_EDGE('',*,*,#512,.F.);
#663=ORIENTED_EDGE('',*,*,#519,.T.);
#664=ORIENTED_EDGE('',*,*,#520,.T.);
#665=ORIENTED_EDGE('',*,*,#521,.T.);
#666=ORIENTED_EDGE('',*,*,#522,.T.);
#667=ORIENTED_EDGE('',*,*,#523,.T.);
#668=ORIENTED_EDGE('',*,*,#524,.T.);
#669=ORIENTED_EDGE('',*,*,#517,.F.);
#670=ORIENTED_EDGE('',*,*,#509,.F.);
#671=ORIENTED_EDGE('',*,*,#525,.F.);
#672=ORIENTED_EDGE('',*,*,#520,.F.);
#673=ORIENTED_EDGE('',*,*,#526,.F.);
#674=ORIENTED_EDGE('',*,*,#510,.F.);
#675=ORIENTED_EDGE('',*,*,#527,.T.);
#676=ORIENTED_EDGE('',*,*,#528,.F.);
#677=ORIENTED_EDGE('',*,*,#527,.F.);
#678=ORIENTED_EDGE('',*,*,#514,.F.);
#679=ORIENTED_EDGE('',*,*,#529,.T.);
#680=ORIENTED_EDGE('',*,*,#530,.T.);
#681=ORIENTED_EDGE('',*,*,#531,.T.);
#682=ORIENTED_EDGE('',*,*,#522,.F.);
#683=ORIENTED_EDGE('',*,*,#516,.F.);
#684=ORIENTED_EDGE('',*,*,#532,.T.);
#685=ORIENTED_EDGE('',*,*,#533,.T.);
#686=ORIENTED_EDGE('',*,*,#521,.F.);
#687=ORIENTED_EDGE('',*,*,#525,.T.);
#688=ORIENTED_EDGE('',*,*,#534,.T.);
#689=ORIENTED_EDGE('',*,*,#535,.T.);
#690=ORIENTED_EDGE('',*,*,#536,.T.);
#691=ORIENTED_EDGE('',*,*,#537,.T.);
#692=ORIENTED_EDGE('',*,*,#518,.F.);
#693=ORIENTED_EDGE('',*,*,#538,.F.);
#694=ORIENTED_EDGE('',*,*,#539,.T.);
#695=ORIENTED_EDGE('',*,*,#506,.T.);
#696=ORIENTED_EDGE('',*,*,#540,.F.);
#697=ORIENTED_EDGE('',*,*,#541,.T.);
#698=ORIENTED_EDGE('',*,*,#538,.T.);
#699=ORIENTED_EDGE('',*,*,#524,.F.);
#700=ORIENTED_EDGE('',*,*,#542,.T.);
#701=ORIENTED_EDGE('',*,*,#496,.T.);
#702=ORIENTED_EDGE('',*,*,#543,.F.);
#703=ORIENTED_EDGE('',*,*,#544,.T.);
#704=ORIENTED_EDGE('',*,*,#545,.F.);
#705=ORIENTED_EDGE('',*,*,#546,.T.);
#706=ORIENTED_EDGE('',*,*,#547,.F.);
#707=ORIENTED_EDGE('',*,*,#546,.F.);
#708=ORIENTED_EDGE('',*,*,#515,.F.);
#709=ORIENTED_EDGE('',*,*,#533,.F.);
#710=ORIENTED_EDGE('',*,*,#548,.T.);
#711=ORIENTED_EDGE('',*,*,#549,.F.);
#712=ORIENTED_EDGE('',*,*,#548,.F.);
#713=ORIENTED_EDGE('',*,*,#532,.F.);
#714=ORIENTED_EDGE('',*,*,#550,.T.);
#715=ORIENTED_EDGE('',*,*,#551,.T.);
#716=ORIENTED_EDGE('',*,*,#552,.T.);
#717=ORIENTED_EDGE('',*,*,#553,.F.);
#718=ORIENTED_EDGE('',*,*,#554,.T.);
#719=ORIENTED_EDGE('',*,*,#555,.T.);
#720=ORIENTED_EDGE('',*,*,#556,.F.);
#721=ORIENTED_EDGE('',*,*,#557,.T.);
#722=ORIENTED_EDGE('',*,*,#558,.T.);
#723=ORIENTED_EDGE('',*,*,#551,.F.);
#724=ORIENTED_EDGE('',*,*,#559,.T.);
#725=ORIENTED_EDGE('',*,*,#560,.F.);
#726=ORIENTED_EDGE('',*,*,#500,.T.);
#727=ORIENTED_EDGE('',*,*,#561,.T.);
#728=ORIENTED_EDGE('',*,*,#499,.F.);
#729=ORIENTED_EDGE('',*,*,#508,.F.);
#730=ORIENTED_EDGE('',*,*,#562,.T.);
#731=ORIENTED_EDGE('',*,*,#563,.T.);
#732=ORIENTED_EDGE('',*,*,#564,.T.);
#733=ORIENTED_EDGE('',*,*,#565,.T.);
#734=ORIENTED_EDGE('',*,*,#566,.T.);
#735=ORIENTED_EDGE('',*,*,#543,.T.);
#736=ORIENTED_EDGE('',*,*,#545,.T.);
#737=ORIENTED_EDGE('',*,*,#567,.F.);
#738=ORIENTED_EDGE('',*,*,#568,.F.);
#739=ORIENTED_EDGE('',*,*,#563,.F.);
#740=ORIENTED_EDGE('',*,*,#569,.T.);
#741=ORIENTED_EDGE('',*,*,#570,.F.);
#742=ORIENTED_EDGE('',*,*,#571,.F.);
#743=ORIENTED_EDGE('',*,*,#565,.F.);
#744=ORIENTED_EDGE('',*,*,#572,.T.);
#745=ORIENTED_EDGE('',*,*,#573,.F.);
#746=ORIENTED_EDGE('',*,*,#572,.F.);
#747=ORIENTED_EDGE('',*,*,#564,.F.);
#748=ORIENTED_EDGE('',*,*,#568,.T.);
#749=ORIENTED_EDGE('',*,*,#574,.F.);
#750=ORIENTED_EDGE('',*,*,#575,.F.);
#751=ORIENTED_EDGE('',*,*,#576,.F.);
#752=ORIENTED_EDGE('',*,*,#577,.T.);
#753=ORIENTED_EDGE('',*,*,#578,.F.);
#754=ORIENTED_EDGE('',*,*,#577,.F.);
#755=ORIENTED_EDGE('',*,*,#579,.F.);
#756=ORIENTED_EDGE('',*,*,#580,.T.);
#757=ORIENTED_EDGE('',*,*,#581,.F.);
#758=ORIENTED_EDGE('',*,*,#580,.F.);
#759=ORIENTED_EDGE('',*,*,#582,.F.);
#760=ORIENTED_EDGE('',*,*,#583,.T.);
#761=ORIENTED_EDGE('',*,*,#584,.F.);
#762=ORIENTED_EDGE('',*,*,#583,.F.);
#763=ORIENTED_EDGE('',*,*,#585,.F.);
#764=ORIENTED_EDGE('',*,*,#575,.T.);
#765=ORIENTED_EDGE('',*,*,#586,.T.);
#766=ORIENTED_EDGE('',*,*,#587,.F.);
#767=ORIENTED_EDGE('',*,*,#588,.F.);
#768=ORIENTED_EDGE('',*,*,#555,.F.);
#769=ORIENTED_EDGE('',*,*,#589,.T.);
#770=ORIENTED_EDGE('',*,*,#561,.F.);
#771=ORIENTED_EDGE('',*,*,#503,.T.);
#772=ORIENTED_EDGE('',*,*,#590,.T.);
#773=ORIENTED_EDGE('',*,*,#581,.T.);
#774=ORIENTED_EDGE('',*,*,#584,.T.);
#775=ORIENTED_EDGE('',*,*,#574,.T.);
#776=ORIENTED_EDGE('',*,*,#578,.T.);
#777=ORIENTED_EDGE('',*,*,#591,.T.);
#778=ORIENTED_EDGE('',*,*,#590,.F.);
#779=ORIENTED_EDGE('',*,*,#502,.T.);
#780=ORIENTED_EDGE('',*,*,#592,.T.);
#781=ORIENTED_EDGE('',*,*,#593,.T.);
#782=ORIENTED_EDGE('',*,*,#592,.F.);
#783=ORIENTED_EDGE('',*,*,#501,.T.);
#784=ORIENTED_EDGE('',*,*,#560,.T.);
#785=ORIENTED_EDGE('',*,*,#594,.T.);
#786=ORIENTED_EDGE('',*,*,#570,.T.);
#787=ORIENTED_EDGE('',*,*,#573,.T.);
#788=ORIENTED_EDGE('',*,*,#567,.T.);
#789=ORIENTED_EDGE('',*,*,#547,.T.);
#790=ORIENTED_EDGE('',*,*,#497,.F.);
#791=ORIENTED_EDGE('',*,*,#542,.F.);
#792=ORIENTED_EDGE('',*,*,#523,.F.);
#793=ORIENTED_EDGE('',*,*,#531,.F.);
#794=ORIENTED_EDGE('',*,*,#595,.F.);
#795=ORIENTED_EDGE('',*,*,#529,.F.);
#796=ORIENTED_EDGE('',*,*,#513,.F.);
#797=ORIENTED_EDGE('',*,*,#504,.T.);
#798=ORIENTED_EDGE('',*,*,#582,.T.);
#799=ORIENTED_EDGE('',*,*,#579,.T.);
#800=ORIENTED_EDGE('',*,*,#576,.T.);
#801=ORIENTED_EDGE('',*,*,#585,.T.);
#802=ORIENTED_EDGE('',*,*,#588,.T.);
#803=ORIENTED_EDGE('',*,*,#596,.T.);
#804=ORIENTED_EDGE('',*,*,#595,.T.);
#805=ORIENTED_EDGE('',*,*,#556,.T.);
#806=ORIENTED_EDGE('',*,*,#511,.F.);
#807=ORIENTED_EDGE('',*,*,#526,.T.);
#808=ORIENTED_EDGE('',*,*,#519,.F.);
#809=ORIENTED_EDGE('',*,*,#535,.F.);
#810=ORIENTED_EDGE('',*,*,#597,.T.);
#811=ORIENTED_EDGE('',*,*,#598,.F.);
#812=ORIENTED_EDGE('',*,*,#599,.F.);
#813=ORIENTED_EDGE('',*,*,#536,.F.);
#814=ORIENTED_EDGE('',*,*,#599,.T.);
#815=ORIENTED_EDGE('',*,*,#600,.F.);
#816=ORIENTED_EDGE('',*,*,#601,.F.);
#817=ORIENTED_EDGE('',*,*,#537,.F.);
#818=ORIENTED_EDGE('',*,*,#601,.T.);
#819=ORIENTED_EDGE('',*,*,#602,.F.);
#820=ORIENTED_EDGE('',*,*,#603,.F.);
#821=ORIENTED_EDGE('',*,*,#534,.F.);
#822=ORIENTED_EDGE('',*,*,#603,.T.);
#823=ORIENTED_EDGE('',*,*,#604,.F.);
#824=ORIENTED_EDGE('',*,*,#597,.F.);
#825=ORIENTED_EDGE('',*,*,#557,.F.);
#826=ORIENTED_EDGE('',*,*,#530,.F.);
#827=ORIENTED_EDGE('',*,*,#605,.F.);
#828=ORIENTED_EDGE('',*,*,#606,.F.);
#829=ORIENTED_EDGE('',*,*,#558,.F.);
#830=ORIENTED_EDGE('',*,*,#606,.T.);
#831=ORIENTED_EDGE('',*,*,#607,.F.);
#832=ORIENTED_EDGE('',*,*,#552,.F.);
#833=ORIENTED_EDGE('',*,*,#604,.T.);
#834=ORIENTED_EDGE('',*,*,#602,.T.);
#835=ORIENTED_EDGE('',*,*,#600,.T.);
#836=ORIENTED_EDGE('',*,*,#598,.T.);
#837=ORIENTED_EDGE('',*,*,#608,.T.);
#838=ORIENTED_EDGE('',*,*,#553,.T.);
#839=ORIENTED_EDGE('',*,*,#607,.T.);
#840=ORIENTED_EDGE('',*,*,#605,.T.);
#841=ORIENTED_EDGE('',*,*,#596,.F.);
#842=ORIENTED_EDGE('',*,*,#587,.T.);
#843=ORIENTED_EDGE('',*,*,#609,.T.);
#844=ORIENTED_EDGE('',*,*,#610,.F.);
#845=ORIENTED_EDGE('',*,*,#611,.F.);
#846=ORIENTED_EDGE('',*,*,#544,.F.);
#847=ORIENTED_EDGE('',*,*,#566,.F.);
#848=ORIENTED_EDGE('',*,*,#571,.T.);
#849=ORIENTED_EDGE('',*,*,#594,.F.);
#850=ORIENTED_EDGE('',*,*,#559,.F.);
#851=ORIENTED_EDGE('',*,*,#589,.F.);
#852=ORIENTED_EDGE('',*,*,#554,.F.);
#853=ORIENTED_EDGE('',*,*,#550,.F.);
#854=ORIENTED_EDGE('',*,*,#608,.F.);
#855=ORIENTED_EDGE('',*,*,#586,.F.);
#856=ORIENTED_EDGE('',*,*,#591,.F.);
#857=ORIENTED_EDGE('',*,*,#593,.F.);
#858=ORIENTED_EDGE('',*,*,#569,.F.);
#859=ORIENTED_EDGE('',*,*,#562,.F.);
#860=ORIENTED_EDGE('',*,*,#507,.F.);
#861=ORIENTED_EDGE('',*,*,#539,.F.);
#862=ORIENTED_EDGE('',*,*,#541,.F.);
#863=ORIENTED_EDGE('',*,*,#549,.T.);
#864=ORIENTED_EDGE('',*,*,#528,.T.);
#865=ORIENTED_EDGE('',*,*,#540,.T.);
#866=ORIENTED_EDGE('',*,*,#611,.T.);
#867=ORIENTED_EDGE('',*,*,#612,.F.);
#868=ORIENTED_EDGE('',*,*,#609,.F.);
#869=ORIENTED_EDGE('',*,*,#612,.T.);
#870=ORIENTED_EDGE('',*,*,#610,.T.);
#871=CYLINDRICAL_SURFACE('',#930,0.874999999999995);
#872=CYLINDRICAL_SURFACE('',#934,0.874999999999999);
#873=CYLINDRICAL_SURFACE('',#938,0.875000000000004);
#874=CYLINDRICAL_SURFACE('',#942,0.874999999999999);
#875=CYLINDRICAL_SURFACE('',#948,5.);
#876=CYLINDRICAL_SURFACE('',#951,5.);
#877=CYLINDRICAL_SURFACE('',#953,5.);
#878=CYLINDRICAL_SURFACE('',#955,1.75000000000001);
#879=CYLINDRICAL_SURFACE('',#965,8.00000000000001);
#880=CYLINDRICAL_SURFACE('',#968,1.75);
#881=CYLINDRICAL_SURFACE('',#995,15.);
#882=ADVANCED_FACE('',(#69),#871,.F.);
#883=ADVANCED_FACE('',(#70),#34,.T.);
#884=ADVANCED_FACE('',(#71),#872,.F.);
#885=ADVANCED_FACE('',(#72),#35,.T.);
#886=ADVANCED_FACE('',(#73),#873,.F.);
#887=ADVANCED_FACE('',(#74),#36,.T.);
#888=ADVANCED_FACE('',(#75),#874,.F.);
#889=ADVANCED_FACE('',(#76),#37,.T.);
#890=ADVANCED_FACE('',(#77,#21,#22,#23,#24,#25),#38,.F.);
#891=ADVANCED_FACE('',(#78),#39,.T.);
#892=ADVANCED_FACE('',(#79),#875,.T.);
#893=ADVANCED_FACE('',(#80),#876,.T.);
#894=ADVANCED_FACE('',(#81),#877,.T.);
#895=ADVANCED_FACE('',(#82),#878,.F.);
#896=ADVANCED_FACE('',(#83,#26),#40,.T.);
#897=ADVANCED_FACE('',(#84),#41,.T.);
#898=ADVANCED_FACE('',(#85),#42,.T.);
#899=ADVANCED_FACE('',(#86),#879,.F.);
#900=ADVANCED_FACE('',(#87),#880,.F.);
#901=ADVANCED_FACE('',(#88),#43,.T.);
#902=ADVANCED_FACE('',(#89),#44,.T.);
#903=ADVANCED_FACE('',(#90),#45,.F.);
#904=ADVANCED_FACE('',(#91,#27),#46,.T.);
#905=ADVANCED_FACE('',(#92),#47,.F.);
#906=ADVANCED_FACE('',(#93),#48,.F.);
#907=ADVANCED_FACE('',(#94),#49,.F.);
#908=ADVANCED_FACE('',(#95),#50,.F.);
#909=ADVANCED_FACE('',(#96),#51,.F.);
#910=ADVANCED_FACE('',(#97),#52,.F.);
#911=ADVANCED_FACE('',(#98),#53,.F.);
#912=ADVANCED_FACE('',(#99,#28),#54,.F.);
#913=ADVANCED_FACE('',(#100),#55,.F.);
#914=ADVANCED_FACE('',(#101,#29),#56,.F.);
#915=ADVANCED_FACE('',(#102,#30),#57,.T.);
#916=ADVANCED_FACE('',(#103),#58,.F.);
#917=ADVANCED_FACE('',(#104),#59,.T.);
#918=ADVANCED_FACE('',(#105),#60,.T.);
#919=ADVANCED_FACE('',(#106),#61,.T.);
#920=ADVANCED_FACE('',(#107),#62,.T.);
#921=ADVANCED_FACE('',(#108),#63,.T.);
#922=ADVANCED_FACE('',(#109),#64,.T.);
#923=ADVANCED_FACE('',(#110,#31),#65,.T.);
#924=ADVANCED_FACE('',(#111),#66,.T.);
#925=ADVANCED_FACE('',(#112,#32,#33),#67,.T.);
#926=ADVANCED_FACE('',(#113),#881,.T.);
#927=ADVANCED_FACE('',(#114),#68,.T.);
#928=CLOSED_SHELL('',(#882,#883,#884,#885,#886,#887,#888,#889,#890,#891,
#892,#893,#894,#895,#896,#897,#898,#899,#900,#901,#902,#903,#904,#905,#906,
#907,#908,#909,#910,#911,#912,#913,#914,#915,#916,#917,#918,#919,#920,#921,
#922,#923,#924,#925,#926,#927));
#929=AXIS2_PLACEMENT_3D('',#1239,#998,#999);
#930=AXIS2_PLACEMENT_3D('',#1240,#1000,#1001);
#931=AXIS2_PLACEMENT_3D('',#1242,#1002,#1003);
#932=AXIS2_PLACEMENT_3D('',#1245,#1005,#1006);
#933=AXIS2_PLACEMENT_3D('',#1246,#1007,#1008);
#934=AXIS2_PLACEMENT_3D('',#1247,#1009,#1010);
#935=AXIS2_PLACEMENT_3D('',#1249,#1011,#1012);
#936=AXIS2_PLACEMENT_3D('',#1252,#1014,#1015);
#937=AXIS2_PLACEMENT_3D('',#1253,#1016,#1017);
#938=AXIS2_PLACEMENT_3D('',#1254,#1018,#1019);
#939=AXIS2_PLACEMENT_3D('',#1256,#1020,#1021);
#940=AXIS2_PLACEMENT_3D('',#1259,#1023,#1024);
#941=AXIS2_PLACEMENT_3D('',#1260,#1025,#1026);
#942=AXIS2_PLACEMENT_3D('',#1261,#1027,#1028);
#943=AXIS2_PLACEMENT_3D('',#1263,#1029,#1030);
#944=AXIS2_PLACEMENT_3D('',#1266,#1032,#1033);
#945=AXIS2_PLACEMENT_3D('',#1267,#1034,#1035);
#946=AXIS2_PLACEMENT_3D('',#1268,#1036,#1037);
#947=AXIS2_PLACEMENT_3D('',#1285,#1046,#1047);
#948=AXIS2_PLACEMENT_3D('',#1295,#1053,#1054);
#949=AXIS2_PLACEMENT_3D('',#1313,#1056,#1057);
#950=AXIS2_PLACEMENT_3D('',#1315,#1058,#1059);
#951=AXIS2_PLACEMENT_3D('',#1317,#1061,#1062);
#952=AXIS2_PLACEMENT_3D('',#1337,#1064,#1065);
#953=AXIS2_PLACEMENT_3D('',#1349,#1069,#1070);
#954=AXIS2_PLACEMENT_3D('',#1353,#1072,#1073);
#955=AXIS2_PLACEMENT_3D('',#1355,#1075,#1076);
#956=AXIS2_PLACEMENT_3D('',#1356,#1077,#1078);
#957=AXIS2_PLACEMENT_3D('',#1357,#1079,#1080);
#958=AXIS2_PLACEMENT_3D('',#1360,#1082,#1083);
#959=AXIS2_PLACEMENT_3D('',#1361,#1084,#1085);
#960=AXIS2_PLACEMENT_3D('',#1368,#1089,#1090);
#961=AXIS2_PLACEMENT_3D('',#1369,#1091,#1092);
#962=AXIS2_PLACEMENT_3D('',#1378,#1097,#1098);
#963=AXIS2_PLACEMENT_3D('',#1382,#1101,#1102);
#964=AXIS2_PLACEMENT_3D('',#1385,#1103,#1104);
#965=AXIS2_PLACEMENT_3D('',#1391,#1109,#1110);
#966=AXIS2_PLACEMENT_3D('',#1393,#1111,#1112);
#967=AXIS2_PLACEMENT_3D('',#1396,#1114,#1115);
#968=AXIS2_PLACEMENT_3D('',#1397,#1116,#1117);
#969=AXIS2_PLACEMENT_3D('',#1400,#1119,#1120);
#970=AXIS2_PLACEMENT_3D('',#1401,#1121,#1122);
#971=AXIS2_PLACEMENT_3D('',#1410,#1127,#1128);
#972=AXIS2_PLACEMENT_3D('',#1419,#1134,#1135);
#973=AXIS2_PLACEMENT_3D('',#1425,#1139,#1140);
#974=AXIS2_PLACEMENT_3D('',#1435,#1146,#1147);
#975=AXIS2_PLACEMENT_3D('',#1441,#1151,#1152);
#976=AXIS2_PLACEMENT_3D('',#1447,#1156,#1157);
#977=AXIS2_PLACEMENT_3D('',#1449,#1159,#1160);
#978=AXIS2_PLACEMENT_3D('',#1458,#1165,#1166);
#979=AXIS2_PLACEMENT_3D('',#1464,#1170,#1171);
#980=AXIS2_PLACEMENT_3D('',#1470,#1175,#1176);
#981=AXIS2_PLACEMENT_3D('',#1473,#1179,#1180);
#982=AXIS2_PLACEMENT_3D('',#1482,#1186,#1187);
#983=AXIS2_PLACEMENT_3D('',#1486,#1190,#1191);
#984=AXIS2_PLACEMENT_3D('',#1489,#1194,#1195);
#985=AXIS2_PLACEMENT_3D('',#1491,#1197,#1198);
#986=AXIS2_PLACEMENT_3D('',#1493,#1200,#1201);
#987=AXIS2_PLACEMENT_3D('',#1494,#1202,#1203);
#988=AXIS2_PLACEMENT_3D('',#1500,#1207,#1208);
#989=AXIS2_PLACEMENT_3D('',#1504,#1211,#1212);
#990=AXIS2_PLACEMENT_3D('',#1508,#1215,#1216);
#991=AXIS2_PLACEMENT_3D('',#1510,#1218,#1219);
#992=AXIS2_PLACEMENT_3D('',#1514,#1222,#1223);
#993=AXIS2_PLACEMENT_3D('',#1516,#1225,#1226);
#994=AXIS2_PLACEMENT_3D('',#1518,#1228,#1229);
#995=AXIS2_PLACEMENT_3D('',#1524,#1233,#1234);
#996=AXIS2_PLACEMENT_3D('',#1525,#1235,#1236);
#997=AXIS2_PLACEMENT_3D('',#1526,#1237,#1238);
#998=DIRECTION('axis',(0.,0.,1.));
#999=DIRECTION('refdir',(1.,0.,0.));
#1000=DIRECTION('center_axis',(0.,-1.,0.));
#1001=DIRECTION('ref_axis',(-1.,0.,0.));
#1002=DIRECTION('center_axis',(0.,-1.,0.));
#1003=DIRECTION('ref_axis',(-1.,0.,0.));
#1004=DIRECTION('',(0.,-1.,0.));
#1005=DIRECTION('center_axis',(0.,-1.,0.));
#1006=DIRECTION('ref_axis',(-1.,0.,0.));
#1007=DIRECTION('center_axis',(0.,1.,0.));
#1008=DIRECTION('ref_axis',(-1.,0.,0.));
#1009=DIRECTION('center_axis',(0.,-1.,0.));
#1010=DIRECTION('ref_axis',(-1.,0.,0.));
#1011=DIRECTION('center_axis',(0.,-1.,0.));
#1012=DIRECTION('ref_axis',(-1.,0.,0.));
#1013=DIRECTION('',(0.,-1.,0.));
#1014=DIRECTION('center_axis',(0.,-1.,0.));
#1015=DIRECTION('ref_axis',(-1.,0.,0.));
#1016=DIRECTION('center_axis',(0.,1.,0.));
#1017=DIRECTION('ref_axis',(-1.,0.,0.));
#1018=DIRECTION('center_axis',(0.,-1.,0.));
#1019=DIRECTION('ref_axis',(-1.,0.,0.));
#1020=DIRECTION('center_axis',(0.,-1.,0.));
#1021=DIRECTION('ref_axis',(-1.,0.,0.));
#1022=DIRECTION('',(0.,-1.,0.));
#1023=DIRECTION('center_axis',(0.,-1.,0.));
#1024=DIRECTION('ref_axis',(-1.,0.,0.));
#1025=DIRECTION('center_axis',(0.,1.,0.));
#1026=DIRECTION('ref_axis',(-1.,0.,0.));
#1027=DIRECTION('center_axis',(0.,-1.,0.));
#1028=DIRECTION('ref_axis',(-1.,0.,0.));
#1029=DIRECTION('center_axis',(0.,-1.,0.));
#1030=DIRECTION('ref_axis',(-1.,0.,0.));
#1031=DIRECTION('',(0.,-1.,0.));
#1032=DIRECTION('center_axis',(0.,-1.,0.));
#1033=DIRECTION('ref_axis',(-1.,0.,0.));
#1034=DIRECTION('center_axis',(0.,1.,0.));
#1035=DIRECTION('ref_axis',(-1.,0.,0.));
#1036=DIRECTION('center_axis',(0.,-1.,0.));
#1037=DIRECTION('ref_axis',(0.,0.,-1.));
#1038=DIRECTION('',(0.,0.,-1.));
#1039=DIRECTION('',(1.,0.,0.));
#1040=DIRECTION('',(0.,0.,1.));
#1041=DIRECTION('',(-1.,0.,0.));
#1042=DIRECTION('',(0.,0.,1.));
#1043=DIRECTION('',(-1.,0.,0.));
#1044=DIRECTION('',(0.,0.,-1.));
#1045=DIRECTION('',(1.,0.,0.));
#1046=DIRECTION('center_axis',(1.,0.,0.));
#1047=DIRECTION('ref_axis',(0.,0.,-1.));
#1048=DIRECTION('',(0.,1.,0.));
#1049=DIRECTION('',(0.,0.,-1.));
#1050=DIRECTION('',(0.,1.,0.));
#1051=DIRECTION('',(0.,0.,-1.));
#1052=DIRECTION('',(0.,1.,0.));
#1053=DIRECTION('center_axis',(0.,0.,-1.));
#1054=DIRECTION('ref_axis',(0.707106781186547,0.707106781186547,0.));
#1055=DIRECTION('',(0.,0.,1.));
#1056=DIRECTION('center_axis',(0.707106781186548,0.,-0.707106781186548));
#1057=DIRECTION('ref_axis',(0.707106781186547,0.,0.707106781186547));
#1058=DIRECTION('center_axis',(0.,0.,-1.));
#1059=DIRECTION('ref_axis',(0.707106781186547,0.707106781186547,0.));
#1060=DIRECTION('',(0.,0.,1.));
#1061=DIRECTION('center_axis',(1.,0.,0.));
#1062=DIRECTION('ref_axis',(0.,0.707106781186547,0.707106781186547));
#1063=DIRECTION('',(-1.,0.,0.));
#1064=DIRECTION('center_axis',(0.707106781186548,0.,0.707106781186548));
#1065=DIRECTION('ref_axis',(-0.707106781186547,0.,0.707106781186547));
#1066=DIRECTION('',(1.,0.,0.));
#1067=DIRECTION('',(-1.,0.,0.));
#1068=DIRECTION('',(-1.,0.,0.));
#1069=DIRECTION('center_axis',(0.,0.,1.));
#1070=DIRECTION('ref_axis',(-0.707106781186547,0.707106781186547,0.));
#1071=DIRECTION('',(0.,0.,-1.));
#1072=DIRECTION('center_axis',(0.,0.,-1.));
#1073=DIRECTION('ref_axis',(-0.707106781186547,0.707106781186547,0.));
#1074=DIRECTION('',(0.,0.,1.));
#1075=DIRECTION('center_axis',(0.,-1.,0.));
#1076=DIRECTION('ref_axis',(-1.,0.,0.));
#1077=DIRECTION('center_axis',(0.,-1.,0.));
#1078=DIRECTION('ref_axis',(-1.,0.,0.));
#1079=DIRECTION('center_axis',(0.,-1.,0.));
#1080=DIRECTION('ref_axis',(-1.,0.,0.));
#1081=DIRECTION('',(0.,-1.,0.));
#1082=DIRECTION('center_axis',(0.,1.,0.));
#1083=DIRECTION('ref_axis',(-1.,0.,0.));
#1084=DIRECTION('center_axis',(0.,1.,0.));
#1085=DIRECTION('ref_axis',(0.,0.,1.));
#1086=DIRECTION('',(-1.,0.,0.));
#1087=DIRECTION('',(-1.,0.,0.));
#1088=DIRECTION('',(-1.,0.,0.));
#1089=DIRECTION('center_axis',(0.,-1.,0.));
#1090=DIRECTION('ref_axis',(-1.,0.,0.));
#1091=DIRECTION('center_axis',(0.,-1.,0.));
#1092=DIRECTION('ref_axis',(-1.,0.,0.));
#1093=DIRECTION('',(-1.,0.,0.));
#1094=DIRECTION('',(0.,0.,-1.));
#1095=DIRECTION('',(1.,0.,0.));
#1096=DIRECTION('',(0.,0.,1.));
#1097=DIRECTION('center_axis',(0.,0.,1.));
#1098=DIRECTION('ref_axis',(1.,0.,0.));
#1099=DIRECTION('',(0.,1.,0.));
#1100=DIRECTION('',(1.,0.,0.));
#1101=DIRECTION('center_axis',(-1.,0.,0.));
#1102=DIRECTION('ref_axis',(0.,0.,1.));
#1103=DIRECTION('center_axis',(-1.,0.,0.));
#1104=DIRECTION('ref_axis',(0.,0.,1.));
#1105=DIRECTION('',(0.,0.,1.));
#1106=DIRECTION('',(0.,1.,0.));
#1107=DIRECTION('',(0.,1.,0.));
#1108=DIRECTION('',(0.,0.,1.));
#1109=DIRECTION('center_axis',(0.,0.,1.));
#1110=DIRECTION('ref_axis',(-1.,0.,0.));
#1111=DIRECTION('center_axis',(0.,0.,1.));
#1112=DIRECTION('ref_axis',(-1.,0.,0.));
#1113=DIRECTION('',(0.,0.,1.));
#1114=DIRECTION('center_axis',(0.,0.,-1.));
#1115=DIRECTION('ref_axis',(-1.,0.,0.));
#1116=DIRECTION('center_axis',(0.,-1.,0.));
#1117=DIRECTION('ref_axis',(-1.,0.,0.));
#1118=DIRECTION('',(0.,-1.,0.));
#1119=DIRECTION('center_axis',(0.,1.,0.));
#1120=DIRECTION('ref_axis',(-1.,0.,0.));
#1121=DIRECTION('center_axis',(0.,0.,-1.));
#1122=DIRECTION('ref_axis',(-1.,0.,0.));
#1123=DIRECTION('',(-1.,0.,0.));
#1124=DIRECTION('',(0.,1.,0.));
#1125=DIRECTION('',(1.,0.,0.));
#1126=DIRECTION('',(0.,1.,0.));
#1127=DIRECTION('center_axis',(1.,0.,0.));
#1128=DIRECTION('ref_axis',(0.,0.,-1.));
#1129=DIRECTION('',(0.,0.,-1.));
#1130=DIRECTION('',(0.,1.,0.));
#1131=DIRECTION('',(0.,0.,-1.));
#1132=DIRECTION('',(0.,-1.,0.));
#1133=DIRECTION('',(0.,0.,1.));
#1134=DIRECTION('center_axis',(-1.,0.,0.));
#1135=DIRECTION('ref_axis',(0.,0.,-1.));
#1136=DIRECTION('',(0.,0.,-1.));
#1137=DIRECTION('',(0.,-1.,0.));
#1138=DIRECTION('',(0.,-1.,0.));
#1139=DIRECTION('center_axis',(0.,0.,-1.));
#1140=DIRECTION('ref_axis',(-1.,0.,0.));
#1141=DIRECTION('',(-1.,0.,0.));
#1142=DIRECTION('',(0.,1.,0.));
#1143=DIRECTION('',(-1.,0.,0.));
#1144=DIRECTION('',(0.,-1.,0.));
#1145=DIRECTION('',(-1.,0.,0.));
#1146=DIRECTION('center_axis',(1.,0.,0.));
#1147=DIRECTION('ref_axis',(0.,1.,0.));
#1148=DIRECTION('',(0.,-1.,0.));
#1149=DIRECTION('',(0.,0.,1.));
#1150=DIRECTION('',(0.,0.,1.));
#1151=DIRECTION('center_axis',(-1.,0.,0.));
#1152=DIRECTION('ref_axis',(0.,-1.,0.));
#1153=DIRECTION('',(0.,1.,0.));
#1154=DIRECTION('',(0.,0.,1.));
#1155=DIRECTION('',(0.,0.,1.));
#1156=DIRECTION('center_axis',(0.,1.,0.));
#1157=DIRECTION('ref_axis',(-1.,0.,0.));
#1158=DIRECTION('',(1.,0.,0.));
#1159=DIRECTION('center_axis',(-6.34413156928661E-17,-1.,0.));
#1160=DIRECTION('ref_axis',(-1.,6.34413156928661E-17,0.));
#1161=DIRECTION('',(1.,-6.34413156928661E-17,0.));
#1162=DIRECTION('',(0.,0.,-1.));
#1163=DIRECTION('',(-1.,6.34413156928661E-17,0.));
#1164=DIRECTION('',(0.,0.,-1.));
#1165=DIRECTION('center_axis',(1.,0.,0.));
#1166=DIRECTION('ref_axis',(0.,-1.,0.));
#1167=DIRECTION('',(0.,1.,0.));
#1168=DIRECTION('',(0.,-1.,0.));
#1169=DIRECTION('',(0.,0.,-1.));
#1170=DIRECTION('center_axis',(0.,1.,0.));
#1171=DIRECTION('ref_axis',(1.,0.,0.));
#1172=DIRECTION('',(-1.,0.,0.));
#1173=DIRECTION('',(1.,0.,0.));
#1174=DIRECTION('',(0.,0.,-1.));
#1175=DIRECTION('center_axis',(-1.,0.,0.));
#1176=DIRECTION('ref_axis',(0.,1.,0.));
#1177=DIRECTION('',(0.,-1.,0.));
#1178=DIRECTION('',(0.,1.,0.));
#1179=DIRECTION('center_axis',(0.,0.,1.));
#1180=DIRECTION('ref_axis',(-1.,0.,0.));
#1181=DIRECTION('',(-1.,0.,0.));
#1182=DIRECTION('',(0.,-1.,0.));
#1183=DIRECTION('',(1.,0.,0.));
#1184=DIRECTION('',(-1.,0.,0.));
#1185=DIRECTION('',(0.,-1.,0.));
#1186=DIRECTION('center_axis',(1.,0.,0.));
#1187=DIRECTION('ref_axis',(0.,0.,1.));
#1188=DIRECTION('',(0.,0.,1.));
#1189=DIRECTION('',(0.,-1.,0.));
#1190=DIRECTION('center_axis',(0.,0.,-1.));
#1191=DIRECTION('ref_axis',(1.,0.,0.));
#1192=DIRECTION('',(1.,0.,0.));
#1193=DIRECTION('',(1.,0.,0.));
#1194=DIRECTION('center_axis',(0.,0.,1.));
#1195=DIRECTION('ref_axis',(1.,0.,0.));
#1196=DIRECTION('',(-1.,0.,0.));
#1197=DIRECTION('center_axis',(0.,1.,0.));
#1198=DIRECTION('ref_axis',(-1.,0.,0.));
#1199=DIRECTION('',(0.,0.,1.));
#1200=DIRECTION('center_axis',(0.,1.,0.));
#1201=DIRECTION('ref_axis',(0.,0.,1.));
#1202=DIRECTION('center_axis',(1.,0.,0.));
#1203=DIRECTION('ref_axis',(0.,0.,1.));
#1204=DIRECTION('',(0.,-1.,0.));
#1205=DIRECTION('',(0.,0.,1.));
#1206=DIRECTION('',(0.,-1.,0.));
#1207=DIRECTION('center_axis',(0.,0.,1.));
#1208=DIRECTION('ref_axis',(-1.,0.,0.));
#1209=DIRECTION('',(-1.,0.,0.));
#1210=DIRECTION('',(0.,-1.,0.));
#1211=DIRECTION('center_axis',(-1.,0.,0.));
#1212=DIRECTION('ref_axis',(0.,0.,-1.));
#1213=DIRECTION('',(0.,0.,-1.));
#1214=DIRECTION('',(0.,-1.,0.));
#1215=DIRECTION('center_axis',(0.,0.,-1.));
#1216=DIRECTION('ref_axis',(1.,0.,0.));
#1217=DIRECTION('',(1.,0.,0.));
#1218=DIRECTION('center_axis',(0.,0.,-1.));
#1219=DIRECTION('ref_axis',(1.,0.,0.));
#1220=DIRECTION('',(0.,1.,0.));
#1221=DIRECTION('',(1.,0.,0.));
#1222=DIRECTION('center_axis',(0.,-1.,0.));
#1223=DIRECTION('ref_axis',(0.,0.,-1.));
#1224=DIRECTION('',(0.,0.,-1.));
#1225=DIRECTION('center_axis',(-1.,0.,0.));
#1226=DIRECTION('ref_axis',(0.,0.,1.));
#1227=DIRECTION('',(0.,0.,1.));
#1228=DIRECTION('center_axis',(0.,-1.,0.));
#1229=DIRECTION('ref_axis',(0.,0.,1.));
#1230=DIRECTION('',(-1.,0.,0.));
#1231=DIRECTION('',(0.,0.,1.));
#1232=DIRECTION('',(-1.,0.,0.));
#1233=DIRECTION('center_axis',(-1.,0.,0.));
#1234=DIRECTION('ref_axis',(0.,1.,2.83276944882399E-16));
#1235=DIRECTION('center_axis',(-1.,0.,0.));
#1236=DIRECTION('ref_axis',(0.,0.,1.));
#1237=DIRECTION('center_axis',(-1.,0.,0.));
#1238=DIRECTION('ref_axis',(0.,0.,1.));
#1239=CARTESIAN_POINT('',(0.,0.,0.));
#1240=CARTESIAN_POINT('Origin',(70.6590442734314,65.,-57.4213736691861));
#1241=CARTESIAN_POINT('',(71.5340442734314,65.,-57.4213736691861));
#1242=CARTESIAN_POINT('Origin',(70.6590442734314,65.,-57.4213736691861));
#1243=CARTESIAN_POINT('',(71.5340442734314,59.,-57.4213736691861));
#1244=CARTESIAN_POINT('',(71.5340442734314,65.,-57.4213736691861));
#1245=CARTESIAN_POINT('Origin',(70.6590442734314,59.,-57.4213736691861));
#1246=CARTESIAN_POINT('Origin',(70.6590442734314,59.,-57.4213736691861));
#1247=CARTESIAN_POINT('Origin',(168.753111978156,65.,-57.4213736691861));
#1248=CARTESIAN_POINT('',(169.628111978156,65.,-57.4213736691861));
#1249=CARTESIAN_POINT('Origin',(168.753111978156,65.,-57.4213736691861));
#1250=CARTESIAN_POINT('',(169.628111978156,59.,-57.4213736691861));
#1251=CARTESIAN_POINT('',(169.628111978156,65.,-57.4213736691861));
#1252=CARTESIAN_POINT('Origin',(168.753111978156,59.,-57.4213736691861));
#1253=CARTESIAN_POINT('Origin',(168.753111978156,59.,-57.4213736691861));
#1254=CARTESIAN_POINT('Origin',(70.6590442734314,65.,-88.7972750587204));
#1255=CARTESIAN_POINT('',(71.5340442734314,65.,-88.7972750587204));
#1256=CARTESIAN_POINT('Origin',(70.6590442734314,65.,-88.7972750587204));
#1257=CARTESIAN_POINT('',(71.5340442734314,59.,-88.7972750587204));
#1258=CARTESIAN_POINT('',(71.5340442734314,65.,-88.7972750587204));
#1259=CARTESIAN_POINT('Origin',(70.6590442734314,59.,-88.7972750587204));
#1260=CARTESIAN_POINT('Origin',(70.6590442734314,59.,-88.7972750587204));
#1261=CARTESIAN_POINT('Origin',(168.753111978156,65.,-88.7972750587204));
#1262=CARTESIAN_POINT('',(169.628111978156,65.,-88.7972750587204));
#1263=CARTESIAN_POINT('Origin',(168.753111978156,65.,-88.7972750587204));
#1264=CARTESIAN_POINT('',(169.628111978156,59.,-88.7972750587204));
#1265=CARTESIAN_POINT('',(169.628111978156,65.,-88.7972750587204));
#1266=CARTESIAN_POINT('Origin',(168.753111978156,59.,-88.7972750587204));
#1267=CARTESIAN_POINT('Origin',(168.753111978156,59.,-88.7972750587204));
#1268=CARTESIAN_POINT('Origin',(119.706078125794,65.,-31.2972750587204));
#1269=CARTESIAN_POINT('',(68.1590442734314,65.,-54.9213736691861));
#1270=CARTESIAN_POINT('',(68.1590442734314,65.,-91.2972750587204));
#1271=CARTESIAN_POINT('',(68.1590442734314,65.,-61.2972750587204));
#1272=CARTESIAN_POINT('',(171.253111978156,65.,-54.9213736691861));
#1273=CARTESIAN_POINT('',(93.9325611996125,65.,-54.9213736691861));
#1274=CARTESIAN_POINT('',(171.253111978156,65.,-91.2972750587204));
#1275=CARTESIAN_POINT('',(171.253111978156,65.,-1.29727505872042));
#1276=CARTESIAN_POINT('',(145.479595051975,65.,-91.2972750587204));
#1277=CARTESIAN_POINT('',(74.6545000277801,65.,-85.6093243639533));
#1278=CARTESIAN_POINT('',(74.6545000277801,65.,-60.6093243639533));
#1279=CARTESIAN_POINT('',(74.6545000277801,65.,-66.8593243639533));
#1280=CARTESIAN_POINT('',(164.757656223807,65.,-85.6093243639533));
#1281=CARTESIAN_POINT('',(97.1802890767868,65.,-85.6093243639533));
#1282=CARTESIAN_POINT('',(164.757656223807,65.,-60.6093243639533));
#1283=CARTESIAN_POINT('',(164.757656223807,65.,-79.3593243639533));
#1284=CARTESIAN_POINT('',(142.2318671748,65.,-60.6093243639533));
#1285=CARTESIAN_POINT('Origin',(171.253111978156,0.,28.7027249412796));
#1286=CARTESIAN_POINT('',(171.253111978156,20.,-54.9213736691861));
#1287=CARTESIAN_POINT('',(171.253111978156,25.,-54.9213736691861));
#1288=CARTESIAN_POINT('',(171.253111978156,20.,28.7027249412796));
#1289=CARTESIAN_POINT('',(171.253111978156,20.,-1.29727505872042));
#1290=CARTESIAN_POINT('',(171.253111978156,15.,28.7027249412796));
#1291=CARTESIAN_POINT('',(171.253111978156,0.,28.7027249412796));
#1292=CARTESIAN_POINT('',(171.253111978156,15.,-91.2972750587204));
#1293=CARTESIAN_POINT('',(171.253111978156,15.,-1.29727505872042));
#1294=CARTESIAN_POINT('',(171.253111978156,0.,-91.2972750587204));
#1295=CARTESIAN_POINT('Origin',(166.253111978156,20.,-1.29727505872042));
#1296=CARTESIAN_POINT('',(166.253111978156,25.,20.7784371766833));
#1297=CARTESIAN_POINT('',(166.750002458692,24.9752487224613,22.0000003278256));
#1298=CARTESIAN_POINT('Ctrl Pts',(166.253111978156,25.,20.7784371766833));
#1299=CARTESIAN_POINT('Ctrl Pts',(166.401651488197,25.,20.9308126587652));
#1300=CARTESIAN_POINT('Ctrl Pts',(166.5297336688,24.9930905200468,21.1208681704709));
#1301=CARTESIAN_POINT('Ctrl Pts',(166.705771590744,24.9802821219585,21.5443569292458));
#1302=CARTESIAN_POINT('Ctrl Pts',(166.750002458692,24.9752487224613,21.7794383172524));
#1303=CARTESIAN_POINT('Ctrl Pts',(166.750002458692,24.9752487224613,22.0000003278256));
#1304=CARTESIAN_POINT('',(166.253111978156,25.,23.2215634789678));
#1305=CARTESIAN_POINT('Ctrl Pts',(166.750002458692,24.9752487224613,22.0000003278256));
#1306=CARTESIAN_POINT('Ctrl Pts',(166.750002458692,24.9752487224613,22.2205623383987));
#1307=CARTESIAN_POINT('Ctrl Pts',(166.705771590744,24.9802821219585,22.4556437264054));
#1308=CARTESIAN_POINT('Ctrl Pts',(166.5297336688,24.9930905200468,22.8791324851802));
#1309=CARTESIAN_POINT('Ctrl Pts',(166.401651488197,25.,23.0691879968859));
#1310=CARTESIAN_POINT('Ctrl Pts',(166.253111978156,25.,23.2215634789678));
#1311=CARTESIAN_POINT('',(166.253111978156,25.,23.7027249412796));
#1312=CARTESIAN_POINT('',(166.253111978156,25.,-1.29727505872042));
#1313=CARTESIAN_POINT('Origin',(166.253111978156,20.,23.7027249412796));
#1314=CARTESIAN_POINT('',(166.253111978156,25.,-54.9213736691861));
#1315=CARTESIAN_POINT('Origin',(166.253111978156,20.,-54.9213736691861));
#1316=CARTESIAN_POINT('',(166.253111978156,25.,-1.29727505872042));
#1317=CARTESIAN_POINT('Origin',(93.9325611996125,20.,23.7027249412796));
#1318=CARTESIAN_POINT('',(76.6027107415018,25.,23.7027249412796));
#1319=CARTESIAN_POINT('',(73.3972914936724,25.,23.7027249412796));
#1320=CARTESIAN_POINT('Ctrl Pts',(76.6027107415018,25.,23.7027249412796));
#1321=CARTESIAN_POINT('Ctrl Pts',(76.5145402736739,25.,23.903816033898));
#1322=CARTESIAN_POINT('Ctrl Pts',(76.3867711180696,24.9873719492541,24.0872416561474));
#1323=CARTESIAN_POINT('Ctrl Pts',(76.0855612610247,24.9550072652779,24.3902123043516));
#1324=CARTESIAN_POINT('Ctrl Pts',(75.8886634738574,24.932665547029,24.5256353575036));
#1325=CARTESIAN_POINT('Ctrl Pts',(75.4565024472767,24.8992570076875,24.7055469474159));
#1326=CARTESIAN_POINT('Ctrl Pts',(75.2211553876383,24.889091350499,24.7500003427267));
#1327=CARTESIAN_POINT('Ctrl Pts',(74.7788468475359,24.889091350499,24.7500003427267));
#1328=CARTESIAN_POINT('Ctrl Pts',(74.5434997878975,24.8992570076875,24.7055469474159));
#1329=CARTESIAN_POINT('Ctrl Pts',(74.1113387613169,24.932665547029,24.5256353575036));
#1330=CARTESIAN_POINT('Ctrl Pts',(73.9144409741496,24.9550072652779,24.3902123043516));
#1331=CARTESIAN_POINT('Ctrl Pts',(73.6132311171046,24.9873719492541,24.0872416561474));
#1332=CARTESIAN_POINT('Ctrl Pts',(73.4854619615003,25.,23.903816033898));
#1333=CARTESIAN_POINT('Ctrl Pts',(73.3972914936724,25.,23.7027249412796));
#1334=CARTESIAN_POINT('',(73.1590442734314,25.,23.7027249412796));
#1335=CARTESIAN_POINT('',(93.9325611996125,25.,23.7027249412796));
#1336=CARTESIAN_POINT('',(68.1590442734314,20.,28.7027249412796));
#1337=CARTESIAN_POINT('Origin',(73.1590442734314,20.,23.7027249412796));
#1338=CARTESIAN_POINT('',(93.9325611996125,20.,28.7027249412796));
#1339=CARTESIAN_POINT('',(165.40401841226,25.,23.7027249412796));
#1340=CARTESIAN_POINT('',(93.9325611996125,25.,23.7027249412796));
#1341=CARTESIAN_POINT('',(164.595986505123,25.,23.7027249412796));
#1342=CARTESIAN_POINT('Ctrl Pts',(165.40401841226,25.,23.7027249412796));
#1343=CARTESIAN_POINT('Ctrl Pts',(165.268975597492,25.,23.7347673814665));
#1344=CARTESIAN_POINT('Ctrl Pts',(165.1317979717,24.9997764987874,23.7500003278256));
#1345=CARTESIAN_POINT('Ctrl Pts',(164.868206945684,24.9997764987874,23.7500003278256));
#1346=CARTESIAN_POINT('Ctrl Pts',(164.731029319892,25.,23.7347673814665));
#1347=CARTESIAN_POINT('Ctrl Pts',(164.595986505123,25.,23.7027249412796));
#1348=CARTESIAN_POINT('',(93.9325611996125,25.,23.7027249412796));
#1349=CARTESIAN_POINT('Origin',(73.1590442734314,20.,-61.2972750587204));
#1350=CARTESIAN_POINT('',(73.1590442734314,25.,-54.9213736691861));
#1351=CARTESIAN_POINT('',(73.1590442734314,25.,-61.2972750587204));
#1352=CARTESIAN_POINT('',(68.1590442734314,20.,-54.9213736691861));
#1353=CARTESIAN_POINT('Origin',(73.1590442734314,20.,-54.9213736691861));
#1354=CARTESIAN_POINT('',(68.1590442734314,20.,-61.2972750587204));
#1355=CARTESIAN_POINT('Origin',(165.000002458692,25.,22.0000003278256));
#1356=CARTESIAN_POINT('Origin',(165.000002458692,25.,22.0000003278256));
#1357=CARTESIAN_POINT('Origin',(165.000002458692,25.,22.0000003278256));
#1358=CARTESIAN_POINT('',(166.750002458692,15.,22.0000003278256));
#1359=CARTESIAN_POINT('',(166.750002458692,25.,22.0000003278256));
#1360=CARTESIAN_POINT('Origin',(165.000002458692,15.,22.0000003278256));
#1361=CARTESIAN_POINT('Origin',(119.706078125794,25.,-31.2972750587204));
#1362=CARTESIAN_POINT('',(162.484650408076,25.,-54.9213736691861));
#1363=CARTESIAN_POINT('',(93.9325611996125,25.,-54.9213736691861));
#1364=CARTESIAN_POINT('',(76.9275058435112,25.,-54.9213736691861));
#1365=CARTESIAN_POINT('',(171.253111978156,25.,-54.9213736691861));
#1366=CARTESIAN_POINT('',(93.9325611996125,25.,-54.9213736691861));
#1367=CARTESIAN_POINT('',(76.7500011175871,25.,23.0000003427267));
#1368=CARTESIAN_POINT('Origin',(75.0000011175871,25.,23.0000003427267));
#1369=CARTESIAN_POINT('Origin',(75.0000011175871,25.,23.0000003427267));
#1370=CARTESIAN_POINT('',(150.,25.,15.));
#1371=CARTESIAN_POINT('',(85.,25.,15.));
#1372=CARTESIAN_POINT('',(150.,25.,15.));
#1373=CARTESIAN_POINT('',(85.,25.,-50.));
#1374=CARTESIAN_POINT('',(85.,25.,15.));
#1375=CARTESIAN_POINT('',(150.,25.,-50.));
#1376=CARTESIAN_POINT('',(85.,25.,-50.));
#1377=CARTESIAN_POINT('',(150.,25.,-50.));
#1378=CARTESIAN_POINT('Origin',(68.1590442734314,0.,28.7027249412796));
#1379=CARTESIAN_POINT('',(68.1590442734314,15.,28.7027249412796));
#1380=CARTESIAN_POINT('',(68.1590442734314,0.,28.7027249412796));
#1381=CARTESIAN_POINT('',(93.9325611996125,15.,28.7027249412796));
#1382=CARTESIAN_POINT('Origin',(68.1590442734314,0.,-91.2972750587204));
#1383=CARTESIAN_POINT('',(68.1590442734314,15.,-60.857864376269));
#1384=CARTESIAN_POINT('',(68.1590442734314,15.,-89.142135623731));
#1385=CARTESIAN_POINT('Origin',(68.1590442734314,20.,-75.));
#1386=CARTESIAN_POINT('',(68.1590442734314,15.,-61.2972750587204));
#1387=CARTESIAN_POINT('',(68.1590442734314,25.,-54.9213736691861));
#1388=CARTESIAN_POINT('',(68.1590442734314,15.,-91.2972750587204));
#1389=CARTESIAN_POINT('',(68.1590442734314,0.,-91.2972750587204));
#1390=CARTESIAN_POINT('',(68.1590442734314,15.,-61.2972750587204));
#1391=CARTESIAN_POINT('Origin',(100.,25.,-91.2972750587204));
#1392=CARTESIAN_POINT('',(108.,25.,-91.2972750587204));
#1393=CARTESIAN_POINT('Origin',(100.,25.,-91.2972750587204));
#1394=CARTESIAN_POINT('',(108.,25.,-85.6093243639533));
#1395=CARTESIAN_POINT('',(108.,25.,-91.2972750587204));
#1396=CARTESIAN_POINT('Origin',(100.,25.,-85.6093243639533));
#1397=CARTESIAN_POINT('Origin',(75.0000011175871,25.,23.0000003427267));
#1398=CARTESIAN_POINT('',(76.7500011175871,15.,23.0000003427267));
#1399=CARTESIAN_POINT('',(76.7500011175871,25.,23.0000003427267));
#1400=CARTESIAN_POINT('Origin',(75.0000011175871,15.,23.0000003427267));
#1401=CARTESIAN_POINT('Origin',(162.484650408076,0.,19.3643265139089));
#1402=CARTESIAN_POINT('',(162.484650408076,15.,19.3643265139089));
#1403=CARTESIAN_POINT('',(76.9275058435112,15.,19.3643265139089));
#1404=CARTESIAN_POINT('',(141.095364266935,15.,19.3643265139089));
#1405=CARTESIAN_POINT('',(76.9275058435112,20.,19.3643265139089));
#1406=CARTESIAN_POINT('',(76.9275058435112,0.,19.3643265139089));
#1407=CARTESIAN_POINT('',(162.484650408076,20.,19.3643265139089));
#1408=CARTESIAN_POINT('',(141.095364266935,20.,19.3643265139089));
#1409=CARTESIAN_POINT('',(162.484650408076,0.,19.3643265139089));
#1410=CARTESIAN_POINT('Origin',(76.9275058435112,0.,19.3643265139089));
#1411=CARTESIAN_POINT('',(76.9275058435112,15.,-60.6093243639533));
#1412=CARTESIAN_POINT('',(76.9275058435112,15.,-5.96647427240578));
#1413=CARTESIAN_POINT('',(76.9275058435112,25.,-60.6093243639533));
#1414=CARTESIAN_POINT('',(76.9275058435112,35.,-60.6093243639533));
#1415=CARTESIAN_POINT('',(76.9275058435112,25.,-65.8747177140298));
#1416=CARTESIAN_POINT('',(76.9275058435112,20.,-54.9213736691861));
#1417=CARTESIAN_POINT('',(76.9275058435112,12.5,-54.9213736691861));
#1418=CARTESIAN_POINT('',(76.9275058435112,20.,3.1275010749778));
#1419=CARTESIAN_POINT('Origin',(74.6545000277801,70.,-60.6093243639533));
#1420=CARTESIAN_POINT('',(74.6545000277801,15.,-60.6093243639533));
#1421=CARTESIAN_POINT('',(74.6545000277801,15.,-85.6093243639533));
#1422=CARTESIAN_POINT('',(74.6545000277801,15.,-45.9532997113369));
#1423=CARTESIAN_POINT('',(74.6545000277801,70.,-85.6093243639533));
#1424=CARTESIAN_POINT('',(74.6545000277801,70.,-60.6093243639533));
#1425=CARTESIAN_POINT('Origin',(171.253111978156,0.,-91.2972750587204));
#1426=CARTESIAN_POINT('',(145.,15.,-91.2972750587204));
#1427=CARTESIAN_POINT('',(145.479595051975,15.,-91.2972750587204));
#1428=CARTESIAN_POINT('',(145.,25.,-91.2972750587204));
#1429=CARTESIAN_POINT('',(145.,7.5,-91.2972750587204));
#1430=CARTESIAN_POINT('',(130.,25.,-91.2972750587204));
#1431=CARTESIAN_POINT('',(158.126555989078,25.,-91.2972750587204));
#1432=CARTESIAN_POINT('',(130.,15.,-91.2972750587204));
#1433=CARTESIAN_POINT('',(130.,12.5,-91.2972750587204));
#1434=CARTESIAN_POINT('',(145.479595051975,15.,-91.2972750587204));
#1435=CARTESIAN_POINT('Origin',(145.,15.,-91.2972750587204));
#1436=CARTESIAN_POINT('',(145.,25.,-85.6093243639533));
#1437=CARTESIAN_POINT('',(145.,15.,-85.6093243639533));
#1438=CARTESIAN_POINT('',(145.,42.5,-85.6093243639533));
#1439=CARTESIAN_POINT('',(145.,25.,-91.2972750587204));
#1440=CARTESIAN_POINT('',(145.,15.,-91.2972750587204));
#1441=CARTESIAN_POINT('Origin',(130.,25.,-91.2972750587204));
#1442=CARTESIAN_POINT('',(130.,15.,-85.6093243639533));
#1443=CARTESIAN_POINT('',(130.,25.,-85.6093243639533));
#1444=CARTESIAN_POINT('',(130.,47.5,-85.6093243639533));
#1445=CARTESIAN_POINT('',(130.,15.,-91.2972750587204));
#1446=CARTESIAN_POINT('',(130.,25.,-91.2972750587204));
#1447=CARTESIAN_POINT('Origin',(145.,25.,-91.2972750587204));
#1448=CARTESIAN_POINT('',(109.82725001389,25.,-85.6093243639533));
#1449=CARTESIAN_POINT('Origin',(154.706078125794,40.,-54.9213736691861));
#1450=CARTESIAN_POINT('',(84.7060781257936,40.,-60.6093243639533));
#1451=CARTESIAN_POINT('',(154.706078125794,40.,-60.6093243639533));
#1452=CARTESIAN_POINT('',(159.7318671748,40.,-60.6093243639533));
#1453=CARTESIAN_POINT('',(84.7060781257936,40.,-54.9213736691861));
#1454=CARTESIAN_POINT('',(84.7060781257936,40.,-54.9213736691861));
#1455=CARTESIAN_POINT('',(154.706078125794,40.,-54.9213736691861));
#1456=CARTESIAN_POINT('',(111.432561199612,40.,-54.9213736691861));
#1457=CARTESIAN_POINT('',(154.706078125794,40.,-54.9213736691861));
#1458=CARTESIAN_POINT('Origin',(154.706078125794,60.,-54.9213736691861));
#1459=CARTESIAN_POINT('',(154.706078125794,60.,-60.6093243639533));
#1460=CARTESIAN_POINT('',(154.706078125794,65.,-60.6093243639533));
#1461=CARTESIAN_POINT('',(154.706078125794,60.,-54.9213736691861));
#1462=CARTESIAN_POINT('',(154.706078125794,42.5,-54.9213736691861));
#1463=CARTESIAN_POINT('',(154.706078125794,60.,-54.9213736691861));
#1464=CARTESIAN_POINT('Origin',(84.7060781257936,60.,-54.9213736691861));
#1465=CARTESIAN_POINT('',(84.7060781257936,60.,-60.6093243639533));
#1466=CARTESIAN_POINT('',(124.7318671748,60.,-60.6093243639533));
#1467=CARTESIAN_POINT('',(84.7060781257936,60.,-54.9213736691861));
#1468=CARTESIAN_POINT('',(76.4325611996125,60.,-54.9213736691861));
#1469=CARTESIAN_POINT('',(84.7060781257936,60.,-54.9213736691861));
#1470=CARTESIAN_POINT('Origin',(84.7060781257936,40.,-54.9213736691861));
#1471=CARTESIAN_POINT('',(84.7060781257936,55.,-60.6093243639533));
#1472=CARTESIAN_POINT('',(84.7060781257936,32.5,-54.9213736691861));
#1473=CARTESIAN_POINT('Origin',(164.757656223807,70.,-60.6093243639533));
#1474=CARTESIAN_POINT('',(164.757656223807,15.,-60.6093243639533));
#1475=CARTESIAN_POINT('',(162.484650408076,15.,-60.6093243639533));
#1476=CARTESIAN_POINT('',(142.2318671748,15.,-60.6093243639533));
#1477=CARTESIAN_POINT('',(162.484650408076,25.,-60.6093243639533));
#1478=CARTESIAN_POINT('',(162.484650408076,35.,-60.6093243639533));
#1479=CARTESIAN_POINT('',(142.2318671748,25.,-60.6093243639533));
#1480=CARTESIAN_POINT('',(142.2318671748,15.,-60.6093243639533));
#1481=CARTESIAN_POINT('',(164.757656223807,70.,-60.6093243639533));
#1482=CARTESIAN_POINT('Origin',(164.757656223807,70.,-85.6093243639533));
#1483=CARTESIAN_POINT('',(164.757656223807,15.,-85.6093243639533));
#1484=CARTESIAN_POINT('',(164.757656223807,15.,-58.4532997113369));
#1485=CARTESIAN_POINT('',(164.757656223807,70.,-85.6093243639533));
#1486=CARTESIAN_POINT('Origin',(74.6545000277801,70.,-85.6093243639533));
#1487=CARTESIAN_POINT('',(97.1802890767868,15.,-85.6093243639533));
#1488=CARTESIAN_POINT('',(97.1802890767868,15.,-85.6093243639533));
#1489=CARTESIAN_POINT('Origin',(68.1590442734314,25.,-54.9213736691861));
#1490=CARTESIAN_POINT('',(171.253111978156,25.,-54.9213736691861));
#1491=CARTESIAN_POINT('Origin',(119.706078125794,25.,-73.1093243639533));
#1492=CARTESIAN_POINT('',(162.484650408076,25.,-81.9588766313497));
#1493=CARTESIAN_POINT('Origin',(119.706078125794,25.,-31.2972750587204));
#1494=CARTESIAN_POINT('Origin',(85.,25.,-50.));
#1495=CARTESIAN_POINT('',(85.,20.,15.));
#1496=CARTESIAN_POINT('',(85.,25.,15.));
#1497=CARTESIAN_POINT('',(85.,20.,-50.));
#1498=CARTESIAN_POINT('',(85.,20.,15.));
#1499=CARTESIAN_POINT('',(85.,25.,-50.));
#1500=CARTESIAN_POINT('Origin',(150.,25.,-50.));
#1501=CARTESIAN_POINT('',(150.,20.,-50.));
#1502=CARTESIAN_POINT('',(85.,20.,-50.));
#1503=CARTESIAN_POINT('',(150.,25.,-50.));
#1504=CARTESIAN_POINT('Origin',(150.,25.,15.));
#1505=CARTESIAN_POINT('',(150.,20.,15.));
#1506=CARTESIAN_POINT('',(150.,20.,-50.));
#1507=CARTESIAN_POINT('',(150.,25.,15.));
#1508=CARTESIAN_POINT('Origin',(85.,25.,15.));
#1509=CARTESIAN_POINT('',(150.,20.,15.));
#1510=CARTESIAN_POINT('Origin',(68.1590442734314,25.,-54.9213736691861));
#1511=CARTESIAN_POINT('',(162.484650408076,20.,-54.9213736691861));
#1512=CARTESIAN_POINT('',(162.484650408076,12.5,-54.9213736691861));
#1513=CARTESIAN_POINT('',(171.253111978156,20.,-54.9213736691861));
#1514=CARTESIAN_POINT('Origin',(119.706078125794,20.,-13.1093243639533));
#1515=CARTESIAN_POINT('',(162.484650408076,20.,-47.5341004976515));
#1516=CARTESIAN_POINT('Origin',(162.484650408076,0.,-81.9588766313497));
#1517=CARTESIAN_POINT('',(162.484650408076,15.,-56.6280758450351));
#1518=CARTESIAN_POINT('Origin',(68.1590442734314,15.,-89.142135623731));
#1519=CARTESIAN_POINT('',(28.1590442734314,15.,-60.857864376269));
#1520=CARTESIAN_POINT('',(68.1590442734314,15.,-60.857864376269));
#1521=CARTESIAN_POINT('',(28.1590442734314,15.,-89.142135623731));
#1522=CARTESIAN_POINT('',(28.1590442734314,15.,-91.2972750587204));
#1523=CARTESIAN_POINT('',(68.1590442734314,15.,-89.142135623731));
#1524=CARTESIAN_POINT('Origin',(68.1590442734314,20.,-75.));
#1525=CARTESIAN_POINT('Origin',(28.1590442734314,20.,-75.));
#1526=CARTESIAN_POINT('Origin',(28.1590442734314,25.,-75.));
#1527=UNCERTAINTY_MEASURE_WITH_UNIT(LENGTH_MEASURE(0.01),#1531,
'DISTANCE_ACCURACY_VALUE',
'Maximum model space distance between geometric entities at asserted c
onnectivities');
#1528=UNCERTAINTY_MEASURE_WITH_UNIT(LENGTH_MEASURE(0.01),#1531,
'DISTANCE_ACCURACY_VALUE',
'Maximum model space distance between geometric entities at asserted c
onnectivities');
#1529=(
GEOMETRIC_REPRESENTATION_CONTEXT(3)
GLOBAL_UNCERTAINTY_ASSIGNED_CONTEXT((#1527))
GLOBAL_UNIT_ASSIGNED_CONTEXT((#1531,#1532,#1533))
REPRESENTATION_CONTEXT('','3D')
);
#1530=(
GEOMETRIC_REPRESENTATION_CONTEXT(3)
GLOBAL_UNCERTAINTY_ASSIGNED_CONTEXT((#1528))
GLOBAL_UNIT_ASSIGNED_CONTEXT((#1531,#1532,#1533))
REPRESENTATION_CONTEXT('','3D')
);
#1531=(
LENGTH_UNIT()
NAMED_UNIT(*)
SI_UNIT(.MILLI.,.METRE.)
);
#1532=(
NAMED_UNIT(*)
PLANE_ANGLE_UNIT()
SI_UNIT($,.RADIAN.)
);
#1533=(
NAMED_UNIT(*)
SI_UNIT($,.STERADIAN.)
SOLID_ANGLE_UNIT()
);
#1534=SHAPE_DEFINITION_REPRESENTATION(#1535,#1536);
#1535=PRODUCT_DEFINITION_SHAPE('',$,#1538);
#1536=SHAPE_REPRESENTATION('',(#929),#1529);
#1537=PRODUCT_DEFINITION_CONTEXT('part definition',#1542,'design');
#1538=PRODUCT_DEFINITION('yousnoozeyousolve 1','yousnoozeyousolve v3',#1539,
#1537);
#1539=PRODUCT_DEFINITION_FORMATION('',$,#1544);
#1540=PRODUCT_RELATED_PRODUCT_CATEGORY('yousnoozeyousolve v3',
'yousnoozeyousolve v3',(#1544));
#1541=APPLICATION_PROTOCOL_DEFINITION('international standard',
'automotive_design',2009,#1542);
#1542=APPLICATION_CONTEXT(
'Core Data for Automotive Mechanical Design Process');
#1543=PRODUCT_CONTEXT('part definition',#1542,'mechanical');
#1544=PRODUCT('yousnoozeyousolve 1','yousnoozeyousolve v3',
'KiCad electronic assembly',(#1543));
#1545=PRESENTATION_STYLE_ASSIGNMENT((#1546));
#1546=SURFACE_STYLE_USAGE(.BOTH.,#1547);
#1547=SURFACE_SIDE_STYLE('',(#1548));
#1548=SURFACE_STYLE_FILL_AREA(#1549);
#1549=FILL_AREA_STYLE('Steel - Satin',(#1550));
#1550=FILL_AREA_STYLE_COLOUR('Steel - Satin',#1551);
#1551=COLOUR_RGB('Steel - Satin',0.627450980392157,0.627450980392157,0.627450980392157);
ENDSEC;
END-ISO-10303-21;
