ISO-10303-21;
HEADER;
/* Generated by software containing ST-Developer
 * from STEP Tools, Inc. (www.steptools.com) 
 */

FILE_DESCRIPTION(
/* description */ ('KiCad electronic assembly'),
/* implementation_level */ '2;1');

FILE_NAME(
/* name */ 'yousnoozeyousolveBOTTOMCASE.step',
/* time_stamp */ '2026-09-12T08:40:48+08:00',
/* author */ (''),
/* organization */ (''),
/* preprocessor_version */ 'ST-DEVELOPER v20.2',
/* originating_system */ 'Autodesk Translation Framework v15.15.0.0',
/* authorisation */ '');

FILE_SCHEMA (('AUTOMOTIVE_DESIGN { 1 0 10303 214 3 1 1 }'));
ENDSEC;

DATA;
#10=MECHANICAL_DESIGN_GEOMETRIC_PRESENTATION_REPRESENTATION('',(#13),#1273);
#11=SHAPE_REPRESENTATION_RELATIONSHIP('SRR','None',#1279,#12);
#12=ADVANCED_BREP_SHAPE_REPRESENTATION('',(#14),#1272);
#13=STYLED_ITEM('',(#1288),#14);
#14=MANIFOLD_SOLID_BREP('Body1',#785);
#15=FACE_BOUND('',#91,.T.);
#16=FACE_BOUND('',#98,.T.);
#17=FACE_BOUND('',#106,.T.);
#18=FACE_BOUND('',#113,.T.);
#19=FACE_BOUND('',#124,.T.);
#20=FACE_BOUND('',#125,.T.);
#21=FACE_BOUND('',#126,.T.);
#22=CIRCLE('',#790,1.25);
#23=CIRCLE('',#791,1.25);
#24=CIRCLE('',#798,1.25);
#25=CIRCLE('',#799,1.25);
#26=CIRCLE('',#806,1.25);
#27=CIRCLE('',#807,1.25);
#28=CIRCLE('',#816,1.25);
#29=CIRCLE('',#817,1.25);
#30=CIRCLE('',#823,1.75000000000001);
#31=CIRCLE('',#824,1.75000000000001);
#32=CIRCLE('',#827,1.75);
#33=CIRCLE('',#828,1.75);
#34=CYLINDRICAL_SURFACE('',#789,1.25);
#35=CYLINDRICAL_SURFACE('',#797,1.25);
#36=CYLINDRICAL_SURFACE('',#805,1.25);
#37=CYLINDRICAL_SURFACE('',#815,1.25);
#38=CYLINDRICAL_SURFACE('',#822,1.75000000000001);
#39=CYLINDRICAL_SURFACE('',#826,1.75);
#40=FACE_OUTER_BOUND('',#85,.T.);
#41=FACE_OUTER_BOUND('',#86,.T.);
#42=FACE_OUTER_BOUND('',#87,.T.);
#43=FACE_OUTER_BOUND('',#88,.T.);
#44=FACE_OUTER_BOUND('',#89,.T.);
#45=FACE_OUTER_BOUND('',#90,.T.);
#46=FACE_OUTER_BOUND('',#92,.T.);
#47=FACE_OUTER_BOUND('',#93,.T.);
#48=FACE_OUTER_BOUND('',#94,.T.);
#49=FACE_OUTER_BOUND('',#95,.T.);
#50=FACE_OUTER_BOUND('',#96,.T.);
#51=FACE_OUTER_BOUND('',#97,.T.);
#52=FACE_OUTER_BOUND('',#99,.T.);
#53=FACE_OUTER_BOUND('',#100,.T.);
#54=FACE_OUTER_BOUND('',#101,.T.);
#55=FACE_OUTER_BOUND('',#102,.T.);
#56=FACE_OUTER_BOUND('',#103,.T.);
#57=FACE_OUTER_BOUND('',#104,.T.);
#58=FACE_OUTER_BOUND('',#105,.T.);
#59=FACE_OUTER_BOUND('',#107,.T.);
#60=FACE_OUTER_BOUND('',#108,.T.);
#61=FACE_OUTER_BOUND('',#109,.T.);
#62=FACE_OUTER_BOUND('',#110,.T.);
#63=FACE_OUTER_BOUND('',#111,.T.);
#64=FACE_OUTER_BOUND('',#112,.T.);
#65=FACE_OUTER_BOUND('',#114,.T.);
#66=FACE_OUTER_BOUND('',#115,.T.);
#67=FACE_OUTER_BOUND('',#116,.T.);
#68=FACE_OUTER_BOUND('',#117,.T.);
#69=FACE_OUTER_BOUND('',#118,.T.);
#70=FACE_OUTER_BOUND('',#119,.T.);
#71=FACE_OUTER_BOUND('',#120,.T.);
#72=FACE_OUTER_BOUND('',#121,.T.);
#73=FACE_OUTER_BOUND('',#122,.T.);
#74=FACE_OUTER_BOUND('',#123,.T.);
#75=FACE_OUTER_BOUND('',#127,.T.);
#76=FACE_OUTER_BOUND('',#128,.T.);
#77=FACE_OUTER_BOUND('',#129,.T.);
#78=FACE_OUTER_BOUND('',#130,.T.);
#79=FACE_OUTER_BOUND('',#131,.T.);
#80=FACE_OUTER_BOUND('',#132,.T.);
#81=FACE_OUTER_BOUND('',#133,.T.);
#82=FACE_OUTER_BOUND('',#134,.T.);
#83=FACE_OUTER_BOUND('',#135,.T.);
#84=FACE_OUTER_BOUND('',#136,.T.);
#85=EDGE_LOOP('',(#493,#494,#495,#496,#497));
#86=EDGE_LOOP('',(#498,#499,#500,#501,#502));
#87=EDGE_LOOP('',(#503,#504,#505,#506));
#88=EDGE_LOOP('',(#507,#508,#509,#510));
#89=EDGE_LOOP('',(#511,#512,#513,#514));
#90=EDGE_LOOP('',(#515,#516,#517,#518));
#91=EDGE_LOOP('',(#519));
#92=EDGE_LOOP('',(#520,#521,#522,#523,#524,#525,#526,#527));
#93=EDGE_LOOP('',(#528));
#94=EDGE_LOOP('',(#529,#530,#531,#532));
#95=EDGE_LOOP('',(#533,#534,#535,#536));
#96=EDGE_LOOP('',(#537,#538,#539,#540));
#97=EDGE_LOOP('',(#541,#542,#543,#544));
#98=EDGE_LOOP('',(#545));
#99=EDGE_LOOP('',(#546,#547,#548,#549,#550,#551,#552,#553,#554,#555,#556,
#557));
#100=EDGE_LOOP('',(#558,#559,#560,#561));
#101=EDGE_LOOP('',(#562,#563,#564,#565));
#102=EDGE_LOOP('',(#566,#567,#568,#569));
#103=EDGE_LOOP('',(#570,#571,#572,#573,#574));
#104=EDGE_LOOP('',(#575,#576,#577,#578,#579));
#105=EDGE_LOOP('',(#580,#581,#582,#583));
#106=EDGE_LOOP('',(#584));
#107=EDGE_LOOP('',(#585,#586,#587,#588));
#108=EDGE_LOOP('',(#589));
#109=EDGE_LOOP('',(#590,#591,#592,#593));
#110=EDGE_LOOP('',(#594,#595,#596,#597));
#111=EDGE_LOOP('',(#598,#599,#600,#601));
#112=EDGE_LOOP('',(#602,#603,#604,#605));
#113=EDGE_LOOP('',(#606));
#114=EDGE_LOOP('',(#607,#608,#609,#610,#611,#612,#613,#614));
#115=EDGE_LOOP('',(#615));
#116=EDGE_LOOP('',(#616,#617,#618,#619));
#117=EDGE_LOOP('',(#620));
#118=EDGE_LOOP('',(#621,#622,#623,#624));
#119=EDGE_LOOP('',(#625));
#120=EDGE_LOOP('',(#626,#627,#628,#629,#630,#631,#632,#633));
#121=EDGE_LOOP('',(#634,#635,#636,#637));
#122=EDGE_LOOP('',(#638,#639,#640,#641,#642,#643,#644,#645,#646,#647,#648,
#649));
#123=EDGE_LOOP('',(#650,#651,#652,#653));
#124=EDGE_LOOP('',(#654));
#125=EDGE_LOOP('',(#655));
#126=EDGE_LOOP('',(#656,#657,#658,#659,#660,#661,#662,#663));
#127=EDGE_LOOP('',(#664,#665,#666,#667));
#128=EDGE_LOOP('',(#668,#669,#670,#671));
#129=EDGE_LOOP('',(#672,#673,#674,#675));
#130=EDGE_LOOP('',(#676,#677,#678,#679));
#131=EDGE_LOOP('',(#680,#681,#682,#683));
#132=EDGE_LOOP('',(#684,#685,#686,#687));
#133=EDGE_LOOP('',(#688,#689,#690,#691));
#134=EDGE_LOOP('',(#692,#693,#694,#695));
#135=EDGE_LOOP('',(#696));
#136=EDGE_LOOP('',(#697,#698,#699,#700));
#137=LINE('',#1056,#229);
#138=LINE('',#1058,#230);
#139=LINE('',#1060,#231);
#140=LINE('',#1062,#232);
#141=LINE('',#1063,#233);
#142=LINE('',#1066,#234);
#143=LINE('',#1068,#235);
#144=LINE('',#1070,#236);
#145=LINE('',#1071,#237);
#146=LINE('',#1076,#238);
#147=LINE('',#1080,#239);
#148=LINE('',#1082,#240);
#149=LINE('',#1083,#241);
#150=LINE('',#1085,#242);
#151=LINE('',#1086,#243);
#152=LINE('',#1090,#244);
#153=LINE('',#1092,#245);
#154=LINE('',#1094,#246);
#155=LINE('',#1096,#247);
#156=LINE('',#1098,#248);
#157=LINE('',#1100,#249);
#158=LINE('',#1101,#250);
#159=LINE('',#1107,#251);
#160=LINE('',#1112,#252);
#161=LINE('',#1114,#253);
#162=LINE('',#1116,#254);
#163=LINE('',#1117,#255);
#164=LINE('',#1119,#256);
#165=LINE('',#1120,#257);
#166=LINE('',#1122,#258);
#167=LINE('',#1125,#259);
#168=LINE('',#1127,#260);
#169=LINE('',#1129,#261);
#170=LINE('',#1131,#262);
#171=LINE('',#1133,#263);
#172=LINE('',#1135,#264);
#173=LINE('',#1136,#265);
#174=LINE('',#1140,#266);
#175=LINE('',#1142,#267);
#176=LINE('',#1144,#268);
#177=LINE('',#1145,#269);
#178=LINE('',#1150,#270);
#179=LINE('',#1154,#271);
#180=LINE('',#1156,#272);
#181=LINE('',#1157,#273);
#182=LINE('',#1159,#274);
#183=LINE('',#1161,#275);
#184=LINE('',#1162,#276);
#185=LINE('',#1164,#277);
#186=LINE('',#1165,#278);
#187=LINE('',#1168,#279);
#188=LINE('',#1172,#280);
#189=LINE('',#1174,#281);
#190=LINE('',#1175,#282);
#191=LINE('',#1180,#283);
#192=LINE('',#1184,#284);
#193=LINE('',#1185,#285);
#194=LINE('',#1188,#286);
#195=LINE('',#1189,#287);
#196=LINE('',#1192,#288);
#197=LINE('',#1193,#289);
#198=LINE('',#1199,#290);
#199=LINE('',#1206,#291);
#200=LINE('',#1211,#292);
#201=LINE('',#1213,#293);
#202=LINE('',#1214,#294);
#203=LINE('',#1218,#295);
#204=LINE('',#1220,#296);
#205=LINE('',#1222,#297);
#206=LINE('',#1223,#298);
#207=LINE('',#1226,#299);
#208=LINE('',#1228,#300);
#209=LINE('',#1229,#301);
#210=LINE('',#1230,#302);
#211=LINE('',#1234,#303);
#212=LINE('',#1236,#304);
#213=LINE('',#1238,#305);
#214=LINE('',#1239,#306);
#215=LINE('',#1241,#307);
#216=LINE('',#1243,#308);
#217=LINE('',#1244,#309);
#218=LINE('',#1245,#310);
#219=LINE('',#1247,#311);
#220=LINE('',#1249,#312);
#221=LINE('',#1255,#313);
#222=LINE('',#1256,#314);
#223=LINE('',#1257,#315);
#224=LINE('',#1260,#316);
#225=LINE('',#1261,#317);
#226=LINE('',#1264,#318);
#227=LINE('',#1265,#319);
#228=LINE('',#1267,#320);
#229=VECTOR('',#848,10.);
#230=VECTOR('',#849,10.);
#231=VECTOR('',#850,10.);
#232=VECTOR('',#851,10.);
#233=VECTOR('',#852,10.);
#234=VECTOR('',#855,10.);
#235=VECTOR('',#856,10.);
#236=VECTOR('',#857,10.);
#237=VECTOR('',#858,10.);
#238=VECTOR('',#863,1.25);
#239=VECTOR('',#868,10.);
#240=VECTOR('',#869,10.);
#241=VECTOR('',#870,10.);
#242=VECTOR('',#873,10.);
#243=VECTOR('',#874,10.);
#244=VECTOR('',#879,10.);
#245=VECTOR('',#880,10.);
#246=VECTOR('',#881,10.);
#247=VECTOR('',#882,10.);
#248=VECTOR('',#883,10.);
#249=VECTOR('',#884,10.);
#250=VECTOR('',#885,10.);
#251=VECTOR('',#892,1.25);
#252=VECTOR('',#897,10.);
#253=VECTOR('',#898,10.);
#254=VECTOR('',#899,10.);
#255=VECTOR('',#900,10.);
#256=VECTOR('',#903,10.);
#257=VECTOR('',#904,10.);
#258=VECTOR('',#907,10.);
#259=VECTOR('',#910,10.);
#260=VECTOR('',#911,10.);
#261=VECTOR('',#912,10.);
#262=VECTOR('',#913,10.);
#263=VECTOR('',#914,10.);
#264=VECTOR('',#915,10.);
#265=VECTOR('',#916,10.);
#266=VECTOR('',#919,10.);
#267=VECTOR('',#920,10.);
#268=VECTOR('',#921,10.);
#269=VECTOR('',#922,10.);
#270=VECTOR('',#927,1.25);
#271=VECTOR('',#932,10.);
#272=VECTOR('',#933,10.);
#273=VECTOR('',#934,10.);
#274=VECTOR('',#937,10.);
#275=VECTOR('',#938,10.);
#276=VECTOR('',#939,10.);
#277=VECTOR('',#942,10.);
#278=VECTOR('',#943,10.);
#279=VECTOR('',#948,10.);
#280=VECTOR('',#953,10.);
#281=VECTOR('',#954,10.);
#282=VECTOR('',#955,10.);
#283=VECTOR('',#960,1.25);
#284=VECTOR('',#965,10.);
#285=VECTOR('',#966,10.);
#286=VECTOR('',#969,10.);
#287=VECTOR('',#970,10.);
#288=VECTOR('',#973,10.);
#289=VECTOR('',#974,10.);
#290=VECTOR('',#981,1.75000000000001);
#291=VECTOR('',#990,1.75);
#292=VECTOR('',#997,10.);
#293=VECTOR('',#998,10.);
#294=VECTOR('',#999,10.);
#295=VECTOR('',#1002,10.);
#296=VECTOR('',#1003,10.);
#297=VECTOR('',#1004,10.);
#298=VECTOR('',#1005,10.);
#299=VECTOR('',#1008,10.);
#300=VECTOR('',#1009,10.);
#301=VECTOR('',#1010,10.);
#302=VECTOR('',#1011,10.);
#303=VECTOR('',#1014,10.);
#304=VECTOR('',#1015,10.);
#305=VECTOR('',#1016,10.);
#306=VECTOR('',#1017,10.);
#307=VECTOR('',#1018,10.);
#308=VECTOR('',#1019,10.);
#309=VECTOR('',#1020,10.);
#310=VECTOR('',#1021,10.);
#311=VECTOR('',#1024,10.);
#312=VECTOR('',#1027,10.);
#313=VECTOR('',#1034,10.);
#314=VECTOR('',#1035,10.);
#315=VECTOR('',#1036,10.);
#316=VECTOR('',#1039,10.);
#317=VECTOR('',#1040,10.);
#318=VECTOR('',#1043,10.);
#319=VECTOR('',#1044,10.);
#320=VECTOR('',#1047,10.);
#321=VERTEX_POINT('',#1054);
#322=VERTEX_POINT('',#1055);
#323=VERTEX_POINT('',#1057);
#324=VERTEX_POINT('',#1059);
#325=VERTEX_POINT('',#1061);
#326=VERTEX_POINT('',#1065);
#327=VERTEX_POINT('',#1067);
#328=VERTEX_POINT('',#1069);
#329=VERTEX_POINT('',#1073);
#330=VERTEX_POINT('',#1075);
#331=VERTEX_POINT('',#1079);
#332=VERTEX_POINT('',#1081);
#333=VERTEX_POINT('',#1089);
#334=VERTEX_POINT('',#1091);
#335=VERTEX_POINT('',#1093);
#336=VERTEX_POINT('',#1095);
#337=VERTEX_POINT('',#1097);
#338=VERTEX_POINT('',#1099);
#339=VERTEX_POINT('',#1104);
#340=VERTEX_POINT('',#1106);
#341=VERTEX_POINT('',#1110);
#342=VERTEX_POINT('',#1111);
#343=VERTEX_POINT('',#1113);
#344=VERTEX_POINT('',#1115);
#345=VERTEX_POINT('',#1124);
#346=VERTEX_POINT('',#1126);
#347=VERTEX_POINT('',#1128);
#348=VERTEX_POINT('',#1130);
#349=VERTEX_POINT('',#1132);
#350=VERTEX_POINT('',#1134);
#351=VERTEX_POINT('',#1138);
#352=VERTEX_POINT('',#1139);
#353=VERTEX_POINT('',#1141);
#354=VERTEX_POINT('',#1143);
#355=VERTEX_POINT('',#1147);
#356=VERTEX_POINT('',#1149);
#357=VERTEX_POINT('',#1153);
#358=VERTEX_POINT('',#1155);
#359=VERTEX_POINT('',#1160);
#360=VERTEX_POINT('',#1171);
#361=VERTEX_POINT('',#1173);
#362=VERTEX_POINT('',#1177);
#363=VERTEX_POINT('',#1179);
#364=VERTEX_POINT('',#1183);
#365=VERTEX_POINT('',#1187);
#366=VERTEX_POINT('',#1191);
#367=VERTEX_POINT('',#1196);
#368=VERTEX_POINT('',#1198);
#369=VERTEX_POINT('',#1203);
#370=VERTEX_POINT('',#1205);
#371=VERTEX_POINT('',#1210);
#372=VERTEX_POINT('',#1212);
#373=VERTEX_POINT('',#1216);
#374=VERTEX_POINT('',#1217);
#375=VERTEX_POINT('',#1219);
#376=VERTEX_POINT('',#1221);
#377=VERTEX_POINT('',#1225);
#378=VERTEX_POINT('',#1227);
#379=VERTEX_POINT('',#1232);
#380=VERTEX_POINT('',#1233);
#381=VERTEX_POINT('',#1235);
#382=VERTEX_POINT('',#1237);
#383=VERTEX_POINT('',#1240);
#384=VERTEX_POINT('',#1242);
#385=VERTEX_POINT('',#1253);
#386=VERTEX_POINT('',#1254);
#387=VERTEX_POINT('',#1259);
#388=VERTEX_POINT('',#1263);
#389=EDGE_CURVE('',#321,#322,#137,.T.);
#390=EDGE_CURVE('',#321,#323,#138,.T.);
#391=EDGE_CURVE('',#324,#323,#139,.T.);
#392=EDGE_CURVE('',#325,#324,#140,.T.);
#393=EDGE_CURVE('',#322,#325,#141,.T.);
#394=EDGE_CURVE('',#326,#321,#142,.T.);
#395=EDGE_CURVE('',#327,#326,#143,.T.);
#396=EDGE_CURVE('',#327,#328,#144,.T.);
#397=EDGE_CURVE('',#323,#328,#145,.T.);
#398=EDGE_CURVE('',#329,#329,#22,.T.);
#399=EDGE_CURVE('',#329,#330,#146,.T.);
#400=EDGE_CURVE('',#330,#330,#23,.T.);
#401=EDGE_CURVE('',#331,#325,#147,.T.);
#402=EDGE_CURVE('',#332,#324,#148,.T.);
#403=EDGE_CURVE('',#331,#332,#149,.T.);
#404=EDGE_CURVE('',#327,#331,#150,.T.);
#405=EDGE_CURVE('',#328,#332,#151,.T.);
#406=EDGE_CURVE('',#333,#326,#152,.T.);
#407=EDGE_CURVE('',#333,#334,#153,.T.);
#408=EDGE_CURVE('',#334,#335,#154,.T.);
#409=EDGE_CURVE('',#335,#336,#155,.T.);
#410=EDGE_CURVE('',#337,#336,#156,.T.);
#411=EDGE_CURVE('',#337,#338,#157,.T.);
#412=EDGE_CURVE('',#338,#327,#158,.T.);
#413=EDGE_CURVE('',#339,#339,#24,.T.);
#414=EDGE_CURVE('',#339,#340,#159,.T.);
#415=EDGE_CURVE('',#340,#340,#25,.T.);
#416=EDGE_CURVE('',#341,#342,#160,.T.);
#417=EDGE_CURVE('',#343,#341,#161,.T.);
#418=EDGE_CURVE('',#344,#343,#162,.T.);
#419=EDGE_CURVE('',#342,#344,#163,.T.);
#420=EDGE_CURVE('',#342,#333,#164,.T.);
#421=EDGE_CURVE('',#334,#344,#165,.T.);
#422=EDGE_CURVE('',#335,#343,#166,.T.);
#423=EDGE_CURVE('',#322,#345,#167,.T.);
#424=EDGE_CURVE('',#345,#346,#168,.T.);
#425=EDGE_CURVE('',#346,#347,#169,.T.);
#426=EDGE_CURVE('',#347,#348,#170,.T.);
#427=EDGE_CURVE('',#348,#349,#171,.T.);
#428=EDGE_CURVE('',#349,#350,#172,.T.);
#429=EDGE_CURVE('',#350,#341,#173,.T.);
#430=EDGE_CURVE('',#351,#352,#174,.T.);
#431=EDGE_CURVE('',#352,#353,#175,.T.);
#432=EDGE_CURVE('',#354,#353,#176,.T.);
#433=EDGE_CURVE('',#351,#354,#177,.T.);
#434=EDGE_CURVE('',#355,#355,#26,.T.);
#435=EDGE_CURVE('',#355,#356,#178,.T.);
#436=EDGE_CURVE('',#356,#356,#27,.T.);
#437=EDGE_CURVE('',#352,#357,#179,.T.);
#438=EDGE_CURVE('',#357,#358,#180,.T.);
#439=EDGE_CURVE('',#353,#358,#181,.T.);
#440=EDGE_CURVE('',#351,#345,#182,.T.);
#441=EDGE_CURVE('',#359,#354,#183,.T.);
#442=EDGE_CURVE('',#346,#359,#184,.T.);
#443=EDGE_CURVE('',#358,#359,#185,.T.);
#444=EDGE_CURVE('',#347,#357,#186,.T.);
#445=EDGE_CURVE('',#325,#351,#187,.T.);
#446=EDGE_CURVE('',#360,#348,#188,.T.);
#447=EDGE_CURVE('',#361,#360,#189,.T.);
#448=EDGE_CURVE('',#349,#361,#190,.T.);
#449=EDGE_CURVE('',#362,#362,#28,.T.);
#450=EDGE_CURVE('',#362,#363,#191,.T.);
#451=EDGE_CURVE('',#363,#363,#29,.T.);
#452=EDGE_CURVE('',#364,#361,#192,.T.);
#453=EDGE_CURVE('',#350,#364,#193,.T.);
#454=EDGE_CURVE('',#365,#360,#194,.T.);
#455=EDGE_CURVE('',#364,#365,#195,.T.);
#456=EDGE_CURVE('',#365,#366,#196,.T.);
#457=EDGE_CURVE('',#336,#366,#197,.T.);
#458=EDGE_CURVE('',#367,#367,#30,.T.);
#459=EDGE_CURVE('',#367,#368,#198,.T.);
#460=EDGE_CURVE('',#368,#368,#31,.T.);
#461=EDGE_CURVE('',#369,#369,#32,.T.);
#462=EDGE_CURVE('',#369,#370,#199,.T.);
#463=EDGE_CURVE('',#370,#370,#33,.T.);
#464=EDGE_CURVE('',#357,#371,#200,.T.);
#465=EDGE_CURVE('',#371,#372,#201,.T.);
#466=EDGE_CURVE('',#366,#372,#202,.T.);
#467=EDGE_CURVE('',#373,#374,#203,.T.);
#468=EDGE_CURVE('',#373,#375,#204,.T.);
#469=EDGE_CURVE('',#375,#376,#205,.T.);
#470=EDGE_CURVE('',#374,#376,#206,.T.);
#471=EDGE_CURVE('',#377,#338,#207,.T.);
#472=EDGE_CURVE('',#378,#377,#208,.T.);
#473=EDGE_CURVE('',#376,#378,#209,.T.);
#474=EDGE_CURVE('',#371,#375,#210,.T.);
#475=EDGE_CURVE('',#379,#380,#211,.T.);
#476=EDGE_CURVE('',#380,#381,#212,.T.);
#477=EDGE_CURVE('',#381,#382,#213,.T.);
#478=EDGE_CURVE('',#382,#379,#214,.T.);
#479=EDGE_CURVE('',#374,#383,#215,.T.);
#480=EDGE_CURVE('',#383,#384,#216,.T.);
#481=EDGE_CURVE('',#384,#337,#217,.T.);
#482=EDGE_CURVE('',#372,#373,#218,.T.);
#483=EDGE_CURVE('',#383,#378,#219,.T.);
#484=EDGE_CURVE('',#384,#377,#220,.T.);
#485=EDGE_CURVE('',#385,#386,#221,.T.);
#486=EDGE_CURVE('',#386,#382,#222,.T.);
#487=EDGE_CURVE('',#385,#381,#223,.T.);
#488=EDGE_CURVE('',#387,#385,#224,.T.);
#489=EDGE_CURVE('',#387,#380,#225,.T.);
#490=EDGE_CURVE('',#388,#387,#226,.T.);
#491=EDGE_CURVE('',#388,#379,#227,.T.);
#492=EDGE_CURVE('',#386,#388,#228,.T.);
#493=ORIENTED_EDGE('',*,*,#389,.F.);
#494=ORIENTED_EDGE('',*,*,#390,.T.);
#495=ORIENTED_EDGE('',*,*,#391,.F.);
#496=ORIENTED_EDGE('',*,*,#392,.F.);
#497=ORIENTED_EDGE('',*,*,#393,.F.);
#498=ORIENTED_EDGE('',*,*,#394,.F.);
#499=ORIENTED_EDGE('',*,*,#395,.F.);
#500=ORIENTED_EDGE('',*,*,#396,.T.);
#501=ORIENTED_EDGE('',*,*,#397,.F.);
#502=ORIENTED_EDGE('',*,*,#390,.F.);
#503=ORIENTED_EDGE('',*,*,#398,.F.);
#504=ORIENTED_EDGE('',*,*,#399,.T.);
#505=ORIENTED_EDGE('',*,*,#400,.F.);
#506=ORIENTED_EDGE('',*,*,#399,.F.);
#507=ORIENTED_EDGE('',*,*,#401,.T.);
#508=ORIENTED_EDGE('',*,*,#392,.T.);
#509=ORIENTED_EDGE('',*,*,#402,.F.);
#510=ORIENTED_EDGE('',*,*,#403,.F.);
#511=ORIENTED_EDGE('',*,*,#404,.T.);
#512=ORIENTED_EDGE('',*,*,#403,.T.);
#513=ORIENTED_EDGE('',*,*,#405,.F.);
#514=ORIENTED_EDGE('',*,*,#396,.F.);
#515=ORIENTED_EDGE('',*,*,#405,.T.);
#516=ORIENTED_EDGE('',*,*,#402,.T.);
#517=ORIENTED_EDGE('',*,*,#391,.T.);
#518=ORIENTED_EDGE('',*,*,#397,.T.);
#519=ORIENTED_EDGE('',*,*,#398,.T.);
#520=ORIENTED_EDGE('',*,*,#395,.T.);
#521=ORIENTED_EDGE('',*,*,#406,.F.);
#522=ORIENTED_EDGE('',*,*,#407,.T.);
#523=ORIENTED_EDGE('',*,*,#408,.T.);
#524=ORIENTED_EDGE('',*,*,#409,.T.);
#525=ORIENTED_EDGE('',*,*,#410,.F.);
#526=ORIENTED_EDGE('',*,*,#411,.T.);
#527=ORIENTED_EDGE('',*,*,#412,.T.);
#528=ORIENTED_EDGE('',*,*,#400,.T.);
#529=ORIENTED_EDGE('',*,*,#413,.F.);
#530=ORIENTED_EDGE('',*,*,#414,.T.);
#531=ORIENTED_EDGE('',*,*,#415,.F.);
#532=ORIENTED_EDGE('',*,*,#414,.F.);
#533=ORIENTED_EDGE('',*,*,#416,.F.);
#534=ORIENTED_EDGE('',*,*,#417,.F.);
#535=ORIENTED_EDGE('',*,*,#418,.F.);
#536=ORIENTED_EDGE('',*,*,#419,.F.);
#537=ORIENTED_EDGE('',*,*,#420,.F.);
#538=ORIENTED_EDGE('',*,*,#419,.T.);
#539=ORIENTED_EDGE('',*,*,#421,.F.);
#540=ORIENTED_EDGE('',*,*,#407,.F.);
#541=ORIENTED_EDGE('',*,*,#421,.T.);
#542=ORIENTED_EDGE('',*,*,#418,.T.);
#543=ORIENTED_EDGE('',*,*,#422,.F.);
#544=ORIENTED_EDGE('',*,*,#408,.F.);
#545=ORIENTED_EDGE('',*,*,#413,.T.);
#546=ORIENTED_EDGE('',*,*,#389,.T.);
#547=ORIENTED_EDGE('',*,*,#423,.T.);
#548=ORIENTED_EDGE('',*,*,#424,.T.);
#549=ORIENTED_EDGE('',*,*,#425,.T.);
#550=ORIENTED_EDGE('',*,*,#426,.T.);
#551=ORIENTED_EDGE('',*,*,#427,.T.);
#552=ORIENTED_EDGE('',*,*,#428,.T.);
#553=ORIENTED_EDGE('',*,*,#429,.T.);
#554=ORIENTED_EDGE('',*,*,#416,.T.);
#555=ORIENTED_EDGE('',*,*,#420,.T.);
#556=ORIENTED_EDGE('',*,*,#406,.T.);
#557=ORIENTED_EDGE('',*,*,#394,.T.);
#558=ORIENTED_EDGE('',*,*,#430,.T.);
#559=ORIENTED_EDGE('',*,*,#431,.T.);
#560=ORIENTED_EDGE('',*,*,#432,.F.);
#561=ORIENTED_EDGE('',*,*,#433,.F.);
#562=ORIENTED_EDGE('',*,*,#434,.F.);
#563=ORIENTED_EDGE('',*,*,#435,.T.);
#564=ORIENTED_EDGE('',*,*,#436,.F.);
#565=ORIENTED_EDGE('',*,*,#435,.F.);
#566=ORIENTED_EDGE('',*,*,#437,.T.);
#567=ORIENTED_EDGE('',*,*,#438,.T.);
#568=ORIENTED_EDGE('',*,*,#439,.F.);
#569=ORIENTED_EDGE('',*,*,#431,.F.);
#570=ORIENTED_EDGE('',*,*,#424,.F.);
#571=ORIENTED_EDGE('',*,*,#440,.F.);
#572=ORIENTED_EDGE('',*,*,#433,.T.);
#573=ORIENTED_EDGE('',*,*,#441,.F.);
#574=ORIENTED_EDGE('',*,*,#442,.F.);
#575=ORIENTED_EDGE('',*,*,#425,.F.);
#576=ORIENTED_EDGE('',*,*,#442,.T.);
#577=ORIENTED_EDGE('',*,*,#443,.F.);
#578=ORIENTED_EDGE('',*,*,#438,.F.);
#579=ORIENTED_EDGE('',*,*,#444,.F.);
#580=ORIENTED_EDGE('',*,*,#443,.T.);
#581=ORIENTED_EDGE('',*,*,#441,.T.);
#582=ORIENTED_EDGE('',*,*,#432,.T.);
#583=ORIENTED_EDGE('',*,*,#439,.T.);
#584=ORIENTED_EDGE('',*,*,#434,.T.);
#585=ORIENTED_EDGE('',*,*,#393,.T.);
#586=ORIENTED_EDGE('',*,*,#445,.T.);
#587=ORIENTED_EDGE('',*,*,#440,.T.);
#588=ORIENTED_EDGE('',*,*,#423,.F.);
#589=ORIENTED_EDGE('',*,*,#415,.T.);
#590=ORIENTED_EDGE('',*,*,#427,.F.);
#591=ORIENTED_EDGE('',*,*,#446,.F.);
#592=ORIENTED_EDGE('',*,*,#447,.F.);
#593=ORIENTED_EDGE('',*,*,#448,.F.);
#594=ORIENTED_EDGE('',*,*,#449,.F.);
#595=ORIENTED_EDGE('',*,*,#450,.T.);
#596=ORIENTED_EDGE('',*,*,#451,.F.);
#597=ORIENTED_EDGE('',*,*,#450,.F.);
#598=ORIENTED_EDGE('',*,*,#428,.F.);
#599=ORIENTED_EDGE('',*,*,#448,.T.);
#600=ORIENTED_EDGE('',*,*,#452,.F.);
#601=ORIENTED_EDGE('',*,*,#453,.F.);
#602=ORIENTED_EDGE('',*,*,#454,.F.);
#603=ORIENTED_EDGE('',*,*,#455,.F.);
#604=ORIENTED_EDGE('',*,*,#452,.T.);
#605=ORIENTED_EDGE('',*,*,#447,.T.);
#606=ORIENTED_EDGE('',*,*,#449,.T.);
#607=ORIENTED_EDGE('',*,*,#417,.T.);
#608=ORIENTED_EDGE('',*,*,#429,.F.);
#609=ORIENTED_EDGE('',*,*,#453,.T.);
#610=ORIENTED_EDGE('',*,*,#455,.T.);
#611=ORIENTED_EDGE('',*,*,#456,.T.);
#612=ORIENTED_EDGE('',*,*,#457,.F.);
#613=ORIENTED_EDGE('',*,*,#409,.F.);
#614=ORIENTED_EDGE('',*,*,#422,.T.);
#615=ORIENTED_EDGE('',*,*,#436,.T.);
#616=ORIENTED_EDGE('',*,*,#458,.F.);
#617=ORIENTED_EDGE('',*,*,#459,.T.);
#618=ORIENTED_EDGE('',*,*,#460,.T.);
#619=ORIENTED_EDGE('',*,*,#459,.F.);
#620=ORIENTED_EDGE('',*,*,#460,.F.);
#621=ORIENTED_EDGE('',*,*,#461,.F.);
#622=ORIENTED_EDGE('',*,*,#462,.T.);
#623=ORIENTED_EDGE('',*,*,#463,.T.);
#624=ORIENTED_EDGE('',*,*,#462,.F.);
#625=ORIENTED_EDGE('',*,*,#463,.F.);
#626=ORIENTED_EDGE('',*,*,#444,.T.);
#627=ORIENTED_EDGE('',*,*,#464,.T.);
#628=ORIENTED_EDGE('',*,*,#465,.T.);
#629=ORIENTED_EDGE('',*,*,#466,.F.);
#630=ORIENTED_EDGE('',*,*,#456,.F.);
#631=ORIENTED_EDGE('',*,*,#454,.T.);
#632=ORIENTED_EDGE('',*,*,#446,.T.);
#633=ORIENTED_EDGE('',*,*,#426,.F.);
#634=ORIENTED_EDGE('',*,*,#467,.F.);
#635=ORIENTED_EDGE('',*,*,#468,.T.);
#636=ORIENTED_EDGE('',*,*,#469,.T.);
#637=ORIENTED_EDGE('',*,*,#470,.F.);
#638=ORIENTED_EDGE('',*,*,#412,.F.);
#639=ORIENTED_EDGE('',*,*,#471,.F.);
#640=ORIENTED_EDGE('',*,*,#472,.F.);
#641=ORIENTED_EDGE('',*,*,#473,.F.);
#642=ORIENTED_EDGE('',*,*,#469,.F.);
#643=ORIENTED_EDGE('',*,*,#474,.F.);
#644=ORIENTED_EDGE('',*,*,#464,.F.);
#645=ORIENTED_EDGE('',*,*,#437,.F.);
#646=ORIENTED_EDGE('',*,*,#430,.F.);
#647=ORIENTED_EDGE('',*,*,#445,.F.);
#648=ORIENTED_EDGE('',*,*,#401,.F.);
#649=ORIENTED_EDGE('',*,*,#404,.F.);
#650=ORIENTED_EDGE('',*,*,#475,.T.);
#651=ORIENTED_EDGE('',*,*,#476,.T.);
#652=ORIENTED_EDGE('',*,*,#477,.T.);
#653=ORIENTED_EDGE('',*,*,#478,.T.);
#654=ORIENTED_EDGE('',*,*,#458,.T.);
#655=ORIENTED_EDGE('',*,*,#461,.T.);
#656=ORIENTED_EDGE('',*,*,#479,.T.);
#657=ORIENTED_EDGE('',*,*,#480,.T.);
#658=ORIENTED_EDGE('',*,*,#481,.T.);
#659=ORIENTED_EDGE('',*,*,#410,.T.);
#660=ORIENTED_EDGE('',*,*,#457,.T.);
#661=ORIENTED_EDGE('',*,*,#466,.T.);
#662=ORIENTED_EDGE('',*,*,#482,.T.);
#663=ORIENTED_EDGE('',*,*,#467,.T.);
#664=ORIENTED_EDGE('',*,*,#479,.F.);
#665=ORIENTED_EDGE('',*,*,#470,.T.);
#666=ORIENTED_EDGE('',*,*,#473,.T.);
#667=ORIENTED_EDGE('',*,*,#483,.F.);
#668=ORIENTED_EDGE('',*,*,#480,.F.);
#669=ORIENTED_EDGE('',*,*,#483,.T.);
#670=ORIENTED_EDGE('',*,*,#472,.T.);
#671=ORIENTED_EDGE('',*,*,#484,.F.);
#672=ORIENTED_EDGE('',*,*,#481,.F.);
#673=ORIENTED_EDGE('',*,*,#484,.T.);
#674=ORIENTED_EDGE('',*,*,#471,.T.);
#675=ORIENTED_EDGE('',*,*,#411,.F.);
#676=ORIENTED_EDGE('',*,*,#482,.F.);
#677=ORIENTED_EDGE('',*,*,#465,.F.);
#678=ORIENTED_EDGE('',*,*,#474,.T.);
#679=ORIENTED_EDGE('',*,*,#468,.F.);
#680=ORIENTED_EDGE('',*,*,#485,.T.);
#681=ORIENTED_EDGE('',*,*,#486,.T.);
#682=ORIENTED_EDGE('',*,*,#477,.F.);
#683=ORIENTED_EDGE('',*,*,#487,.F.);
#684=ORIENTED_EDGE('',*,*,#488,.T.);
#685=ORIENTED_EDGE('',*,*,#487,.T.);
#686=ORIENTED_EDGE('',*,*,#476,.F.);
#687=ORIENTED_EDGE('',*,*,#489,.F.);
#688=ORIENTED_EDGE('',*,*,#490,.T.);
#689=ORIENTED_EDGE('',*,*,#489,.T.);
#690=ORIENTED_EDGE('',*,*,#475,.F.);
#691=ORIENTED_EDGE('',*,*,#491,.F.);
#692=ORIENTED_EDGE('',*,*,#492,.T.);
#693=ORIENTED_EDGE('',*,*,#491,.T.);
#694=ORIENTED_EDGE('',*,*,#478,.F.);
#695=ORIENTED_EDGE('',*,*,#486,.F.);
#696=ORIENTED_EDGE('',*,*,#451,.T.);
#697=ORIENTED_EDGE('',*,*,#492,.F.);
#698=ORIENTED_EDGE('',*,*,#485,.F.);
#699=ORIENTED_EDGE('',*,*,#488,.F.);
#700=ORIENTED_EDGE('',*,*,#490,.F.);
#701=PLANE('',#787);
#702=PLANE('',#788);
#703=PLANE('',#792);
#704=PLANE('',#793);
#705=PLANE('',#794);
#706=PLANE('',#795);
#707=PLANE('',#796);
#708=PLANE('',#800);
#709=PLANE('',#801);
#710=PLANE('',#802);
#711=PLANE('',#803);
#712=PLANE('',#804);
#713=PLANE('',#808);
#714=PLANE('',#809);
#715=PLANE('',#810);
#716=PLANE('',#811);
#717=PLANE('',#812);
#718=PLANE('',#813);
#719=PLANE('',#814);
#720=PLANE('',#818);
#721=PLANE('',#819);
#722=PLANE('',#820);
#723=PLANE('',#821);
#724=PLANE('',#825);
#725=PLANE('',#829);
#726=PLANE('',#830);
#727=PLANE('',#831);
#728=PLANE('',#832);
#729=PLANE('',#833);
#730=PLANE('',#834);
#731=PLANE('',#835);
#732=PLANE('',#836);
#733=PLANE('',#837);
#734=PLANE('',#838);
#735=PLANE('',#839);
#736=PLANE('',#840);
#737=PLANE('',#841);
#738=PLANE('',#842);
#739=PLANE('',#843);
#740=ADVANCED_FACE('',(#40),#701,.T.);
#741=ADVANCED_FACE('',(#41),#702,.T.);
#742=ADVANCED_FACE('',(#42),#34,.F.);
#743=ADVANCED_FACE('',(#43),#703,.T.);
#744=ADVANCED_FACE('',(#44),#704,.T.);
#745=ADVANCED_FACE('',(#45,#15),#705,.T.);
#746=ADVANCED_FACE('',(#46),#706,.T.);
#747=ADVANCED_FACE('',(#47),#707,.T.);
#748=ADVANCED_FACE('',(#48),#35,.F.);
#749=ADVANCED_FACE('',(#49),#708,.T.);
#750=ADVANCED_FACE('',(#50),#709,.T.);
#751=ADVANCED_FACE('',(#51,#16),#710,.T.);
#752=ADVANCED_FACE('',(#52),#711,.T.);
#753=ADVANCED_FACE('',(#53),#712,.T.);
#754=ADVANCED_FACE('',(#54),#36,.F.);
#755=ADVANCED_FACE('',(#55),#713,.T.);
#756=ADVANCED_FACE('',(#56),#714,.T.);
#757=ADVANCED_FACE('',(#57),#715,.T.);
#758=ADVANCED_FACE('',(#58,#17),#716,.T.);
#759=ADVANCED_FACE('',(#59),#717,.T.);
#760=ADVANCED_FACE('',(#60),#718,.T.);
#761=ADVANCED_FACE('',(#61),#719,.T.);
#762=ADVANCED_FACE('',(#62),#37,.F.);
#763=ADVANCED_FACE('',(#63),#720,.T.);
#764=ADVANCED_FACE('',(#64,#18),#721,.T.);
#765=ADVANCED_FACE('',(#65),#722,.T.);
#766=ADVANCED_FACE('',(#66),#723,.T.);
#767=ADVANCED_FACE('',(#67),#38,.F.);
#768=ADVANCED_FACE('',(#68),#724,.T.);
#769=ADVANCED_FACE('',(#69),#39,.F.);
#770=ADVANCED_FACE('',(#70),#725,.T.);
#771=ADVANCED_FACE('',(#71),#726,.T.);
#772=ADVANCED_FACE('',(#72),#727,.F.);
#773=ADVANCED_FACE('',(#73),#728,.F.);
#774=ADVANCED_FACE('',(#74,#19,#20,#21),#729,.F.);
#775=ADVANCED_FACE('',(#75),#730,.F.);
#776=ADVANCED_FACE('',(#76),#731,.F.);
#777=ADVANCED_FACE('',(#77),#732,.F.);
#778=ADVANCED_FACE('',(#78),#733,.F.);
#779=ADVANCED_FACE('',(#79),#734,.T.);
#780=ADVANCED_FACE('',(#80),#735,.T.);
#781=ADVANCED_FACE('',(#81),#736,.T.);
#782=ADVANCED_FACE('',(#82),#737,.T.);
#783=ADVANCED_FACE('',(#83),#738,.T.);
#784=ADVANCED_FACE('',(#84),#739,.F.);
#785=CLOSED_SHELL('',(#740,#741,#742,#743,#744,#745,#746,#747,#748,#749,
#750,#751,#752,#753,#754,#755,#756,#757,#758,#759,#760,#761,#762,#763,#764,
#765,#766,#767,#768,#769,#770,#771,#772,#773,#774,#775,#776,#777,#778,#779,
#780,#781,#782,#783,#784));
#786=AXIS2_PLACEMENT_3D('',#1052,#844,#845);
#787=AXIS2_PLACEMENT_3D('',#1053,#846,#847);
#788=AXIS2_PLACEMENT_3D('',#1064,#853,#854);
#789=AXIS2_PLACEMENT_3D('',#1072,#859,#860);
#790=AXIS2_PLACEMENT_3D('',#1074,#861,#862);
#791=AXIS2_PLACEMENT_3D('',#1077,#864,#865);
#792=AXIS2_PLACEMENT_3D('',#1078,#866,#867);
#793=AXIS2_PLACEMENT_3D('',#1084,#871,#872);
#794=AXIS2_PLACEMENT_3D('',#1087,#875,#876);
#795=AXIS2_PLACEMENT_3D('',#1088,#877,#878);
#796=AXIS2_PLACEMENT_3D('',#1102,#886,#887);
#797=AXIS2_PLACEMENT_3D('',#1103,#888,#889);
#798=AXIS2_PLACEMENT_3D('',#1105,#890,#891);
#799=AXIS2_PLACEMENT_3D('',#1108,#893,#894);
#800=AXIS2_PLACEMENT_3D('',#1109,#895,#896);
#801=AXIS2_PLACEMENT_3D('',#1118,#901,#902);
#802=AXIS2_PLACEMENT_3D('',#1121,#905,#906);
#803=AXIS2_PLACEMENT_3D('',#1123,#908,#909);
#804=AXIS2_PLACEMENT_3D('',#1137,#917,#918);
#805=AXIS2_PLACEMENT_3D('',#1146,#923,#924);
#806=AXIS2_PLACEMENT_3D('',#1148,#925,#926);
#807=AXIS2_PLACEMENT_3D('',#1151,#928,#929);
#808=AXIS2_PLACEMENT_3D('',#1152,#930,#931);
#809=AXIS2_PLACEMENT_3D('',#1158,#935,#936);
#810=AXIS2_PLACEMENT_3D('',#1163,#940,#941);
#811=AXIS2_PLACEMENT_3D('',#1166,#944,#945);
#812=AXIS2_PLACEMENT_3D('',#1167,#946,#947);
#813=AXIS2_PLACEMENT_3D('',#1169,#949,#950);
#814=AXIS2_PLACEMENT_3D('',#1170,#951,#952);
#815=AXIS2_PLACEMENT_3D('',#1176,#956,#957);
#816=AXIS2_PLACEMENT_3D('',#1178,#958,#959);
#817=AXIS2_PLACEMENT_3D('',#1181,#961,#962);
#818=AXIS2_PLACEMENT_3D('',#1182,#963,#964);
#819=AXIS2_PLACEMENT_3D('',#1186,#967,#968);
#820=AXIS2_PLACEMENT_3D('',#1190,#971,#972);
#821=AXIS2_PLACEMENT_3D('',#1194,#975,#976);
#822=AXIS2_PLACEMENT_3D('',#1195,#977,#978);
#823=AXIS2_PLACEMENT_3D('',#1197,#979,#980);
#824=AXIS2_PLACEMENT_3D('',#1200,#982,#983);
#825=AXIS2_PLACEMENT_3D('',#1201,#984,#985);
#826=AXIS2_PLACEMENT_3D('',#1202,#986,#987);
#827=AXIS2_PLACEMENT_3D('',#1204,#988,#989);
#828=AXIS2_PLACEMENT_3D('',#1207,#991,#992);
#829=AXIS2_PLACEMENT_3D('',#1208,#993,#994);
#830=AXIS2_PLACEMENT_3D('',#1209,#995,#996);
#831=AXIS2_PLACEMENT_3D('',#1215,#1000,#1001);
#832=AXIS2_PLACEMENT_3D('',#1224,#1006,#1007);
#833=AXIS2_PLACEMENT_3D('',#1231,#1012,#1013);
#834=AXIS2_PLACEMENT_3D('',#1246,#1022,#1023);
#835=AXIS2_PLACEMENT_3D('',#1248,#1025,#1026);
#836=AXIS2_PLACEMENT_3D('',#1250,#1028,#1029);
#837=AXIS2_PLACEMENT_3D('',#1251,#1030,#1031);
#838=AXIS2_PLACEMENT_3D('',#1252,#1032,#1033);
#839=AXIS2_PLACEMENT_3D('',#1258,#1037,#1038);
#840=AXIS2_PLACEMENT_3D('',#1262,#1041,#1042);
#841=AXIS2_PLACEMENT_3D('',#1266,#1045,#1046);
#842=AXIS2_PLACEMENT_3D('',#1268,#1048,#1049);
#843=AXIS2_PLACEMENT_3D('',#1269,#1050,#1051);
#844=DIRECTION('axis',(0.,0.,1.));
#845=DIRECTION('refdir',(1.,0.,0.));
#846=DIRECTION('center_axis',(-1.,0.,0.));
#847=DIRECTION('ref_axis',(0.,0.,1.));
#848=DIRECTION('',(0.,0.,-1.));
#849=DIRECTION('',(0.,1.,0.));
#850=DIRECTION('',(0.,0.,1.));
#851=DIRECTION('',(0.,1.,0.));
#852=DIRECTION('',(0.,1.,0.));
#853=DIRECTION('center_axis',(0.,0.,1.));
#854=DIRECTION('ref_axis',(1.,0.,0.));
#855=DIRECTION('',(-1.,0.,0.));
#856=DIRECTION('',(0.,-1.,0.));
#857=DIRECTION('',(0.,1.,0.));
#858=DIRECTION('',(1.,0.,0.));
#859=DIRECTION('center_axis',(0.,1.,0.));
#860=DIRECTION('ref_axis',(1.,0.,0.));
#861=DIRECTION('center_axis',(0.,-1.,0.));
#862=DIRECTION('ref_axis',(1.,0.,0.));
#863=DIRECTION('',(0.,-1.,0.));
#864=DIRECTION('center_axis',(0.,1.,0.));
#865=DIRECTION('ref_axis',(1.,0.,0.));
#866=DIRECTION('center_axis',(0.,0.,-1.));
#867=DIRECTION('ref_axis',(-1.,0.,0.));
#868=DIRECTION('',(-1.,0.,0.));
#869=DIRECTION('',(-1.,0.,0.));
#870=DIRECTION('',(0.,1.,0.));
#871=DIRECTION('center_axis',(1.,0.,0.));
#872=DIRECTION('ref_axis',(0.,0.,-1.));
#873=DIRECTION('',(0.,0.,-1.));
#874=DIRECTION('',(0.,0.,-1.));
#875=DIRECTION('center_axis',(0.,1.,0.));
#876=DIRECTION('ref_axis',(1.,0.,0.));
#877=DIRECTION('center_axis',(-1.,0.,0.));
#878=DIRECTION('ref_axis',(0.,0.,1.));
#879=DIRECTION('',(0.,0.,-1.));
#880=DIRECTION('',(0.,1.,0.));
#881=DIRECTION('',(0.,0.,1.));
#882=DIRECTION('',(0.,1.,0.));
#883=DIRECTION('',(0.,0.,1.));
#884=DIRECTION('',(0.,-1.,0.));
#885=DIRECTION('',(0.,0.,-1.));
#886=DIRECTION('center_axis',(0.,1.,0.));
#887=DIRECTION('ref_axis',(0.,0.,1.));
#888=DIRECTION('center_axis',(0.,1.,0.));
#889=DIRECTION('ref_axis',(1.,0.,0.));
#890=DIRECTION('center_axis',(0.,-1.,0.));
#891=DIRECTION('ref_axis',(1.,0.,0.));
#892=DIRECTION('',(0.,-1.,0.));
#893=DIRECTION('center_axis',(0.,1.,0.));
#894=DIRECTION('ref_axis',(1.,0.,0.));
#895=DIRECTION('center_axis',(-1.,0.,0.));
#896=DIRECTION('ref_axis',(0.,0.,1.));
#897=DIRECTION('',(0.,0.,-1.));
#898=DIRECTION('',(0.,-1.,0.));
#899=DIRECTION('',(0.,0.,1.));
#900=DIRECTION('',(0.,1.,0.));
#901=DIRECTION('center_axis',(0.,0.,-1.));
#902=DIRECTION('ref_axis',(-1.,0.,0.));
#903=DIRECTION('',(1.,0.,0.));
#904=DIRECTION('',(-1.,0.,0.));
#905=DIRECTION('center_axis',(0.,1.,0.));
#906=DIRECTION('ref_axis',(1.,0.,0.));
#907=DIRECTION('',(-1.,0.,0.));
#908=DIRECTION('center_axis',(0.,1.,0.));
#909=DIRECTION('ref_axis',(0.,0.,1.));
#910=DIRECTION('',(-1.,0.,0.));
#911=DIRECTION('',(0.,0.,1.));
#912=DIRECTION('',(-1.,0.,0.));
#913=DIRECTION('',(0.,0.,1.));
#914=DIRECTION('',(1.,0.,0.));
#915=DIRECTION('',(0.,0.,1.));
#916=DIRECTION('',(1.,0.,0.));
#917=DIRECTION('center_axis',(0.,0.,-1.));
#918=DIRECTION('ref_axis',(-1.,0.,0.));
#919=DIRECTION('',(-1.,0.,0.));
#920=DIRECTION('',(0.,1.,0.));
#921=DIRECTION('',(-1.,0.,0.));
#922=DIRECTION('',(0.,1.,0.));
#923=DIRECTION('center_axis',(0.,1.,0.));
#924=DIRECTION('ref_axis',(1.,0.,0.));
#925=DIRECTION('center_axis',(0.,-1.,0.));
#926=DIRECTION('ref_axis',(1.,0.,0.));
#927=DIRECTION('',(0.,-1.,0.));
#928=DIRECTION('center_axis',(0.,1.,0.));
#929=DIRECTION('ref_axis',(1.,0.,0.));
#930=DIRECTION('center_axis',(-1.,0.,0.));
#931=DIRECTION('ref_axis',(0.,0.,1.));
#932=DIRECTION('',(0.,0.,1.));
#933=DIRECTION('',(0.,1.,0.));
#934=DIRECTION('',(0.,0.,1.));
#935=DIRECTION('center_axis',(1.,0.,0.));
#936=DIRECTION('ref_axis',(0.,0.,-1.));
#937=DIRECTION('',(0.,-1.,0.));
#938=DIRECTION('',(0.,0.,-1.));
#939=DIRECTION('',(0.,1.,0.));
#940=DIRECTION('center_axis',(0.,0.,1.));
#941=DIRECTION('ref_axis',(1.,0.,0.));
#942=DIRECTION('',(1.,0.,0.));
#943=DIRECTION('',(0.,1.,0.));
#944=DIRECTION('center_axis',(0.,1.,0.));
#945=DIRECTION('ref_axis',(1.,0.,0.));
#946=DIRECTION('center_axis',(0.,0.,1.));
#947=DIRECTION('ref_axis',(1.,0.,0.));
#948=DIRECTION('',(-1.,0.,0.));
#949=DIRECTION('center_axis',(0.,1.,0.));
#950=DIRECTION('ref_axis',(0.,0.,1.));
#951=DIRECTION('center_axis',(0.,0.,-1.));
#952=DIRECTION('ref_axis',(-1.,0.,0.));
#953=DIRECTION('',(0.,-1.,0.));
#954=DIRECTION('',(-1.,0.,0.));
#955=DIRECTION('',(0.,1.,0.));
#956=DIRECTION('center_axis',(0.,1.,0.));
#957=DIRECTION('ref_axis',(1.,0.,0.));
#958=DIRECTION('center_axis',(0.,-1.,0.));
#959=DIRECTION('ref_axis',(1.,0.,0.));
#960=DIRECTION('',(0.,-1.,0.));
#961=DIRECTION('center_axis',(0.,1.,0.));
#962=DIRECTION('ref_axis',(1.,0.,0.));
#963=DIRECTION('center_axis',(1.,0.,0.));
#964=DIRECTION('ref_axis',(0.,0.,-1.));
#965=DIRECTION('',(0.,0.,-1.));
#966=DIRECTION('',(0.,1.,0.));
#967=DIRECTION('center_axis',(0.,1.,0.));
#968=DIRECTION('ref_axis',(1.,0.,0.));
#969=DIRECTION('',(0.,0.,-1.));
#970=DIRECTION('',(-1.,0.,0.));
#971=DIRECTION('center_axis',(0.,0.,-1.));
#972=DIRECTION('ref_axis',(-1.,0.,0.));
#973=DIRECTION('',(0.,1.,0.));
#974=DIRECTION('',(-1.,0.,0.));
#975=DIRECTION('center_axis',(0.,1.,0.));
#976=DIRECTION('ref_axis',(0.,0.,1.));
#977=DIRECTION('center_axis',(0.,-1.,0.));
#978=DIRECTION('ref_axis',(-1.,0.,0.));
#979=DIRECTION('center_axis',(0.,-1.,0.));
#980=DIRECTION('ref_axis',(-1.,0.,0.));
#981=DIRECTION('',(0.,-1.,0.));
#982=DIRECTION('center_axis',(0.,-1.,0.));
#983=DIRECTION('ref_axis',(-1.,0.,0.));
#984=DIRECTION('center_axis',(0.,1.,0.));
#985=DIRECTION('ref_axis',(-1.,0.,0.));
#986=DIRECTION('center_axis',(0.,-1.,0.));
#987=DIRECTION('ref_axis',(-1.,0.,0.));
#988=DIRECTION('center_axis',(0.,-1.,0.));
#989=DIRECTION('ref_axis',(-1.,0.,0.));
#990=DIRECTION('',(0.,-1.,0.));
#991=DIRECTION('center_axis',(0.,-1.,0.));
#992=DIRECTION('ref_axis',(-1.,0.,0.));
#993=DIRECTION('center_axis',(0.,1.,0.));
#994=DIRECTION('ref_axis',(-1.,0.,0.));
#995=DIRECTION('center_axis',(1.,0.,0.));
#996=DIRECTION('ref_axis',(0.,0.,-1.));
#997=DIRECTION('',(0.,0.,1.));
#998=DIRECTION('',(0.,1.,0.));
#999=DIRECTION('',(0.,0.,-1.));
#1000=DIRECTION('center_axis',(-1.,0.,0.));
#1001=DIRECTION('ref_axis',(0.,0.,-1.));
#1002=DIRECTION('',(0.,0.,-1.));
#1003=DIRECTION('',(0.,-1.,0.));
#1004=DIRECTION('',(0.,0.,-1.));
#1005=DIRECTION('',(0.,-1.,0.));
#1006=DIRECTION('center_axis',(0.,-1.,0.));
#1007=DIRECTION('ref_axis',(0.,0.,-1.));
#1008=DIRECTION('',(-1.,0.,0.));
#1009=DIRECTION('',(0.,0.,1.));
#1010=DIRECTION('',(1.,0.,0.));
#1011=DIRECTION('',(-1.,0.,0.));
#1012=DIRECTION('center_axis',(0.,-1.,0.));
#1013=DIRECTION('ref_axis',(1.,0.,0.));
#1014=DIRECTION('',(-1.,0.,0.));
#1015=DIRECTION('',(0.,0.,1.));
#1016=DIRECTION('',(1.,0.,0.));
#1017=DIRECTION('',(0.,0.,-1.));
#1018=DIRECTION('',(1.,0.,0.));
#1019=DIRECTION('',(0.,0.,1.));
#1020=DIRECTION('',(-1.,0.,0.));
#1021=DIRECTION('',(-1.,0.,0.));
#1022=DIRECTION('center_axis',(0.,0.,-1.));
#1023=DIRECTION('ref_axis',(1.,0.,0.));
#1024=DIRECTION('',(0.,-1.,0.));
#1025=DIRECTION('center_axis',(1.,0.,0.));
#1026=DIRECTION('ref_axis',(0.,0.,1.));
#1027=DIRECTION('',(0.,-1.,0.));
#1028=DIRECTION('center_axis',(0.,0.,1.));
#1029=DIRECTION('ref_axis',(-1.,0.,0.));
#1030=DIRECTION('center_axis',(0.,0.,1.));
#1031=DIRECTION('ref_axis',(-1.,0.,0.));
#1032=DIRECTION('center_axis',(0.,0.,1.));
#1033=DIRECTION('ref_axis',(1.,0.,0.));
#1034=DIRECTION('',(1.,0.,0.));
#1035=DIRECTION('',(0.,1.,0.));
#1036=DIRECTION('',(0.,1.,0.));
#1037=DIRECTION('center_axis',(-1.,0.,0.));
#1038=DIRECTION('ref_axis',(0.,0.,1.));
#1039=DIRECTION('',(0.,0.,1.));
#1040=DIRECTION('',(0.,1.,0.));
#1041=DIRECTION('center_axis',(0.,0.,-1.));
#1042=DIRECTION('ref_axis',(-1.,0.,0.));
#1043=DIRECTION('',(-1.,0.,0.));
#1044=DIRECTION('',(0.,1.,0.));
#1045=DIRECTION('center_axis',(1.,0.,0.));
#1046=DIRECTION('ref_axis',(0.,0.,-1.));
#1047=DIRECTION('',(0.,0.,-1.));
#1048=DIRECTION('center_axis',(0.,1.,0.));
#1049=DIRECTION('ref_axis',(0.,0.,1.));
#1050=DIRECTION('center_axis',(0.,1.,0.));
#1051=DIRECTION('ref_axis',(1.,0.,0.));
#1052=CARTESIAN_POINT('',(0.,0.,0.));
#1053=CARTESIAN_POINT('Origin',(150.,0.,-81.9588766313497));
#1054=CARTESIAN_POINT('',(150.,8.,-66.5589608747917));
#1055=CARTESIAN_POINT('',(150.,8.,-81.9588766313497));
#1056=CARTESIAN_POINT('',(150.,8.,-56.6280758450351));
#1057=CARTESIAN_POINT('',(150.,13.,-66.5589608747917));
#1058=CARTESIAN_POINT('',(150.,0.,-66.5589608747917));
#1059=CARTESIAN_POINT('',(150.,13.,-81.9588766313497));
#1060=CARTESIAN_POINT('',(150.,13.,-81.9588766313497));
#1061=CARTESIAN_POINT('',(150.,10.,-81.9588766313497));
#1062=CARTESIAN_POINT('',(150.,0.,-81.9588766313497));
#1063=CARTESIAN_POINT('',(150.,0.,-81.9588766313497));
#1064=CARTESIAN_POINT('Origin',(150.,0.,-66.5589608747917));
#1065=CARTESIAN_POINT('',(162.484650408076,8.,-66.5589608747917));
#1066=CARTESIAN_POINT('',(134.853039062897,8.,-66.5589608747917));
#1067=CARTESIAN_POINT('',(162.484650408076,10.,-66.5589608747917));
#1068=CARTESIAN_POINT('',(162.484650408076,0.,-66.5589608747917));
#1069=CARTESIAN_POINT('',(162.484650408076,13.,-66.5589608747917));
#1070=CARTESIAN_POINT('',(162.484650408076,0.,-66.5589608747917));
#1071=CARTESIAN_POINT('',(150.,13.,-66.5589608747917));
#1072=CARTESIAN_POINT('Origin',(156.000002324581,0.,-76.0000011324883));
#1073=CARTESIAN_POINT('',(154.750002324581,13.,-76.0000011324883));
#1074=CARTESIAN_POINT('Origin',(156.000002324581,13.,-76.0000011324883));
#1075=CARTESIAN_POINT('',(154.750002324581,8.,-76.0000011324883));
#1076=CARTESIAN_POINT('',(154.750002324581,0.,-76.0000011324883));
#1077=CARTESIAN_POINT('Origin',(156.000002324581,8.,-76.0000011324883));
#1078=CARTESIAN_POINT('Origin',(162.484650408076,0.,-81.9588766313497));
#1079=CARTESIAN_POINT('',(162.484650408076,10.,-81.9588766313497));
#1080=CARTESIAN_POINT('',(98.3167919846524,10.,-81.9588766313497));
#1081=CARTESIAN_POINT('',(162.484650408076,13.,-81.9588766313497));
#1082=CARTESIAN_POINT('',(162.484650408076,13.,-81.9588766313497));
#1083=CARTESIAN_POINT('',(162.484650408076,0.,-81.9588766313497));
#1084=CARTESIAN_POINT('Origin',(162.484650408076,0.,-66.5589608747917));
#1085=CARTESIAN_POINT('',(162.484650408076,10.,-77.5341004976515));
#1086=CARTESIAN_POINT('',(162.484650408076,13.,-66.5589608747917));
#1087=CARTESIAN_POINT('Origin',(156.242325204038,13.,-74.2589187530707));
#1088=CARTESIAN_POINT('Origin',(162.484650408076,0.,-81.9588766313497));
#1089=CARTESIAN_POINT('',(162.484650408076,8.,5.));
#1090=CARTESIAN_POINT('',(162.484650408076,8.,-56.6280758450351));
#1091=CARTESIAN_POINT('',(162.484650408076,13.,5.));
#1092=CARTESIAN_POINT('',(162.484650408076,0.,5.));
#1093=CARTESIAN_POINT('',(162.484650408076,13.,19.3643265139089));
#1094=CARTESIAN_POINT('',(162.484650408076,13.,-34.8883566871976));
#1095=CARTESIAN_POINT('',(162.484650408076,15.,19.3643265139089));
#1096=CARTESIAN_POINT('',(162.484650408076,0.,19.3643265139089));
#1097=CARTESIAN_POINT('',(162.484650408076,15.,-60.6093243639533));
#1098=CARTESIAN_POINT('',(162.484650408076,15.,-56.6280758450351));
#1099=CARTESIAN_POINT('',(162.484650408076,10.,-60.6093243639533));
#1100=CARTESIAN_POINT('',(162.484650408076,35.,-60.6093243639533));
#1101=CARTESIAN_POINT('',(162.484650408076,10.,-77.5341004976515));
#1102=CARTESIAN_POINT('Origin',(119.706078125794,8.,-31.2972750587204));
#1103=CARTESIAN_POINT('Origin',(155.500002317131,0.,12.0000001788139));
#1104=CARTESIAN_POINT('',(154.250002317131,13.,12.0000001788139));
#1105=CARTESIAN_POINT('Origin',(155.500002317131,13.,12.0000001788139));
#1106=CARTESIAN_POINT('',(154.250002317131,8.,12.0000001788139));
#1107=CARTESIAN_POINT('',(154.250002317131,0.,12.0000001788139));
#1108=CARTESIAN_POINT('Origin',(155.500002317131,8.,12.0000001788139));
#1109=CARTESIAN_POINT('Origin',(150.,0.,5.));
#1110=CARTESIAN_POINT('',(150.,8.,19.3643265139089));
#1111=CARTESIAN_POINT('',(150.,8.,5.));
#1112=CARTESIAN_POINT('',(150.,8.,-13.1486375293602));
#1113=CARTESIAN_POINT('',(150.,13.,19.3643265139089));
#1114=CARTESIAN_POINT('',(150.,0.,19.3643265139089));
#1115=CARTESIAN_POINT('',(150.,13.,5.));
#1116=CARTESIAN_POINT('',(150.,13.,19.3643265139089));
#1117=CARTESIAN_POINT('',(150.,0.,5.));
#1118=CARTESIAN_POINT('Origin',(162.484650408076,0.,5.));
#1119=CARTESIAN_POINT('',(141.095364266935,8.,5.));
#1120=CARTESIAN_POINT('',(150.,13.,5.));
#1121=CARTESIAN_POINT('Origin',(156.242325204038,13.,12.1821632569544));
#1122=CARTESIAN_POINT('',(159.363487806057,13.,19.3643265139089));
#1123=CARTESIAN_POINT('Origin',(119.706078125794,8.,-31.2972750587204));
#1124=CARTESIAN_POINT('',(90.0000013411045,8.,-81.9588766313497));
#1125=CARTESIAN_POINT('',(98.3167919846524,8.,-81.9588766313497));
#1126=CARTESIAN_POINT('',(90.0000013411045,8.,-65.8747177140298));
#1127=CARTESIAN_POINT('',(90.0000013411045,8.,-48.5859963863751));
#1128=CARTESIAN_POINT('',(76.9275058435112,8.,-65.8747177140298));
#1129=CARTESIAN_POINT('',(98.3167919846524,8.,-65.8747177140298));
#1130=CARTESIAN_POINT('',(76.9275058435112,8.,5.00000007450581));
#1131=CARTESIAN_POINT('',(76.9275058435112,8.,-5.96647427240578));
#1132=CARTESIAN_POINT('',(90.0000013411045,8.,5.00000007450581));
#1133=CARTESIAN_POINT('',(104.853039733449,8.,5.00000007450581));
#1134=CARTESIAN_POINT('',(90.0000013411045,8.,19.3643265139089));
#1135=CARTESIAN_POINT('',(90.0000013411045,8.,-5.96647427240578));
#1136=CARTESIAN_POINT('',(141.095364266935,8.,19.3643265139089));
#1137=CARTESIAN_POINT('Origin',(90.0000013411045,0.,-81.9588766313497));
#1138=CARTESIAN_POINT('',(90.0000013411045,10.,-81.9588766313497));
#1139=CARTESIAN_POINT('',(76.9275058435112,10.,-81.9588766313497));
#1140=CARTESIAN_POINT('',(98.3167919846524,10.,-81.9588766313497));
#1141=CARTESIAN_POINT('',(76.9275058435112,13.,-81.9588766313497));
#1142=CARTESIAN_POINT('',(76.9275058435112,0.,-81.9588766313497));
#1143=CARTESIAN_POINT('',(90.0000013411045,13.,-81.9588766313497));
#1144=CARTESIAN_POINT('',(76.9275058435112,13.,-81.9588766313497));
#1145=CARTESIAN_POINT('',(90.0000013411045,0.,-81.9588766313497));
#1146=CARTESIAN_POINT('Origin',(83.4746880949152,0.,-75.5573957494236));
#1147=CARTESIAN_POINT('',(82.2246880949152,13.,-75.5573957494236));
#1148=CARTESIAN_POINT('Origin',(83.4746880949152,13.,-75.5573957494236));
#1149=CARTESIAN_POINT('',(82.2246880949152,8.,-75.5573957494236));
#1150=CARTESIAN_POINT('',(82.2246880949152,0.,-75.5573957494236));
#1151=CARTESIAN_POINT('Origin',(83.4746880949152,8.,-75.5573957494236));
#1152=CARTESIAN_POINT('Origin',(76.9275058435112,0.,-81.9588766313497));
#1153=CARTESIAN_POINT('',(76.9275058435112,10.,-65.8747177140298));
#1154=CARTESIAN_POINT('',(76.9275058435112,10.,-26.8724989250222));
#1155=CARTESIAN_POINT('',(76.9275058435112,13.,-65.8747177140298));
#1156=CARTESIAN_POINT('',(76.9275058435112,0.,-65.8747177140298));
#1157=CARTESIAN_POINT('',(76.9275058435112,13.,-65.8747177140298));
#1158=CARTESIAN_POINT('Origin',(90.0000013411045,0.,-65.8747177140298));
#1159=CARTESIAN_POINT('',(90.0000013411045,0.,-81.9588766313497));
#1160=CARTESIAN_POINT('',(90.0000013411045,13.,-65.8747177140298));
#1161=CARTESIAN_POINT('',(90.0000013411045,13.,-81.9588766313497));
#1162=CARTESIAN_POINT('',(90.0000013411045,0.,-65.8747177140298));
#1163=CARTESIAN_POINT('Origin',(76.9275058435112,0.,-65.8747177140298));
#1164=CARTESIAN_POINT('',(90.0000013411045,13.,-65.8747177140298));
#1165=CARTESIAN_POINT('',(76.9275058435112,0.,-65.8747177140298));
#1166=CARTESIAN_POINT('Origin',(83.4637535923078,13.,-73.9167971726897));
#1167=CARTESIAN_POINT('Origin',(76.9275058435112,0.,-81.9588766313497));
#1168=CARTESIAN_POINT('',(98.3167919846524,10.,-81.9588766313497));
#1169=CARTESIAN_POINT('Origin',(119.706078125794,8.,-31.2972750587204));
#1170=CARTESIAN_POINT('Origin',(90.0000013411045,0.,5.00000007450581));
#1171=CARTESIAN_POINT('',(76.9275058435112,13.,5.00000007450581));
#1172=CARTESIAN_POINT('',(76.9275058435112,0.,5.00000007450581));
#1173=CARTESIAN_POINT('',(90.0000013411045,13.,5.00000007450581));
#1174=CARTESIAN_POINT('',(90.0000013411045,13.,5.00000007450581));
#1175=CARTESIAN_POINT('',(90.0000013411045,0.,5.00000007450581));
#1176=CARTESIAN_POINT('Origin',(84.5000012591481,0.,11.5000001713634));
#1177=CARTESIAN_POINT('',(83.2500012591481,13.,11.5000001713634));
#1178=CARTESIAN_POINT('Origin',(84.5000012591481,13.,11.5000001713634));
#1179=CARTESIAN_POINT('',(83.2500012591481,8.,11.5000001713634));
#1180=CARTESIAN_POINT('',(83.2500012591481,0.,11.5000001713634));
#1181=CARTESIAN_POINT('Origin',(84.5000012591481,8.,11.5000001713634));
#1182=CARTESIAN_POINT('Origin',(90.0000013411045,0.,19.3643265139089));
#1183=CARTESIAN_POINT('',(90.0000013411045,13.,19.3643265139089));
#1184=CARTESIAN_POINT('',(90.0000013411045,13.,19.3643265139089));
#1185=CARTESIAN_POINT('',(90.0000013411045,0.,19.3643265139089));
#1186=CARTESIAN_POINT('Origin',(83.4637535923078,13.,12.1821632942073));
#1187=CARTESIAN_POINT('',(76.9275058435112,13.,19.3643265139089));
#1188=CARTESIAN_POINT('',(76.9275058435112,13.,15.7732449040581));
#1189=CARTESIAN_POINT('',(122.974202000192,13.,19.3643265139089));
#1190=CARTESIAN_POINT('Origin',(162.484650408076,0.,19.3643265139089));
#1191=CARTESIAN_POINT('',(76.9275058435112,15.,19.3643265139089));
#1192=CARTESIAN_POINT('',(76.9275058435112,0.,19.3643265139089));
#1193=CARTESIAN_POINT('',(141.095364266935,15.,19.3643265139089));
#1194=CARTESIAN_POINT('Origin',(119.706078125794,8.,-31.2972750587204));
#1195=CARTESIAN_POINT('Origin',(165.000002458692,25.,22.0000003278256));
#1196=CARTESIAN_POINT('',(166.750002458692,15.,22.0000003278256));
#1197=CARTESIAN_POINT('Origin',(165.000002458692,15.,22.0000003278256));
#1198=CARTESIAN_POINT('',(166.750002458692,9.,22.0000003278256));
#1199=CARTESIAN_POINT('',(166.750002458692,25.,22.0000003278256));
#1200=CARTESIAN_POINT('Origin',(165.000002458692,9.,22.0000003278256));
#1201=CARTESIAN_POINT('Origin',(165.000002458692,9.,22.0000003278256));
#1202=CARTESIAN_POINT('Origin',(75.0000011175871,25.,23.0000003427267));
#1203=CARTESIAN_POINT('',(76.7500011175871,15.,23.0000003427267));
#1204=CARTESIAN_POINT('Origin',(75.0000011175871,15.,23.0000003427267));
#1205=CARTESIAN_POINT('',(76.7500011175871,9.,23.0000003427267));
#1206=CARTESIAN_POINT('',(76.7500011175871,25.,23.0000003427267));
#1207=CARTESIAN_POINT('Origin',(75.0000011175871,9.,23.0000003427267));
#1208=CARTESIAN_POINT('Origin',(75.0000011175871,9.,23.0000003427267));
#1209=CARTESIAN_POINT('Origin',(76.9275058435112,0.,19.3643265139089));
#1210=CARTESIAN_POINT('',(76.9275058435112,10.,-60.6093243639533));
#1211=CARTESIAN_POINT('',(76.9275058435112,10.,-26.8724989250222));
#1212=CARTESIAN_POINT('',(76.9275058435112,15.,-60.6093243639533));
#1213=CARTESIAN_POINT('',(76.9275058435112,35.,-60.6093243639533));
#1214=CARTESIAN_POINT('',(76.9275058435112,15.,-5.96647427240578));
#1215=CARTESIAN_POINT('Origin',(74.6545000277801,70.,-60.6093243639533));
#1216=CARTESIAN_POINT('',(74.6545000277801,15.,-60.6093243639533));
#1217=CARTESIAN_POINT('',(74.6545000277801,15.,-85.6093243639533));
#1218=CARTESIAN_POINT('',(74.6545000277801,15.,-45.9532997113369));
#1219=CARTESIAN_POINT('',(74.6545000277801,10.,-60.6093243639533));
#1220=CARTESIAN_POINT('',(74.6545000277801,70.,-60.6093243639533));
#1221=CARTESIAN_POINT('',(74.6545000277801,10.,-85.6093243639533));
#1222=CARTESIAN_POINT('',(74.6545000277801,10.,-60.6093243639533));
#1223=CARTESIAN_POINT('',(74.6545000277801,70.,-85.6093243639533));
#1224=CARTESIAN_POINT('Origin',(119.706078125794,10.,-73.1093243639533));
#1225=CARTESIAN_POINT('',(164.757656223807,10.,-60.6093243639533));
#1226=CARTESIAN_POINT('',(164.757656223807,10.,-60.6093243639533));
#1227=CARTESIAN_POINT('',(164.757656223807,10.,-85.6093243639533));
#1228=CARTESIAN_POINT('',(164.757656223807,10.,-85.6093243639533));
#1229=CARTESIAN_POINT('',(74.6545000277801,10.,-85.6093243639533));
#1230=CARTESIAN_POINT('',(164.757656223807,10.,-60.6093243639533));
#1231=CARTESIAN_POINT('Origin',(130.,15.,-91.2972750587204));
#1232=CARTESIAN_POINT('',(171.253111978156,15.,-91.2972750587204));
#1233=CARTESIAN_POINT('',(68.1590442734314,15.,-91.2972750587204));
#1234=CARTESIAN_POINT('',(145.479595051975,15.,-91.2972750587204));
#1235=CARTESIAN_POINT('',(68.1590442734314,15.,28.7027249412796));
#1236=CARTESIAN_POINT('',(68.1590442734314,15.,-61.2972750587204));
#1237=CARTESIAN_POINT('',(171.253111978156,15.,28.7027249412796));
#1238=CARTESIAN_POINT('',(93.9325611996125,15.,28.7027249412796));
#1239=CARTESIAN_POINT('',(171.253111978156,15.,-1.29727505872042));
#1240=CARTESIAN_POINT('',(164.757656223807,15.,-85.6093243639533));
#1241=CARTESIAN_POINT('',(97.1802890767868,15.,-85.6093243639533));
#1242=CARTESIAN_POINT('',(164.757656223807,15.,-60.6093243639533));
#1243=CARTESIAN_POINT('',(164.757656223807,15.,-58.4532997113369));
#1244=CARTESIAN_POINT('',(142.2318671748,15.,-60.6093243639533));
#1245=CARTESIAN_POINT('',(142.2318671748,15.,-60.6093243639533));
#1246=CARTESIAN_POINT('Origin',(74.6545000277801,70.,-85.6093243639533));
#1247=CARTESIAN_POINT('',(164.757656223807,70.,-85.6093243639533));
#1248=CARTESIAN_POINT('Origin',(164.757656223807,70.,-85.6093243639533));
#1249=CARTESIAN_POINT('',(164.757656223807,70.,-60.6093243639533));
#1250=CARTESIAN_POINT('Origin',(164.757656223807,70.,-60.6093243639533));
#1251=CARTESIAN_POINT('Origin',(164.757656223807,70.,-60.6093243639533));
#1252=CARTESIAN_POINT('Origin',(68.1590442734314,0.,28.7027249412796));
#1253=CARTESIAN_POINT('',(68.1590442734314,0.,28.7027249412796));
#1254=CARTESIAN_POINT('',(171.253111978156,0.,28.7027249412796));
#1255=CARTESIAN_POINT('',(68.1590442734314,0.,28.7027249412796));
#1256=CARTESIAN_POINT('',(171.253111978156,0.,28.7027249412796));
#1257=CARTESIAN_POINT('',(68.1590442734314,0.,28.7027249412796));
#1258=CARTESIAN_POINT('Origin',(68.1590442734314,0.,-91.2972750587204));
#1259=CARTESIAN_POINT('',(68.1590442734314,0.,-91.2972750587204));
#1260=CARTESIAN_POINT('',(68.1590442734314,0.,-91.2972750587204));
#1261=CARTESIAN_POINT('',(68.1590442734314,0.,-91.2972750587204));
#1262=CARTESIAN_POINT('Origin',(171.253111978156,0.,-91.2972750587204));
#1263=CARTESIAN_POINT('',(171.253111978156,0.,-91.2972750587204));
#1264=CARTESIAN_POINT('',(171.253111978156,0.,-91.2972750587204));
#1265=CARTESIAN_POINT('',(171.253111978156,0.,-91.2972750587204));
#1266=CARTESIAN_POINT('Origin',(171.253111978156,0.,28.7027249412796));
#1267=CARTESIAN_POINT('',(171.253111978156,0.,28.7027249412796));
#1268=CARTESIAN_POINT('Origin',(119.706078125794,8.,-31.2972750587204));
#1269=CARTESIAN_POINT('Origin',(119.706078125794,0.,-31.2972750587204));
#1270=UNCERTAINTY_MEASURE_WITH_UNIT(LENGTH_MEASURE(0.01),#1274,
'DISTANCE_ACCURACY_VALUE',
'Maximum model space distance between geometric entities at asserted c
onnectivities');
#1271=UNCERTAINTY_MEASURE_WITH_UNIT(LENGTH_MEASURE(0.01),#1274,
'DISTANCE_ACCURACY_VALUE',
'Maximum model space distance between geometric entities at asserted c
onnectivities');
#1272=(
GEOMETRIC_REPRESENTATION_CONTEXT(3)
GLOBAL_UNCERTAINTY_ASSIGNED_CONTEXT((#1270))
GLOBAL_UNIT_ASSIGNED_CONTEXT((#1274,#1275,#1276))
REPRESENTATION_CONTEXT('','3D')
);
#1273=(
GEOMETRIC_REPRESENTATION_CONTEXT(3)
GLOBAL_UNCERTAINTY_ASSIGNED_CONTEXT((#1271))
GLOBAL_UNIT_ASSIGNED_CONTEXT((#1274,#1275,#1276))
REPRESENTATION_CONTEXT('','3D')
);
#1274=(
LENGTH_UNIT()
NAMED_UNIT(*)
SI_UNIT(.MILLI.,.METRE.)
);
#1275=(
NAMED_UNIT(*)
PLANE_ANGLE_UNIT()
SI_UNIT($,.RADIAN.)
);
#1276=(
NAMED_UNIT(*)
SI_UNIT($,.STERADIAN.)
SOLID_ANGLE_UNIT()
);
#1277=SHAPE_DEFINITION_REPRESENTATION(#1278,#1279);
#1278=PRODUCT_DEFINITION_SHAPE('',$,#1281);
#1279=SHAPE_REPRESENTATION('',(#786),#1272);
#1280=PRODUCT_DEFINITION_CONTEXT('part definition',#1285,'design');
#1281=PRODUCT_DEFINITION('yousnoozeyousolve 1','yousnoozeyousolve v3',#1282,
#1280);
#1282=PRODUCT_DEFINITION_FORMATION('',$,#1287);
#1283=PRODUCT_RELATED_PRODUCT_CATEGORY('yousnoozeyousolve v3',
'yousnoozeyousolve v3',(#1287));
#1284=APPLICATION_PROTOCOL_DEFINITION('international standard',
'automotive_design',2009,#1285);
#1285=APPLICATION_CONTEXT(
'Core Data for Automotive Mechanical Design Process');
#1286=PRODUCT_CONTEXT('part definition',#1285,'mechanical');
#1287=PRODUCT('yousnoozeyousolve 1','yousnoozeyousolve v3',
'KiCad electronic assembly',(#1286));
#1288=PRESENTATION_STYLE_ASSIGNMENT((#1289));
#1289=SURFACE_STYLE_USAGE(.BOTH.,#1290);
#1290=SURFACE_SIDE_STYLE('',(#1291));
#1291=SURFACE_STYLE_FILL_AREA(#1292);
#1292=FILL_AREA_STYLE('Steel - Satin',(#1293));
#1293=FILL_AREA_STYLE_COLOUR('Steel - Satin',#1294);
#1294=COLOUR_RGB('Steel - Satin',0.627450980392157,0.627450980392157,0.627450980392157);
ENDSEC;
END-ISO-10303-21;
